0, 0, Header, 1, 2, 480
1, 0, Start_track
1, 0, Time_signature, 4, 2, 24, 8
1, 0, Key_signature, 0, "major"
1, 0, Tempo, 923077
1, 0, Control_c, 0, 121, 0
1, 0, Program_c, 0, 0
1, 0, Control_c, 0, 7, 100
1, 0, Control_c, 0, 10, 64
1, 0, Control_c, 0, 91, 0
1, 0, Control_c, 0, 93, 0
1, 0, MIDI_port, 0
1, 0, Note_on_c, 0, 60, 80
1, 0, Note_on_c, 0, 62, 80
1, 0, Note_on_c, 0, 67, 80
1, 480, Note_on_c, 0, 60, 0
1, 683, Note_on_c, 0, 62, 0
1, 683, Note_on_c, 0, 67, 0
1, 720, Note_on_c, 0, 74, 80
1, 947, Note_on_c, 0, 74, 0
1, 960, Note_on_c, 0, 64, 80
1, 960, Note_on_c, 0, 72, 80
1, 1415, Note_on_c, 0, 64, 0
1, 1415, Note_on_c, 0, 72, 0
1, 1440, Note_on_c, 0, 62, 80
1, 1440, Note_on_c, 0, 71, 80
1, 1667, Note_on_c, 0, 62, 0
1, 1667, Note_on_c, 0, 71, 0
1, 1680, Note_on_c, 0, 72, 80
1, 1907, Note_on_c, 0, 72, 0
1, 1920, Note_on_c, 0, 62, 80
1, 1920, Note_on_c, 0, 67, 80
1, 1920, Note_on_c, 0, 71, 80
1, 2603, Note_on_c, 0, 62, 0
1, 2603, Note_on_c, 0, 67, 0
1, 2603, Note_on_c, 0, 71, 0
1, 2640, Note_on_c, 0, 62, 80
1, 2867, Note_on_c, 0, 62, 0
1, 2880, Note_on_c, 0, 61, 80
1, 2880, Note_on_c, 0, 65, 80
1, 2880, Note_on_c, 0, 69, 80
1, 3335, Note_on_c, 0, 61, 0
1, 3335, Note_on_c, 0, 65, 0
1, 3335, Note_on_c, 0, 69, 0
1, 3360, Note_on_c, 0, 64, 80
1, 3360, Note_on_c, 0, 67, 80
1, 3815, Note_on_c, 0, 64, 0
1, 3815, Note_on_c, 0, 67, 0
1, 3840, Note_on_c, 0, 60, 80
1, 3840, Note_on_c, 0, 65, 80
1, 3840, Note_on_c, 0, 69, 80
1, 4067, Note_on_c, 0, 60, 0
1, 4067, Note_on_c, 0, 65, 0
1, 4067, Note_on_c, 0, 69, 0
1, 4080, Note_on_c, 0, 71, 80
1, 4307, Note_on_c, 0, 71, 0
1, 4320, Note_on_c, 0, 72, 80
1, 4547, Note_on_c, 0, 72, 0
1, 4560, Note_on_c, 0, 76, 80
1, 4787, Note_on_c, 0, 76, 0
1, 4800, Note_on_c, 0, 69, 80
1, 4800, Note_on_c, 0, 72, 80
1, 4800, Note_on_c, 0, 77, 80
1, 5027, Note_on_c, 0, 69, 0
1, 5027, Note_on_c, 0, 72, 0
1, 5027, Note_on_c, 0, 77, 0
1, 5040, Note_on_c, 0, 74, 80
1, 5267, Note_on_c, 0, 74, 0
1, 5280, Note_on_c, 0, 65, 80
1, 5280, Note_on_c, 0, 72, 80
1, 5507, Note_on_c, 0, 65, 0
1, 5507, Note_on_c, 0, 72, 0
1, 5520, Note_on_c, 0, 71, 80
1, 5747, Note_on_c, 0, 71, 0
1, 5760, Note_on_c, 0, 64, 80
1, 5760, Note_on_c, 0, 67, 80
1, 5760, Note_on_c, 0, 72, 80
1, 6671, Note_on_c, 0, 64, 0
1, 6671, Note_on_c, 0, 67, 0
1, 6671, Note_on_c, 0, 72, 0
1, 6720, Note_on_c, 0, 67, 80
1, 6720, Note_on_c, 0, 60, 80
1, 7175, Note_on_c, 0, 67, 0
1, 7200, Note_on_c, 0, 65, 80
1, 7631, Note_on_c, 0, 60, 0
1, 7655, Note_on_c, 0, 65, 0
1, 7680, Note_on_c, 0, 62, 80
1, 7712, Note_on_c, 0, 62, 0
1, 7713, Note_on_c, 0, 64, 80
1, 8135, Note_on_c, 0, 64, 0
1, 8160, Note_on_c, 0, 65, 80
1, 8387, Note_on_c, 0, 65, 0
1, 8400, Note_on_c, 0, 67, 80
1, 8627, Note_on_c, 0, 67, 0
1, 8640, Note_on_c, 0, 57, 80
1, 8640, Note_on_c, 0, 62, 80
1, 9095, Note_on_c, 0, 57, 0
1, 9095, Note_on_c, 0, 62, 0
1, 9120, Note_on_c, 0, 67, 80
1, 9575, Note_on_c, 0, 67, 0
1, 9600, Note_on_c, 0, 55, 80
1, 9600, Note_on_c, 0, 60, 80
1, 9941, Note_on_c, 0, 55, 0
1, 9941, Note_on_c, 0, 60, 0
1, 9960, Note_on_c, 0, 59, 80
1, 10073, Note_on_c, 0, 59, 0
1, 10080, Note_on_c, 0, 60, 80
1, 10307, Note_on_c, 0, 60, 0
1, 10320, Note_on_c, 0, 62, 80
1, 10547, Note_on_c, 0, 62, 0
1, 10560, Note_on_c, 0, 55, 80
1, 10560, Note_on_c, 0, 60, 80
1, 10560, Note_on_c, 0, 64, 80
1, 11015, Note_on_c, 0, 55, 0
1, 11015, Note_on_c, 0, 60, 0
1, 11015, Note_on_c, 0, 64, 0
1, 11040, Note_on_c, 0, 59, 80
1, 11072, Note_on_c, 0, 59, 0
1, 11073, Note_on_c, 0, 60, 80
1, 11268, Note_on_c, 0, 60, 0
1, 11280, Note_on_c, 0, 59, 80
1, 11507, Note_on_c, 0, 59, 0
1, 11520, Note_on_c, 0, 55, 80
1, 11520, Note_on_c, 0, 57, 80
1, 11975, Note_on_c, 0, 55, 0
1, 11975, Note_on_c, 0, 57, 0
1, 12000, Note_on_c, 0, 57, 80
1, 12227, Note_on_c, 0, 57, 0
1, 12240, Note_on_c, 0, 59, 80
1, 12467, Note_on_c, 0, 59, 0
1, 12480, Note_on_c, 0, 55, 80
1, 12480, Note_on_c, 0, 60, 80
1, 12707, Note_on_c, 0, 55, 0
1, 12707, Note_on_c, 0, 60, 0
1, 12720, Note_on_c, 0, 55, 80
1, 12947, Note_on_c, 0, 55, 0
1, 12960, Note_on_c, 0, 60, 80
1, 12960, Note_on_c, 0, 65, 80
1, 13073, Note_on_c, 0, 60, 0
1, 13073, Note_on_c, 0, 65, 0
1, 13080, Note_on_c, 0, 64, 80
1, 13421, Note_on_c, 0, 64, 0
1, 13440, Note_on_c, 0, 57, 80
1, 13440, Note_on_c, 0, 60, 80
1, 13440, Note_on_c, 0, 65, 80
1, 13667, Note_on_c, 0, 57, 0
1, 13667, Note_on_c, 0, 60, 0
1, 13667, Note_on_c, 0, 65, 0
1, 13680, Note_on_c, 0, 64, 80
1, 13907, Note_on_c, 0, 64, 0
1, 13920, Note_on_c, 0, 62, 80
1, 14147, Note_on_c, 0, 62, 0
1, 14160, Note_on_c, 0, 60, 80
1, 14387, Note_on_c, 0, 60, 0
1, 14400, Note_on_c, 0, 55, 80
1, 14400, Note_on_c, 0, 60, 80
1, 14400, Note_on_c, 0, 62, 80
1, 14855, Note_on_c, 0, 55, 0
1, 14855, Note_on_c, 0, 60, 0
1, 14855, Note_on_c, 0, 62, 0
1, 14880, Note_on_c, 0, 59, 80
1, 15335, Note_on_c, 0, 59, 0
1, 15360, Note_on_c, 0, 60, 80
1, 15360, Note_on_c, 0, 65, 80
1, 15587, Note_on_c, 0, 60, 0
1, 15587, Note_on_c, 0, 65, 0
1, 15600, Note_on_c, 0, 64, 80
1, 15827, Note_on_c, 0, 64, 0
1, 15840, Note_on_c, 0, 62, 80
1, 16067, Note_on_c, 0, 62, 0
1, 16080, Note_on_c, 0, 60, 80
1, 16307, Note_on_c, 0, 60, 0
1, 16320, Note_on_c, 0, 60, 80
1, 16320, Note_on_c, 0, 62, 80
1, 16775, Note_on_c, 0, 60, 0
1, 16775, Note_on_c, 0, 62, 0
1, 16800, Note_on_c, 0, 64, 80
1, 17027, Note_on_c, 0, 64, 0
1, 17040, Note_on_c, 0, 65, 80
1, 17267, Note_on_c, 0, 65, 0
1, 17280, Note_on_c, 0, 62, 80
1, 17280, Note_on_c, 0, 69, 80
1, 17507, Note_on_c, 0, 62, 0
1, 17507, Note_on_c, 0, 69, 0
1, 17520, Note_on_c, 0, 67, 80
1, 17747, Note_on_c, 0, 67, 0
1, 17760, Note_on_c, 0, 64, 80
1, 17987, Note_on_c, 0, 64, 0
1, 18000, Note_on_c, 0, 62, 80
1, 18227, Note_on_c, 0, 62, 0
1, 18240, Note_on_c, 0, 59, 80
1, 18240, Note_on_c, 0, 60, 80
1, 18695, Note_on_c, 0, 59, 0
1, 18695, Note_on_c, 0, 60, 0
1, 18720, Note_on_c, 0, 59, 80
1, 18833, Note_on_c, 0, 59, 0
1, 18840, Note_on_c, 0, 60, 80
1, 18953, Note_on_c, 0, 60, 0
1, 18960, Note_on_c, 0, 62, 80
1, 19073, Note_on_c, 0, 62, 0
1, 19080, Note_on_c, 0, 64, 80
1, 19193, Note_on_c, 0, 64, 0
1, 19200, Note_on_c, 0, 60, 80
1, 19200, Note_on_c, 0, 65, 80
1, 19655, Note_on_c, 0, 60, 0
1, 19655, Note_on_c, 0, 65, 0
1, 19680, Note_on_c, 0, 60, 80
1, 19680, Note_on_c, 0, 65, 80
1, 19907, Note_on_c, 0, 60, 0
1, 19907, Note_on_c, 0, 65, 0
1, 19920, Note_on_c, 0, 67, 80
1, 20147, Note_on_c, 0, 67, 0
1, 20160, Note_on_c, 0, 60, 80
1, 20160, Note_on_c, 0, 65, 80
1, 20160, Note_on_c, 0, 69, 80
1, 20387, Note_on_c, 0, 60, 0
1, 20387, Note_on_c, 0, 65, 0
1, 20387, Note_on_c, 0, 69, 0
1, 20400, Note_on_c, 0, 67, 80
1, 20627, Note_on_c, 0, 67, 0
1, 20640, Note_on_c, 0, 57, 80
1, 20640, Note_on_c, 0, 64, 80
1, 20867, Note_on_c, 0, 57, 0
1, 20867, Note_on_c, 0, 64, 0
1, 20880, Note_on_c, 0, 62, 80
1, 21107, Note_on_c, 0, 62, 0
1, 21120, Note_on_c, 0, 52, 80
1, 21120, Note_on_c, 0, 55, 80
1, 21120, Note_on_c, 0, 60, 80
1, 21600, Note_on_c, 0, 52, 0
1, 21840, Note_on_c, 0, 55, 0
1, 22031, Note_on_c, 0, 60, 0
1, 22080, Note_on_c, 0, 57, 80
1, 22080, Note_on_c, 0, 60, 80
1, 22535, Note_on_c, 0, 57, 0
1, 22535, Note_on_c, 0, 60, 0
1, 22560, Note_on_c, 0, 57, 80
1, 22560, Note_on_c, 0, 60, 80
1, 22560, Note_on_c, 0, 65, 80
1, 22787, Note_on_c, 0, 57, 0
1, 22787, Note_on_c, 0, 60, 0
1, 22787, Note_on_c, 0, 65, 0
1, 22800, Note_on_c, 0, 62, 80
1, 23027, Note_on_c, 0, 62, 0
1, 23040, Note_on_c, 0, 62, 80
1, 23072, Note_on_c, 0, 62, 0
1, 23073, Note_on_c, 0, 64, 80
1, 23495, Note_on_c, 0, 64, 0
1, 23520, Note_on_c, 0, 65, 80
1, 23747, Note_on_c, 0, 65, 0
1, 23760, Note_on_c, 0, 67, 80
1, 23987, Note_on_c, 0, 67, 0
1, 24000, Note_on_c, 0, 57, 80
1, 24000, Note_on_c, 0, 62, 80
1, 24455, Note_on_c, 0, 57, 0
1, 24455, Note_on_c, 0, 62, 0
1, 24480, Note_on_c, 0, 56, 80
1, 24480, Note_on_c, 0, 60, 80
1, 24480, Note_on_c, 0, 62, 80
1, 24480, Note_on_c, 0, 67, 80
1, 24935, Note_on_c, 0, 56, 0
1, 24935, Note_on_c, 0, 60, 0
1, 24935, Note_on_c, 0, 62, 0
1, 24935, Note_on_c, 0, 67, 0
1, 24960, Note_on_c, 0, 55, 80
1, 24960, Note_on_c, 0, 60, 80
1, 25301, Note_on_c, 0, 55, 0
1, 25301, Note_on_c, 0, 60, 0
1, 25320, Note_on_c, 0, 59, 80
1, 25433, Note_on_c, 0, 59, 0
1, 25440, Note_on_c, 0, 60, 80
1, 25667, Note_on_c, 0, 60, 0
1, 25680, Note_on_c, 0, 62, 80
1, 25907, Note_on_c, 0, 62, 0
1, 25920, Note_on_c, 0, 55, 80
1, 25920, Note_on_c, 0, 60, 80
1, 25920, Note_on_c, 0, 64, 80
1, 26375, Note_on_c, 0, 55, 0
1, 26375, Note_on_c, 0, 60, 0
1, 26375, Note_on_c, 0, 64, 0
1, 26400, Note_on_c, 0, 64, 80
1, 26400, Note_on_c, 0, 72, 80
1, 26627, Note_on_c, 0, 64, 0
1, 26627, Note_on_c, 0, 72, 0
1, 26640, Note_on_c, 0, 62, 80
1, 26640, Note_on_c, 0, 71, 80
1, 26867, Note_on_c, 0, 62, 0
1, 26867, Note_on_c, 0, 71, 0
1, 26880, Note_on_c, 0, 60, 80
1, 26880, Note_on_c, 0, 67, 80
1, 26880, Note_on_c, 0, 69, 80
1, 27335, Note_on_c, 0, 60, 0
1, 27335, Note_on_c, 0, 67, 0
1, 27335, Note_on_c, 0, 69, 0
1, 27360, Note_on_c, 0, 60, 80
1, 27360, Note_on_c, 0, 69, 80
1, 27587, Note_on_c, 0, 60, 0
1, 27587, Note_on_c, 0, 69, 0
1, 27600, Note_on_c, 0, 71, 80
1, 27827, Note_on_c, 0, 71, 0
1, 27840, Note_on_c, 0, 60, 80
1, 27840, Note_on_c, 0, 67, 80
1, 27840, Note_on_c, 0, 72, 80
1, 28067, Note_on_c, 0, 60, 0
1, 28067, Note_on_c, 0, 67, 0
1, 28067, Note_on_c, 0, 72, 0
1, 28080, Note_on_c, 0, 67, 80
1, 28307, Note_on_c, 0, 67, 0
1, 28320, Note_on_c, 0, 67, 80
1, 28320, Note_on_c, 0, 72, 80
1, 28320, Note_on_c, 0, 77, 80
1, 28433, Note_on_c, 0, 67, 0
1, 28433, Note_on_c, 0, 72, 0
1, 28433, Note_on_c, 0, 77, 0
1, 28440, Note_on_c, 0, 76, 80
1, 28781, Note_on_c, 0, 76, 0
1, 28800, Note_on_c, 0, 65, 80
1, 28800, Note_on_c, 0, 72, 80
1, 28800, Note_on_c, 0, 77, 80
1, 29027, Note_on_c, 0, 65, 0
1, 29027, Note_on_c, 0, 72, 0
1, 29027, Note_on_c, 0, 77, 0
1, 29040, Note_on_c, 0, 76, 80
1, 29267, Note_on_c, 0, 76, 0
1, 29280, Note_on_c, 0, 65, 80
1, 29280, Note_on_c, 0, 69, 80
1, 29280, Note_on_c, 0, 74, 80
1, 29507, Note_on_c, 0, 65, 0
1, 29507, Note_on_c, 0, 69, 0
1, 29507, Note_on_c, 0, 74, 0
1, 29520, Note_on_c, 0, 72, 80
1, 29747, Note_on_c, 0, 72, 0
1, 29760, Note_on_c, 0, 65, 80
1, 29760, Note_on_c, 0, 72, 80
1, 29760, Note_on_c, 0, 74, 80
1, 30215, Note_on_c, 0, 65, 0
1, 30215, Note_on_c, 0, 72, 0
1, 30215, Note_on_c, 0, 74, 0
1, 30240, Note_on_c, 0, 62, 80
1, 30240, Note_on_c, 0, 71, 80
1, 30695, Note_on_c, 0, 62, 0
1, 30695, Note_on_c, 0, 71, 0
1, 30720, Note_on_c, 0, 69, 80
1, 30720, Note_on_c, 0, 72, 80
1, 30720, Note_on_c, 0, 77, 80
1, 30947, Note_on_c, 0, 69, 0
1, 30947, Note_on_c, 0, 72, 0
1, 30947, Note_on_c, 0, 77, 0
1, 30960, Note_on_c, 0, 76, 80
1, 31187, Note_on_c, 0, 76, 0
1, 31200, Note_on_c, 0, 65, 80
1, 31200, Note_on_c, 0, 69, 80
1, 31200, Note_on_c, 0, 74, 80
1, 31427, Note_on_c, 0, 65, 0
1, 31427, Note_on_c, 0, 69, 0
1, 31427, Note_on_c, 0, 74, 0
1, 31440, Note_on_c, 0, 72, 80
1, 31667, Note_on_c, 0, 72, 0
1, 31680, Note_on_c, 0, 67, 80
1, 31680, Note_on_c, 0, 72, 80
1, 31680, Note_on_c, 0, 74, 80
1, 32135, Note_on_c, 0, 67, 0
1, 32135, Note_on_c, 0, 72, 0
1, 32135, Note_on_c, 0, 74, 0
1, 32160, Note_on_c, 0, 65, 80
1, 32160, Note_on_c, 0, 71, 80
1, 32387, Note_on_c, 0, 65, 0
1, 32387, Note_on_c, 0, 71, 0
1, 32400, Note_on_c, 0, 76, 80
1, 32513, Note_on_c, 0, 76, 0
1, 32520, Note_on_c, 0, 77, 80
1, 32633, Note_on_c, 0, 77, 0
1, 32640, Note_on_c, 0, 69, 80
1, 32640, Note_on_c, 0, 74, 80
1, 32640, Note_on_c, 0, 81, 80
1, 32867, Note_on_c, 0, 69, 0
1, 32867, Note_on_c, 0, 74, 0
1, 32867, Note_on_c, 0, 81, 0
1, 32880, Note_on_c, 0, 79, 80
1, 33107, Note_on_c, 0, 79, 0
1, 33120, Note_on_c, 0, 67, 80
1, 33120, Note_on_c, 0, 71, 80
1, 33120, Note_on_c, 0, 76, 80
1, 33347, Note_on_c, 0, 67, 0
1, 33347, Note_on_c, 0, 71, 0
1, 33347, Note_on_c, 0, 76, 0
1, 33360, Note_on_c, 0, 74, 80
1, 33587, Note_on_c, 0, 74, 0
1, 33600, Note_on_c, 0, 64, 80
1, 33600, Note_on_c, 0, 67, 80
1, 33600, Note_on_c, 0, 72, 80
1, 34055, Note_on_c, 0, 64, 0
1, 34055, Note_on_c, 0, 67, 0
1, 34055, Note_on_c, 0, 72, 0
1, 34080, Note_on_c, 0, 71, 80
1, 34193, Note_on_c, 0, 71, 0
1, 34200, Note_on_c, 0, 72, 80
1, 34313, Note_on_c, 0, 72, 0
1, 34320, Note_on_c, 0, 74, 80
1, 34433, Note_on_c, 0, 74, 0
1, 34440, Note_on_c, 0, 76, 80
1, 34553, Note_on_c, 0, 76, 0
1, 34560, Note_on_c, 0, 69, 80
1, 34560, Note_on_c, 0, 72, 80
1, 34560, Note_on_c, 0, 77, 80
1, 35015, Note_on_c, 0, 69, 0
1, 35015, Note_on_c, 0, 72, 0
1, 35015, Note_on_c, 0, 77, 0
1, 35040, Note_on_c, 0, 69, 80
1, 35040, Note_on_c, 0, 72, 80
1, 35040, Note_on_c, 0, 77, 80
1, 35267, Note_on_c, 0, 69, 0
1, 35267, Note_on_c, 0, 72, 0
1, 35267, Note_on_c, 0, 77, 0
1, 35280, Note_on_c, 0, 79, 80
1, 35507, Note_on_c, 0, 79, 0
1, 35520, Note_on_c, 0, 72, 80
1, 35520, Note_on_c, 0, 77, 80
1, 35520, Note_on_c, 0, 81, 80
1, 35747, Note_on_c, 0, 72, 0
1, 35747, Note_on_c, 0, 77, 0
1, 35747, Note_on_c, 0, 81, 0
1, 35760, Note_on_c, 0, 79, 80
1, 35987, Note_on_c, 0, 79, 0
1, 36000, Note_on_c, 0, 65, 80
1, 36000, Note_on_c, 0, 69, 80
1, 36000, Note_on_c, 0, 76, 80
1, 36227, Note_on_c, 0, 65, 0
1, 36227, Note_on_c, 0, 69, 0
1, 36227, Note_on_c, 0, 76, 0
1, 36240, Note_on_c, 0, 74, 80
1, 36467, Note_on_c, 0, 74, 0
1, 36480, Note_on_c, 0, 64, 80
1, 36480, Note_on_c, 0, 67, 80
1, 36480, Note_on_c, 0, 72, 80
1, 37391, Note_on_c, 0, 64, 0
1, 37391, Note_on_c, 0, 67, 0
1, 37391, Note_on_c, 0, 72, 0
1, 37440, Note_on_c, 0, 62, 80
1, 37440, Note_on_c, 0, 64, 80
1, 37667, Note_on_c, 0, 62, 0
1, 37667, Note_on_c, 0, 64, 0
1, 37680, Note_on_c, 0, 67, 80
1, 37907, Note_on_c, 0, 67, 0
1, 37920, Note_on_c, 0, 64, 80
1, 37920, Note_on_c, 0, 68, 80
1, 37920, Note_on_c, 0, 72, 80
1, 38147, Note_on_c, 0, 64, 0
1, 38147, Note_on_c, 0, 68, 0
1, 38147, Note_on_c, 0, 72, 0
1, 38160, Note_on_c, 0, 70, 80
1, 38387, Note_on_c, 0, 70, 0
1, 38400, Note_on_c, 0, 60, 80
1, 38400, Note_on_c, 0, 67, 80
1, 38400, Note_on_c, 0, 69, 80
1, 38855, Note_on_c, 0, 60, 0
1, 38855, Note_on_c, 0, 67, 0
1, 38855, Note_on_c, 0, 69, 0
1, 38880, Note_on_c, 0, 60, 80
1, 38880, Note_on_c, 0, 69, 80
1, 39107, Note_on_c, 0, 60, 0
1, 39107, Note_on_c, 0, 69, 0
1, 39120, Note_on_c, 0, 71, 80
1, 39347, Note_on_c, 0, 71, 0
1, 39360, Note_on_c, 0, 62, 80
1, 39360, Note_on_c, 0, 65, 80
1, 39360, Note_on_c, 0, 72, 80
1, 39587, Note_on_c, 0, 62, 0
1, 39587, Note_on_c, 0, 65, 0
1, 39587, Note_on_c, 0, 72, 0
1, 39600, Note_on_c, 0, 71, 80
1, 39827, Note_on_c, 0, 71, 0
1, 39840, Note_on_c, 0, 62, 80
1, 39840, Note_on_c, 0, 71, 80
1, 40009, Note_on_c, 0, 62, 0
1, 40009, Note_on_c, 0, 71, 0
1, 40020, Note_on_c, 0, 69, 80
1, 40304, Note_on_c, 0, 69, 0
1, 40320, Note_on_c, 0, 59, 80
1, 40320, Note_on_c, 0, 62, 80
1, 40320, Note_on_c, 0, 67, 80
1, 40547, Note_on_c, 0, 59, 0
1, 40547, Note_on_c, 0, 62, 0
1, 40547, Note_on_c, 0, 67, 0
1, 40560, Note_on_c, 0, 69, 80
1, 40787, Note_on_c, 0, 69, 0
1, 40800, Note_on_c, 0, 59, 80
1, 40800, Note_on_c, 0, 64, 80
1, 41027, Note_on_c, 0, 59, 0
1, 41027, Note_on_c, 0, 64, 0
1, 41040, Note_on_c, 0, 62, 80
1, 41267, Note_on_c, 0, 62, 0
1, 41280, Note_on_c, 0, 55, 80
1, 41280, Note_on_c, 0, 60, 80
1, 41735, Note_on_c, 0, 55, 0
1, 41735, Note_on_c, 0, 60, 0
1, 41760, Note_on_c, 0, 59, 80
1, 41987, Note_on_c, 0, 59, 0
1, 42000, Note_on_c, 0, 60, 80
1, 42227, Note_on_c, 0, 60, 0
1, 42240, Note_on_c, 0, 55, 80
1, 42240, Note_on_c, 0, 57, 80
1, 42467, Note_on_c, 0, 55, 0
1, 42467, Note_on_c, 0, 57, 0
1, 42480, Note_on_c, 0, 60, 80
1, 42707, Note_on_c, 0, 60, 0
1, 42720, Note_on_c, 0, 65, 80
1, 42889, Note_on_c, 0, 65, 0
1, 42900, Note_on_c, 0, 69, 80
1, 43184, Note_on_c, 0, 69, 0
1, 43200, Note_on_c, 0, 57, 80
1, 43200, Note_on_c, 0, 60, 80
1, 43200, Note_on_c, 0, 67, 80
1, 43427, Note_on_c, 0, 57, 0
1, 43427, Note_on_c, 0, 60, 0
1, 43427, Note_on_c, 0, 67, 0
1, 43440, Note_on_c, 0, 65, 80
1, 43667, Note_on_c, 0, 65, 0
1, 43680, Note_on_c, 0, 57, 80
1, 43680, Note_on_c, 0, 60, 80
1, 43680, Note_on_c, 0, 64, 80
1, 43907, Note_on_c, 0, 57, 0
1, 43907, Note_on_c, 0, 60, 0
1, 43907, Note_on_c, 0, 64, 0
1, 43920, Note_on_c, 0, 65, 80
1, 44147, Note_on_c, 0, 65, 0
1, 44160, Note_on_c, 0, 62, 80
1, 44160, Note_on_c, 0, 64, 80
1, 44160, Note_on_c, 0, 67, 80
1, 44729, Note_on_c, 0, 62, 0
1, 44729, Note_on_c, 0, 64, 0
1, 44729, Note_on_c, 0, 67, 0
1, 44760, Note_on_c, 0, 64, 80
1, 44873, Note_on_c, 0, 64, 0
1, 44880, Note_on_c, 0, 72, 80
1, 44993, Note_on_c, 0, 72, 0
1, 45000, Note_on_c, 0, 71, 80
1, 45113, Note_on_c, 0, 71, 0
1, 45120, Note_on_c, 0, 62, 80
1, 45120, Note_on_c, 0, 65, 80
1, 45120, Note_on_c, 0, 70, 80
1, 45347, Note_on_c, 0, 62, 0
1, 45347, Note_on_c, 0, 65, 0
1, 45347, Note_on_c, 0, 70, 0
1, 45360, Note_on_c, 0, 72, 80
1, 45587, Note_on_c, 0, 72, 0
1, 45600, Note_on_c, 0, 65, 80
1, 45600, Note_on_c, 0, 70, 80
1, 45600, Note_on_c, 0, 74, 80
1, 45827, Note_on_c, 0, 65, 0
1, 45827, Note_on_c, 0, 70, 0
1, 45827, Note_on_c, 0, 74, 0
1, 45840, Note_on_c, 0, 72, 80
1, 46067, Note_on_c, 0, 72, 0
1, 46080, Note_on_c, 0, 60, 80
1, 46080, Note_on_c, 0, 67, 80
1, 46080, Note_on_c, 0, 69, 80
1, 46535, Note_on_c, 0, 60, 0
1, 46535, Note_on_c, 0, 67, 0
1, 46535, Note_on_c, 0, 69, 0
1, 46560, Note_on_c, 0, 60, 80
1, 46560, Note_on_c, 0, 69, 80
1, 46787, Note_on_c, 0, 60, 0
1, 46787, Note_on_c, 0, 69, 0
1, 46800, Note_on_c, 0, 71, 80
1, 47027, Note_on_c, 0, 71, 0
1, 47040, Note_on_c, 0, 62, 80
1, 47040, Note_on_c, 0, 65, 80
1, 47040, Note_on_c, 0, 72, 80
1, 47267, Note_on_c, 0, 62, 0
1, 47267, Note_on_c, 0, 65, 0
1, 47267, Note_on_c, 0, 72, 0
1, 47280, Note_on_c, 0, 71, 80
1, 47507, Note_on_c, 0, 71, 0
1, 47520, Note_on_c, 0, 62, 80
1, 47520, Note_on_c, 0, 71, 80
1, 47661, Note_on_c, 0, 62, 0
1, 47661, Note_on_c, 0, 71, 0
1, 47670, Note_on_c, 0, 69, 80
1, 47982, Note_on_c, 0, 69, 0
1, 48000, Note_on_c, 0, 59, 80
1, 48000, Note_on_c, 0, 62, 80
1, 48000, Note_on_c, 0, 67, 80
1, 48227, Note_on_c, 0, 59, 0
1, 48227, Note_on_c, 0, 62, 0
1, 48227, Note_on_c, 0, 67, 0
1, 48240, Note_on_c, 0, 69, 80
1, 48467, Note_on_c, 0, 69, 0
1, 48480, Note_on_c, 0, 62, 80
1, 48480, Note_on_c, 0, 67, 80
1, 48480, Note_on_c, 0, 74, 80
1, 48707, Note_on_c, 0, 62, 0
1, 48707, Note_on_c, 0, 67, 0
1, 48707, Note_on_c, 0, 74, 0
1, 48720, Note_on_c, 0, 71, 80
1, 48947, Note_on_c, 0, 71, 0
1, 48960, Note_on_c, 0, 64, 80
1, 48960, Note_on_c, 0, 67, 80
1, 48960, Note_on_c, 0, 72, 80
1, 49415, Note_on_c, 0, 64, 0
1, 49415, Note_on_c, 0, 67, 0
1, 49415, Note_on_c, 0, 72, 0
1, 49440, Note_on_c, 0, 64, 80
1, 49440, Note_on_c, 0, 72, 80
1, 49667, Note_on_c, 0, 64, 0
1, 49667, Note_on_c, 0, 72, 0
1, 49680, Note_on_c, 0, 62, 80
1, 49680, Note_on_c, 0, 71, 80
1, 49907, Note_on_c, 0, 62, 0
1, 49907, Note_on_c, 0, 71, 0
1, 49920, Note_on_c, 0, 60, 80
1, 49920, Note_on_c, 0, 67, 80
1, 49920, Note_on_c, 0, 69, 80
1, 50375, Note_on_c, 0, 60, 0
1, 50375, Note_on_c, 0, 67, 0
1, 50375, Note_on_c, 0, 69, 0
1, 50400, Note_on_c, 0, 60, 80
1, 50400, Note_on_c, 0, 67, 80
1, 50400, Note_on_c, 0, 69, 80
1, 50627, Note_on_c, 0, 60, 0
1, 50627, Note_on_c, 0, 67, 0
1, 50627, Note_on_c, 0, 69, 0
1, 50640, Note_on_c, 0, 71, 80
1, 50867, Note_on_c, 0, 71, 0
1, 50880, Note_on_c, 0, 60, 80
1, 50880, Note_on_c, 0, 66, 80
1, 50880, Note_on_c, 0, 72, 80
1, 51107, Note_on_c, 0, 60, 0
1, 51107, Note_on_c, 0, 66, 0
1, 51107, Note_on_c, 0, 72, 0
1, 51120, Note_on_c, 0, 69, 80
1, 51347, Note_on_c, 0, 69, 0
1, 51360, Note_on_c, 0, 60, 80
1, 51360, Note_on_c, 0, 66, 80
1, 51360, Note_on_c, 0, 71, 80
1, 51501, Note_on_c, 0, 60, 0
1, 51501, Note_on_c, 0, 66, 0
1, 51501, Note_on_c, 0, 71, 0
1, 51510, Note_on_c, 0, 72, 80
1, 51822, Note_on_c, 0, 72, 0
1, 51840, Note_on_c, 0, 60, 80
1, 51840, Note_on_c, 0, 65, 80
1, 51840, Note_on_c, 0, 69, 80
1, 51840, Note_on_c, 0, 72, 80
1, 52295, Note_on_c, 0, 60, 0
1, 52295, Note_on_c, 0, 65, 0
1, 52295, Note_on_c, 0, 69, 0
1, 52295, Note_on_c, 0, 72, 0
1, 52320, Note_on_c, 0, 60, 80
1, 52547, Note_on_c, 0, 60, 0
1, 52560, Note_on_c, 0, 65, 80
1, 52787, Note_on_c, 0, 65, 0
1, 52800, Note_on_c, 0, 62, 80
1, 52800, Note_on_c, 0, 65, 80
1, 52800, Note_on_c, 0, 71, 80
1, 53255, Note_on_c, 0, 62, 0
1, 53255, Note_on_c, 0, 65, 0
1, 53255, Note_on_c, 0, 71, 0
1, 53280, Note_on_c, 0, 57, 80
1, 53280, Note_on_c, 0, 60, 80
1, 53280, Note_on_c, 0, 67, 80
1, 53507, Note_on_c, 0, 57, 0
1, 53507, Note_on_c, 0, 60, 0
1, 53507, Note_on_c, 0, 67, 0
1, 53520, Note_on_c, 0, 65, 80
1, 53747, Note_on_c, 0, 65, 0
1, 53760, Note_on_c, 0, 62, 80
1, 53760, Note_on_c, 0, 64, 80
1, 53760, Note_on_c, 0, 67, 80
1, 54215, Note_on_c, 0, 62, 0
1, 54215, Note_on_c, 0, 64, 0
1, 54215, Note_on_c, 0, 67, 0
1, 54240, Note_on_c, 0, 62, 80
1, 54240, Note_on_c, 0, 64, 80
1, 54240, Note_on_c, 0, 67, 80
1, 54467, Note_on_c, 0, 62, 0
1, 54467, Note_on_c, 0, 64, 0
1, 54467, Note_on_c, 0, 67, 0
1, 54480, Note_on_c, 0, 74, 80
1, 54707, Note_on_c, 0, 74, 0
1, 54720, Note_on_c, 0, 62, 80
1, 54720, Note_on_c, 0, 64, 80
1, 54720, Note_on_c, 0, 68, 80
1, 54720, Note_on_c, 0, 72, 80
1, 55175, Note_on_c, 0, 62, 0
1, 55175, Note_on_c, 0, 64, 0
1, 55175, Note_on_c, 0, 68, 0
1, 55175, Note_on_c, 0, 72, 0
1, 55200, Note_on_c, 0, 62, 80
1, 55200, Note_on_c, 0, 64, 80
1, 55200, Note_on_c, 0, 68, 80
1, 55200, Note_on_c, 0, 71, 80
1, 55427, Note_on_c, 0, 62, 0
1, 55427, Note_on_c, 0, 64, 0
1, 55427, Note_on_c, 0, 68, 0
1, 55427, Note_on_c, 0, 71, 0
1, 55440, Note_on_c, 0, 72, 80
1, 55667, Note_on_c, 0, 72, 0
1, 55680, Note_on_c, 0, 62, 80
1, 55680, Note_on_c, 0, 67, 80
1, 55680, Note_on_c, 0, 71, 80
1, 56135, Note_on_c, 0, 62, 0
1, 56135, Note_on_c, 0, 67, 0
1, 56135, Note_on_c, 0, 71, 0
1, 56160, Note_on_c, 0, 59, 80
1, 56160, Note_on_c, 0, 62, 80
1, 56387, Note_on_c, 0, 59, 0
1, 56387, Note_on_c, 0, 62, 0
1, 56400, Note_on_c, 0, 67, 80
1, 56627, Note_on_c, 0, 67, 0
1, 56640, Note_on_c, 0, 61, 80
1, 56640, Note_on_c, 0, 65, 80
1, 56640, Note_on_c, 0, 69, 80
1, 57095, Note_on_c, 0, 61, 0
1, 57095, Note_on_c, 0, 65, 0
1, 57095, Note_on_c, 0, 69, 0
1, 57120, Note_on_c, 0, 61, 80
1, 57120, Note_on_c, 0, 64, 80
1, 57120, Note_on_c, 0, 67, 80
1, 57575, Note_on_c, 0, 61, 0
1, 57575, Note_on_c, 0, 64, 0
1, 57575, Note_on_c, 0, 67, 0
1, 57600, Note_on_c, 0, 60, 80
1, 57600, Note_on_c, 0, 65, 80
1, 57600, Note_on_c, 0, 69, 80
1, 58055, Note_on_c, 0, 60, 0
1, 58055, Note_on_c, 0, 65, 0
1, 58055, Note_on_c, 0, 69, 0
1, 58080, Note_on_c, 0, 60, 80
1, 58080, Note_on_c, 0, 65, 80
1, 58080, Note_on_c, 0, 69, 80
1, 58307, Note_on_c, 0, 60, 0
1, 58307, Note_on_c, 0, 65, 0
1, 58307, Note_on_c, 0, 69, 0
1, 58320, Note_on_c, 0, 76, 80
1, 58547, Note_on_c, 0, 76, 0
1, 58560, Note_on_c, 0, 64, 80
1, 58560, Note_on_c, 0, 69, 80
1, 58560, Note_on_c, 0, 74, 80
1, 59015, Note_on_c, 0, 64, 0
1, 59015, Note_on_c, 0, 69, 0
1, 59015, Note_on_c, 0, 74, 0
1, 59040, Note_on_c, 0, 64, 80
1, 59040, Note_on_c, 0, 69, 80
1, 59040, Note_on_c, 0, 72, 80
1, 59267, Note_on_c, 0, 64, 0
1, 59267, Note_on_c, 0, 69, 0
1, 59267, Note_on_c, 0, 72, 0
1, 59280, Note_on_c, 0, 74, 80
1, 59507, Note_on_c, 0, 74, 0
1, 59520, Note_on_c, 0, 65, 80
1, 59520, Note_on_c, 0, 69, 80
1, 59520, Note_on_c, 0, 72, 80
1, 59975, Note_on_c, 0, 65, 0
1, 59975, Note_on_c, 0, 69, 0
1, 59975, Note_on_c, 0, 72, 0
1, 60000, Note_on_c, 0, 65, 80
1, 60000, Note_on_c, 0, 69, 80
1, 60227, Note_on_c, 0, 65, 0
1, 60227, Note_on_c, 0, 69, 0
1, 60240, Note_on_c, 0, 72, 80
1, 60467, Note_on_c, 0, 72, 0
1, 60480, Note_on_c, 0, 62, 80
1, 60480, Note_on_c, 0, 65, 80
1, 60480, Note_on_c, 0, 71, 80
1, 60935, Note_on_c, 0, 62, 0
1, 60935, Note_on_c, 0, 65, 0
1, 60935, Note_on_c, 0, 71, 0
1, 60960, Note_on_c, 0, 57, 80
1, 60960, Note_on_c, 0, 60, 80
1, 60960, Note_on_c, 0, 67, 80
1, 61187, Note_on_c, 0, 57, 0
1, 61187, Note_on_c, 0, 60, 0
1, 61187, Note_on_c, 0, 67, 0
1, 61200, Note_on_c, 0, 65, 80
1, 61427, Note_on_c, 0, 65, 0
1, 61440, Note_on_c, 0, 62, 80
1, 61440, Note_on_c, 0, 64, 80
1, 61440, Note_on_c, 0, 67, 80
1, 61895, Note_on_c, 0, 62, 0
1, 61895, Note_on_c, 0, 64, 0
1, 61895, Note_on_c, 0, 67, 0
1, 61920, Note_on_c, 0, 62, 80
1, 61920, Note_on_c, 0, 64, 80
1, 61920, Note_on_c, 0, 67, 80
1, 62147, Note_on_c, 0, 62, 0
1, 62147, Note_on_c, 0, 64, 0
1, 62147, Note_on_c, 0, 67, 0
1, 62160, Note_on_c, 0, 74, 80
1, 62387, Note_on_c, 0, 74, 0
1, 62400, Note_on_c, 0, 62, 80
1, 62400, Note_on_c, 0, 64, 80
1, 62400, Note_on_c, 0, 68, 80
1, 62400, Note_on_c, 0, 72, 80
1, 62855, Note_on_c, 0, 62, 0
1, 62855, Note_on_c, 0, 64, 0
1, 62855, Note_on_c, 0, 68, 0
1, 62855, Note_on_c, 0, 72, 0
1, 62880, Note_on_c, 0, 62, 80
1, 62880, Note_on_c, 0, 64, 80
1, 62880, Note_on_c, 0, 68, 80
1, 62880, Note_on_c, 0, 71, 80
1, 63107, Note_on_c, 0, 62, 0
1, 63107, Note_on_c, 0, 64, 0
1, 63107, Note_on_c, 0, 68, 0
1, 63107, Note_on_c, 0, 71, 0
1, 63120, Note_on_c, 0, 72, 80
1, 63347, Note_on_c, 0, 72, 0
1, 63360, Note_on_c, 0, 62, 80
1, 63360, Note_on_c, 0, 67, 80
1, 63360, Note_on_c, 0, 71, 80
1, 63815, Note_on_c, 0, 62, 0
1, 63815, Note_on_c, 0, 67, 0
1, 63815, Note_on_c, 0, 71, 0
1, 63840, Note_on_c, 0, 59, 80
1, 63840, Note_on_c, 0, 62, 80
1, 64067, Note_on_c, 0, 59, 0
1, 64067, Note_on_c, 0, 62, 0
1, 64080, Note_on_c, 0, 67, 80
1, 64307, Note_on_c, 0, 67, 0
1, 64320, Note_on_c, 0, 61, 80
1, 64320, Note_on_c, 0, 65, 80
1, 64320, Note_on_c, 0, 69, 80
1, 64775, Note_on_c, 0, 61, 0
1, 64775, Note_on_c, 0, 65, 0
1, 64775, Note_on_c, 0, 69, 0
1, 64800, Note_on_c, 0, 61, 80
1, 64800, Note_on_c, 0, 64, 80
1, 64800, Note_on_c, 0, 67, 80
1, 65255, Note_on_c, 0, 61, 0
1, 65255, Note_on_c, 0, 64, 0
1, 65255, Note_on_c, 0, 67, 0
1, 65280, Note_on_c, 0, 60, 80
1, 65280, Note_on_c, 0, 65, 80
1, 65280, Note_on_c, 0, 69, 80
1, 65507, Note_on_c, 0, 60, 0
1, 65507, Note_on_c, 0, 65, 0
1, 65507, Note_on_c, 0, 69, 0
1, 65520, Note_on_c, 0, 71, 80
1, 65747, Note_on_c, 0, 71, 0
1, 65760, Note_on_c, 0, 65, 80
1, 65760, Note_on_c, 0, 69, 80
1, 65760, Note_on_c, 0, 72, 80
1, 65930, Note_on_c, 0, 65, 0
1, 65930, Note_on_c, 0, 69, 0
1, 65930, Note_on_c, 0, 72, 0
1, 65940, Note_on_c, 0, 76, 80
1, 66224, Note_on_c, 0, 76, 0
1, 66240, Note_on_c, 0, 69, 80
1, 66240, Note_on_c, 0, 72, 80
1, 66240, Note_on_c, 0, 77, 80
1, 66467, Note_on_c, 0, 69, 0
1, 66467, Note_on_c, 0, 72, 0
1, 66467, Note_on_c, 0, 77, 0
1, 66480, Note_on_c, 0, 74, 80
1, 66707, Note_on_c, 0, 74, 0
1, 66720, Note_on_c, 0, 65, 80
1, 66720, Note_on_c, 0, 69, 80
1, 66720, Note_on_c, 0, 72, 80
1, 66947, Note_on_c, 0, 65, 0
1, 66947, Note_on_c, 0, 69, 0
1, 66947, Note_on_c, 0, 72, 0
1, 66960, Note_on_c, 0, 71, 80
1, 67187, Note_on_c, 0, 71, 0
1, 67200, Note_on_c, 0, 64, 80
1, 67200, Note_on_c, 0, 67, 80
1, 67200, Note_on_c, 0, 72, 80
1, 67769, Note_on_c, 0, 64, 0
1, 67769, Note_on_c, 0, 67, 0
1, 67769, Note_on_c, 0, 72, 0
1, 67800, Note_on_c, 0, 72, 80
1, 67913, Note_on_c, 0, 72, 0
1, 67920, Note_on_c, 0, 74, 80
1, 67920, Note_on_c, 0, 79, 80
1, 68033, Note_on_c, 0, 74, 0
1, 68033, Note_on_c, 0, 79, 0
1, 68040, Note_on_c, 0, 76, 80
1, 68153, Note_on_c, 0, 76, 0
1, 68160, Note_on_c, 0, 69, 80
1, 68160, Note_on_c, 0, 72, 80
1, 68160, Note_on_c, 0, 77, 80
1, 68387, Note_on_c, 0, 69, 0
1, 68387, Note_on_c, 0, 72, 0
1, 68387, Note_on_c, 0, 77, 0
1, 68400, Note_on_c, 0, 76, 80
1, 68627, Note_on_c, 0, 76, 0
1, 68640, Note_on_c, 0, 65, 80
1, 68640, Note_on_c, 0, 69, 80
1, 68640, Note_on_c, 0, 72, 80
1, 68867, Note_on_c, 0, 65, 0
1, 68867, Note_on_c, 0, 69, 0
1, 68867, Note_on_c, 0, 72, 0
1, 68880, Note_on_c, 0, 74, 80
1, 69107, Note_on_c, 0, 74, 0
1, 69120, Note_on_c, 0, 62, 80
1, 69120, Note_on_c, 0, 64, 80
1, 69120, Note_on_c, 0, 67, 80
1, 69575, Note_on_c, 0, 62, 0
1, 69575, Note_on_c, 0, 64, 0
1, 69575, Note_on_c, 0, 67, 0
1, 69600, Note_on_c, 0, 62, 80
1, 69600, Note_on_c, 0, 64, 80
1, 69600, Note_on_c, 0, 67, 80
1, 69827, Note_on_c, 0, 62, 0
1, 69827, Note_on_c, 0, 64, 0
1, 69827, Note_on_c, 0, 67, 0
1, 69840, Note_on_c, 0, 74, 80
1, 70067, Note_on_c, 0, 74, 0
1, 70080, Note_on_c, 0, 62, 80
1, 70080, Note_on_c, 0, 64, 80
1, 70080, Note_on_c, 0, 68, 80
1, 70080, Note_on_c, 0, 72, 80
1, 70535, Note_on_c, 0, 62, 0
1, 70535, Note_on_c, 0, 64, 0
1, 70535, Note_on_c, 0, 68, 0
1, 70535, Note_on_c, 0, 72, 0
1, 70560, Note_on_c, 0, 62, 80
1, 70560, Note_on_c, 0, 64, 80
1, 70560, Note_on_c, 0, 68, 80
1, 70560, Note_on_c, 0, 71, 80
1, 70787, Note_on_c, 0, 62, 0
1, 70787, Note_on_c, 0, 64, 0
1, 70787, Note_on_c, 0, 68, 0
1, 70787, Note_on_c, 0, 71, 0
1, 70800, Note_on_c, 0, 72, 80
1, 71027, Note_on_c, 0, 72, 0
1, 71040, Note_on_c, 0, 67, 80
1, 71040, Note_on_c, 0, 71, 80
1, 71267, Note_on_c, 0, 67, 0
1, 71267, Note_on_c, 0, 71, 0
1, 71280, Note_on_c, 0, 72, 80
1, 71507, Note_on_c, 0, 72, 0
1, 71520, Note_on_c, 0, 67, 80
1, 71520, Note_on_c, 0, 71, 80
1, 71520, Note_on_c, 0, 76, 80
1, 71747, Note_on_c, 0, 67, 0
1, 71747, Note_on_c, 0, 71, 0
1, 71747, Note_on_c, 0, 76, 0
1, 71760, Note_on_c, 0, 83, 80
1, 71987, Note_on_c, 0, 83, 0
1, 72000, Note_on_c, 0, 73, 80
1, 72000, Note_on_c, 0, 77, 80
1, 72000, Note_on_c, 0, 81, 80
1, 72455, Note_on_c, 0, 73, 0
1, 72455, Note_on_c, 0, 77, 0
1, 72455, Note_on_c, 0, 81, 0
1, 72480, Note_on_c, 0, 73, 80
1, 72480, Note_on_c, 0, 76, 80
1, 72480, Note_on_c, 0, 79, 80
1, 72935, Note_on_c, 0, 73, 0
1, 72935, Note_on_c, 0, 76, 0
1, 72935, Note_on_c, 0, 79, 0
1, 72960, Note_on_c, 0, 60, 80
1, 72960, Note_on_c, 0, 65, 80
1, 72960, Note_on_c, 0, 69, 80
1, 73415, Note_on_c, 0, 60, 0
1, 73415, Note_on_c, 0, 65, 0
1, 73415, Note_on_c, 0, 69, 0
1, 73440, Note_on_c, 0, 60, 80
1, 73440, Note_on_c, 0, 65, 80
1, 73440, Note_on_c, 0, 69, 80
1, 73667, Note_on_c, 0, 60, 0
1, 73667, Note_on_c, 0, 65, 0
1, 73667, Note_on_c, 0, 69, 0
1, 73680, Note_on_c, 0, 76, 80
1, 73907, Note_on_c, 0, 76, 0
1, 73920, Note_on_c, 0, 64, 80
1, 73920, Note_on_c, 0, 69, 80
1, 73920, Note_on_c, 0, 74, 80
1, 74375, Note_on_c, 0, 64, 0
1, 74375, Note_on_c, 0, 69, 0
1, 74375, Note_on_c, 0, 74, 0
1, 74400, Note_on_c, 0, 64, 80
1, 74400, Note_on_c, 0, 69, 80
1, 74400, Note_on_c, 0, 72, 80
1, 74627, Note_on_c, 0, 64, 0
1, 74627, Note_on_c, 0, 69, 0
1, 74627, Note_on_c, 0, 72, 0
1, 74640, Note_on_c, 0, 74, 80
1, 74867, Note_on_c, 0, 74, 0
1, 74880, Note_on_c, 0, 65, 80
1, 74880, Note_on_c, 0, 69, 80
1, 74880, Note_on_c, 0, 72, 80
1, 75107, Note_on_c, 0, 65, 0
1, 75107, Note_on_c, 0, 69, 0
1, 75107, Note_on_c, 0, 72, 0
1, 75120, Note_on_c, 0, 77, 80
1, 75347, Note_on_c, 0, 77, 0
1, 75360, Note_on_c, 0, 72, 80
1, 75360, Note_on_c, 0, 77, 80
1, 75360, Note_on_c, 0, 81, 80
1, 75587, Note_on_c, 0, 72, 0
1, 75587, Note_on_c, 0, 77, 0
1, 75587, Note_on_c, 0, 81, 0
1, 75600, Note_on_c, 0, 84, 80
1, 75827, Note_on_c, 0, 84, 0
1, 75840, Note_on_c, 0, 74, 80
1, 75840, Note_on_c, 0, 77, 80
1, 75840, Note_on_c, 0, 83, 80
1, 76295, Note_on_c, 0, 74, 0
1, 76295, Note_on_c, 0, 77, 0
1, 76295, Note_on_c, 0, 83, 0
1, 76320, Note_on_c, 0, 69, 80
1, 76320, Note_on_c, 0, 72, 80
1, 76320, Note_on_c, 0, 79, 80
1, 76547, Note_on_c, 0, 69, 0
1, 76547, Note_on_c, 0, 72, 0
1, 76547, Note_on_c, 0, 79, 0
1, 76560, Note_on_c, 0, 77, 80
1, 76787, Note_on_c, 0, 77, 0
1, 76800, Note_on_c, 0, 62, 80
1, 76800, Note_on_c, 0, 64, 80
1, 76800, Note_on_c, 0, 67, 80
1, 77255, Note_on_c, 0, 62, 0
1, 77255, Note_on_c, 0, 64, 0
1, 77255, Note_on_c, 0, 67, 0
1, 77280, Note_on_c, 0, 62, 80
1, 77280, Note_on_c, 0, 64, 80
1, 77280, Note_on_c, 0, 67, 80
1, 77507, Note_on_c, 0, 62, 0
1, 77507, Note_on_c, 0, 64, 0
1, 77507, Note_on_c, 0, 67, 0
1, 77520, Note_on_c, 0, 74, 80
1, 77747, Note_on_c, 0, 74, 0
1, 77760, Note_on_c, 0, 62, 80
1, 77760, Note_on_c, 0, 64, 80
1, 77760, Note_on_c, 0, 68, 80
1, 77760, Note_on_c, 0, 72, 80
1, 78215, Note_on_c, 0, 62, 0
1, 78215, Note_on_c, 0, 64, 0
1, 78215, Note_on_c, 0, 68, 0
1, 78215, Note_on_c, 0, 72, 0
1, 78240, Note_on_c, 0, 62, 80
1, 78240, Note_on_c, 0, 64, 80
1, 78240, Note_on_c, 0, 68, 80
1, 78240, Note_on_c, 0, 71, 80
1, 78467, Note_on_c, 0, 62, 0
1, 78467, Note_on_c, 0, 64, 0
1, 78467, Note_on_c, 0, 68, 0
1, 78467, Note_on_c, 0, 71, 0
1, 78480, Note_on_c, 0, 72, 80
1, 78707, Note_on_c, 0, 72, 0
1, 78720, Note_on_c, 0, 62, 80
1, 78720, Note_on_c, 0, 67, 80
1, 78720, Note_on_c, 0, 71, 80
1, 79175, Note_on_c, 0, 62, 0
1, 79175, Note_on_c, 0, 67, 0
1, 79175, Note_on_c, 0, 71, 0
1, 79200, Note_on_c, 0, 59, 80
1, 79200, Note_on_c, 0, 62, 80
1, 79427, Note_on_c, 0, 59, 0
1, 79427, Note_on_c, 0, 62, 0
1, 79440, Note_on_c, 0, 67, 80
1, 79667, Note_on_c, 0, 67, 0
1, 79680, Note_on_c, 0, 61, 80
1, 79680, Note_on_c, 0, 65, 80
1, 79680, Note_on_c, 0, 69, 80
1, 80135, Note_on_c, 0, 61, 0
1, 80135, Note_on_c, 0, 65, 0
1, 80135, Note_on_c, 0, 69, 0
1, 80160, Note_on_c, 0, 61, 80
1, 80160, Note_on_c, 0, 64, 80
1, 80160, Note_on_c, 0, 67, 80
1, 80615, Note_on_c, 0, 61, 0
1, 80615, Note_on_c, 0, 64, 0
1, 80615, Note_on_c, 0, 67, 0
1, 80640, Note_on_c, 0, 60, 80
1, 80640, Note_on_c, 0, 65, 80
1, 80640, Note_on_c, 0, 69, 80
1, 80867, Note_on_c, 0, 60, 0
1, 80867, Note_on_c, 0, 65, 0
1, 80867, Note_on_c, 0, 69, 0
1, 80880, Note_on_c, 0, 71, 80
1, 81107, Note_on_c, 0, 71, 0
1, 81120, Note_on_c, 0, 65, 80
1, 81120, Note_on_c, 0, 69, 80
1, 81120, Note_on_c, 0, 72, 80
1, 81290, Note_on_c, 0, 65, 0
1, 81290, Note_on_c, 0, 69, 0
1, 81290, Note_on_c, 0, 72, 0
1, 81300, Note_on_c, 0, 76, 80
1, 81584, Note_on_c, 0, 76, 0
1, 81600, Note_on_c, 0, 69, 80
1, 81600, Note_on_c, 0, 72, 80
1, 81600, Note_on_c, 0, 77, 80
1, 81827, Note_on_c, 0, 69, 0
1, 81827, Note_on_c, 0, 72, 0
1, 81827, Note_on_c, 0, 77, 0
1, 81840, Note_on_c, 0, 74, 80
1, 82067, Note_on_c, 0, 74, 0
1, 82080, Note_on_c, 0, 65, 80
1, 82080, Note_on_c, 0, 72, 80
1, 82307, Note_on_c, 0, 65, 0
1, 82307, Note_on_c, 0, 72, 0
1, 82320, Note_on_c, 0, 71, 80
1, 82547, Note_on_c, 0, 71, 0
1, 82560, Note_on_c, 0, 64, 80
1, 82560, Note_on_c, 0, 67, 80
1, 82560, Note_on_c, 0, 72, 80
1, 83471, Note_on_c, 0, 64, 0
1, 83471, Note_on_c, 0, 67, 0
1, 83471, Note_on_c, 0, 72, 0
1, 83520, Note_on_c, 0, 61, 80
1, 83520, Note_on_c, 0, 66, 80
1, 83520, Note_on_c, 0, 70, 80
1, 83975, Note_on_c, 0, 61, 0
1, 83975, Note_on_c, 0, 66, 0
1, 83975, Note_on_c, 0, 70, 0
1, 84000, Note_on_c, 0, 61, 80
1, 84000, Note_on_c, 0, 65, 80
1, 84000, Note_on_c, 0, 69, 80
1, 84227, Note_on_c, 0, 61, 0
1, 84227, Note_on_c, 0, 65, 0
1, 84227, Note_on_c, 0, 69, 0
1, 84240, Note_on_c, 0, 67, 80
1, 84467, Note_on_c, 0, 67, 0
1, 84480, Tempo, 1000000
1, 84480, Note_on_c, 0, 60, 80
1, 84480, Note_on_c, 0, 65, 80
1, 84480, Note_on_c, 0, 69, 80
1, 84707, Note_on_c, 0, 60, 0
1, 84707, Note_on_c, 0, 65, 0
1, 84707, Note_on_c, 0, 69, 0
1, 84720, Note_on_c, 0, 71, 80
1, 84947, Note_on_c, 0, 71, 0
1, 84960, Note_on_c, 0, 65, 80
1, 84960, Note_on_c, 0, 69, 80
1, 84960, Note_on_c, 0, 72, 80
1, 85130, Note_on_c, 0, 65, 0
1, 85130, Note_on_c, 0, 69, 0
1, 85130, Note_on_c, 0, 72, 0
1, 85140, Note_on_c, 0, 76, 80
1, 85424, Note_on_c, 0, 76, 0
1, 85440, Note_on_c, 0, 69, 80
1, 85440, Note_on_c, 0, 72, 80
1, 85440, Note_on_c, 0, 77, 80
1, 85667, Note_on_c, 0, 69, 0
1, 85667, Note_on_c, 0, 72, 0
1, 85667, Note_on_c, 0, 77, 0
1, 85680, Note_on_c, 0, 74, 80
1, 85907, Note_on_c, 0, 74, 0
1, 85920, Note_on_c, 0, 65, 80
1, 85920, Note_on_c, 0, 72, 80
1, 86147, Note_on_c, 0, 65, 0
1, 86147, Note_on_c, 0, 72, 0
1, 86160, Note_on_c, 0, 71, 80
1, 86387, Note_on_c, 0, 71, 0
1, 86400, Tempo, 1250000
1, 86400, Note_on_c, 0, 64, 80
1, 86400, Note_on_c, 0, 67, 80
1, 86400, Note_on_c, 0, 72, 80
1, 87120, Tempo, 1666667
1, 87311, Note_on_c, 0, 64, 0
1, 87311, Note_on_c, 0, 67, 0
1, 87311, Note_on_c, 0, 72, 0
1, 87360, Note_on_c, 0, 55, 80
1, 87360, Note_on_c, 0, 59, 80
1, 87360, Note_on_c, 0, 64, 80
1, 88320, Tempo, 1000000
1, 90095, Note_on_c, 0, 55, 0
1, 90095, Note_on_c, 0, 59, 0
1, 90095, Note_on_c, 0, 64, 0
1, 90096, End_track
2, 0, Start_track
2, 0, Key_signature, 0, "major"
2, 0, MIDI_port, 0
2, 0, Note_on_c, 0, 48, 80
2, 227, Note_on_c, 0, 48, 0
2, 240, Note_on_c, 0, 55, 80
2, 467, Note_on_c, 0, 55, 0
2, 480, Note_on_c, 0, 60, 80
2, 1847, Note_on_c, 0, 60, 0
2, 1920, Note_on_c, 0, 45, 80
2, 2147, Note_on_c, 0, 45, 0
2, 2160, Note_on_c, 0, 52, 80
2, 2387, Note_on_c, 0, 52, 0
2, 2400, Note_on_c, 0, 55, 80
2, 2855, Note_on_c, 0, 55, 0
2, 2880, Note_on_c, 0, 45, 80
2, 2880, Note_on_c, 0, 55, 80
2, 3791, Note_on_c, 0, 45, 0
2, 3791, Note_on_c, 0, 55, 0
2, 3840, Note_on_c, 0, 50, 80
2, 4067, Note_on_c, 0, 50, 0
2, 4080, Note_on_c, 0, 57, 80
2, 4307, Note_on_c, 0, 57, 0
2, 4320, Note_on_c, 0, 60, 80
2, 4775, Note_on_c, 0, 60, 0
2, 4800, Note_on_c, 0, 43, 80
2, 4800, Note_on_c, 0, 53, 80
2, 5711, Note_on_c, 0, 43, 0
2, 5711, Note_on_c, 0, 53, 0
2, 5760, Note_on_c, 0, 48, 80
2, 5987, Note_on_c, 0, 48, 0
2, 6000, Note_on_c, 0, 55, 80
2, 6227, Note_on_c, 0, 55, 0
2, 6240, Note_on_c, 0, 60, 80
2, 6467, Note_on_c, 0, 60, 0
2, 6480, Note_on_c, 0, 62, 80
2, 6707, Note_on_c, 0, 62, 0
2, 6720, Note_on_c, 0, 48, 80
2, 6720, Note_on_c, 0, 57, 80
2, 7175, Note_on_c, 0, 57, 0
2, 7200, Note_on_c, 0, 56, 80
2, 7631, Note_on_c, 0, 48, 0
2, 7655, Note_on_c, 0, 56, 0
2, 7680, Note_on_c, 0, 48, 80
2, 7907, Note_on_c, 0, 48, 0
2, 7920, Note_on_c, 0, 55, 80
2, 8603, Note_on_c, 0, 55, 0
2, 8640, Note_on_c, 0, 47, 80
2, 8640, Note_on_c, 0, 55, 80
2, 9551, Note_on_c, 0, 47, 0
2, 9551, Note_on_c, 0, 55, 0
2, 9600, Note_on_c, 0, 45, 80
2, 9827, Note_on_c, 0, 45, 0
2, 9840, Note_on_c, 0, 52, 80
2, 10067, Note_on_c, 0, 52, 0
2, 10080, Note_on_c, 0, 55, 80
2, 10535, Note_on_c, 0, 55, 0
2, 10560, Note_on_c, 0, 43, 80
2, 10560, Note_on_c, 0, 52, 80
2, 11471, Note_on_c, 0, 43, 0
2, 11471, Note_on_c, 0, 52, 0
2, 11520, Note_on_c, 0, 41, 80
2, 11747, Note_on_c, 0, 41, 0
2, 11760, Note_on_c, 0, 48, 80
2, 12443, Note_on_c, 0, 48, 0
2, 12480, Note_on_c, 0, 40, 80
2, 12480, Note_on_c, 0, 48, 80
2, 13391, Note_on_c, 0, 40, 0
2, 13391, Note_on_c, 0, 48, 0
2, 13440, Note_on_c, 0, 38, 80
2, 13667, Note_on_c, 0, 38, 0
2, 13680, Note_on_c, 0, 45, 80
2, 13907, Note_on_c, 0, 45, 0
2, 13920, Note_on_c, 0, 53, 80
2, 14375, Note_on_c, 0, 53, 0
2, 14400, Note_on_c, 0, 43, 80
2, 14400, Note_on_c, 0, 50, 80
2, 15311, Note_on_c, 0, 43, 0
2, 15311, Note_on_c, 0, 50, 0
2, 15360, Note_on_c, 0, 50, 80
2, 15587, Note_on_c, 0, 50, 0
2, 15600, Note_on_c, 0, 57, 80
2, 16283, Note_on_c, 0, 57, 0
2, 16320, Note_on_c, 0, 43, 80
2, 16320, Note_on_c, 0, 53, 80
2, 17231, Note_on_c, 0, 43, 0
2, 17231, Note_on_c, 0, 53, 0
2, 17280, Note_on_c, 0, 52, 80
2, 17507, Note_on_c, 0, 52, 0
2, 17520, Note_on_c, 0, 59, 80
2, 18203, Note_on_c, 0, 59, 0
2, 18240, Note_on_c, 0, 45, 80
2, 18240, Note_on_c, 0, 55, 80
2, 19151, Note_on_c, 0, 45, 0
2, 19151, Note_on_c, 0, 55, 0
2, 19200, Note_on_c, 0, 50, 80
2, 19427, Note_on_c, 0, 50, 0
2, 19440, Note_on_c, 0, 57, 80
2, 20123, Note_on_c, 0, 57, 0
2, 20160, Note_on_c, 0, 43, 80
2, 20160, Note_on_c, 0, 53, 80
2, 21071, Note_on_c, 0, 43, 0
2, 21071, Note_on_c, 0, 53, 0
2, 21120, Note_on_c, 0, 36, 80
2, 21347, Note_on_c, 0, 36, 0
2, 21360, Note_on_c, 0, 43, 80
2, 21587, Note_on_c, 0, 43, 0
2, 21600, Note_on_c, 0, 52, 80
2, 21840, Note_on_c, 0, 55, 80
2, 22031, Note_on_c, 0, 52, 0
2, 22067, Note_on_c, 0, 55, 0
2, 22080, Note_on_c, 0, 43, 80
2, 22080, Note_on_c, 0, 53, 80
2, 22991, Note_on_c, 0, 43, 0
2, 22991, Note_on_c, 0, 53, 0
2, 23040, Note_on_c, 0, 48, 80
2, 23267, Note_on_c, 0, 48, 0
2, 23280, Note_on_c, 0, 55, 80
2, 23963, Note_on_c, 0, 55, 0
2, 24000, Note_on_c, 0, 47, 80
2, 24000, Note_on_c, 0, 55, 80
2, 24455, Note_on_c, 0, 47, 0
2, 24455, Note_on_c, 0, 55, 0
2, 24480, Note_on_c, 0, 35, 80
2, 24512, Note_on_c, 0, 35, 0
2, 24513, Note_on_c, 0, 36, 80
2, 24545, Note_on_c, 0, 36, 0
2, 24547, Note_on_c, 0, 38, 80
2, 24579, Note_on_c, 0, 38, 0
2, 24581, Note_on_c, 0, 40, 80
2, 24939, Note_on_c, 0, 40, 0
2, 24960, Note_on_c, 0, 45, 80
2, 25187, Note_on_c, 0, 45, 0
2, 25200, Note_on_c, 0, 52, 80
2, 25427, Note_on_c, 0, 52, 0
2, 25440, Note_on_c, 0, 55, 80
2, 25895, Note_on_c, 0, 55, 0
2, 25920, Note_on_c, 0, 43, 80
2, 25920, Note_on_c, 0, 52, 80
2, 26831, Note_on_c, 0, 43, 0
2, 26831, Note_on_c, 0, 52, 0
2, 26880, Note_on_c, 0, 41, 80
2, 27107, Note_on_c, 0, 41, 0
2, 27120, Note_on_c, 0, 48, 80
2, 27347, Note_on_c, 0, 48, 0
2, 27360, Note_on_c, 0, 57, 80
2, 27815, Note_on_c, 0, 57, 0
2, 27840, Note_on_c, 0, 40, 80
2, 28067, Note_on_c, 0, 40, 0
2, 28080, Note_on_c, 0, 48, 80
2, 28307, Note_on_c, 0, 48, 0
2, 28320, Note_on_c, 0, 55, 80
2, 28775, Note_on_c, 0, 55, 0
2, 28800, Note_on_c, 0, 38, 80
2, 29027, Note_on_c, 0, 38, 0
2, 29040, Note_on_c, 0, 45, 80
2, 29267, Note_on_c, 0, 45, 0
2, 29280, Note_on_c, 0, 53, 80
2, 29735, Note_on_c, 0, 53, 0
2, 29760, Note_on_c, 0, 43, 80
2, 29987, Note_on_c, 0, 43, 0
2, 30000, Note_on_c, 0, 50, 80
2, 30227, Note_on_c, 0, 50, 0
2, 30240, Note_on_c, 0, 55, 80
2, 30695, Note_on_c, 0, 55, 0
2, 30720, Note_on_c, 0, 38, 80
2, 30947, Note_on_c, 0, 38, 0
2, 30960, Note_on_c, 0, 45, 80
2, 31187, Note_on_c, 0, 45, 0
2, 31200, Note_on_c, 0, 53, 80
2, 31655, Note_on_c, 0, 53, 0
2, 31680, Note_on_c, 0, 43, 80
2, 31907, Note_on_c, 0, 43, 0
2, 31920, Note_on_c, 0, 50, 80
2, 32147, Note_on_c, 0, 50, 0
2, 32160, Note_on_c, 0, 55, 80
2, 32615, Note_on_c, 0, 55, 0
2, 32640, Note_on_c, 0, 40, 80
2, 32867, Note_on_c, 0, 40, 0
2, 32880, Note_on_c, 0, 47, 80
2, 33107, Note_on_c, 0, 47, 0
2, 33120, Note_on_c, 0, 55, 80
2, 33575, Note_on_c, 0, 55, 0
2, 33600, Note_on_c, 0, 45, 80
2, 33827, Note_on_c, 0, 45, 0
2, 33840, Note_on_c, 0, 52, 80
2, 34067, Note_on_c, 0, 52, 0
2, 34080, Note_on_c, 0, 55, 80
2, 34535, Note_on_c, 0, 55, 0
2, 34560, Note_on_c, 0, 38, 80
2, 34787, Note_on_c, 0, 38, 0
2, 34800, Note_on_c, 0, 45, 80
2, 35027, Note_on_c, 0, 45, 0
2, 35040, Note_on_c, 0, 53, 80
2, 35495, Note_on_c, 0, 53, 0
2, 35520, Note_on_c, 0, 43, 80
2, 35747, Note_on_c, 0, 43, 0
2, 35760, Note_on_c, 0, 50, 80
2, 35987, Note_on_c, 0, 50, 0
2, 36000, Note_on_c, 0, 55, 80
2, 36455, Note_on_c, 0, 55, 0
2, 36480, Note_on_c, 0, 48, 80
2, 36707, Note_on_c, 0, 48, 0
2, 36720, Note_on_c, 0, 55, 80
2, 36947, Note_on_c, 0, 55, 0
2, 36960, Note_on_c, 0, 60, 80
2, 37187, Note_on_c, 0, 60, 0
2, 37200, Note_on_c, 0, 62, 80
2, 37427, Note_on_c, 0, 62, 0
2, 37440, Note_on_c, 0, 48, 80
2, 37440, Note_on_c, 0, 58, 80
2, 38351, Note_on_c, 0, 48, 0
2, 38351, Note_on_c, 0, 58, 0
2, 38400, Note_on_c, 0, 41, 80
2, 38627, Note_on_c, 0, 41, 0
2, 38640, Note_on_c, 0, 48, 80
2, 38867, Note_on_c, 0, 48, 0
2, 38880, Note_on_c, 0, 55, 80
2, 39335, Note_on_c, 0, 55, 0
2, 39360, Note_on_c, 0, 41, 80
2, 40043, Note_on_c, 0, 41, 0
2, 40080, Note_on_c, 0, 41, 80
2, 40307, Note_on_c, 0, 41, 0
2, 40320, Note_on_c, 0, 40, 80
2, 40547, Note_on_c, 0, 40, 0
2, 40560, Note_on_c, 0, 47, 80
2, 40787, Note_on_c, 0, 47, 0
2, 40800, Note_on_c, 0, 55, 80
2, 41255, Note_on_c, 0, 55, 0
2, 41280, Note_on_c, 0, 45, 80
2, 41507, Note_on_c, 0, 45, 0
2, 41520, Note_on_c, 0, 52, 80
2, 41747, Note_on_c, 0, 52, 0
2, 41760, Note_on_c, 0, 55, 80
2, 42215, Note_on_c, 0, 55, 0
2, 42240, Note_on_c, 0, 41, 80
2, 42467, Note_on_c, 0, 41, 0
2, 42480, Note_on_c, 0, 48, 80
2, 42707, Note_on_c, 0, 48, 0
2, 42720, Note_on_c, 0, 53, 80
2, 43175, Note_on_c, 0, 53, 0
2, 43200, Note_on_c, 0, 43, 80
2, 43883, Note_on_c, 0, 43, 0
2, 43920, Note_on_c, 0, 43, 80
2, 44147, Note_on_c, 0, 43, 0
2, 44160, Note_on_c, 0, 48, 80
2, 44387, Note_on_c, 0, 48, 0
2, 44400, Note_on_c, 0, 55, 80
2, 44627, Note_on_c, 0, 55, 0
2, 44640, Note_on_c, 0, 60, 80
2, 45095, Note_on_c, 0, 60, 0
2, 45120, Note_on_c, 0, 48, 80
2, 45803, Note_on_c, 0, 48, 0
2, 45840, Note_on_c, 0, 48, 80
2, 46067, Note_on_c, 0, 48, 0
2, 46080, Note_on_c, 0, 41, 80
2, 46307, Note_on_c, 0, 41, 0
2, 46320, Note_on_c, 0, 48, 80
2, 46547, Note_on_c, 0, 48, 0
2, 46560, Note_on_c, 0, 55, 80
2, 47015, Note_on_c, 0, 55, 0
2, 47040, Note_on_c, 0, 41, 80
2, 47723, Note_on_c, 0, 41, 0
2, 47760, Note_on_c, 0, 41, 80
2, 47987, Note_on_c, 0, 41, 0
2, 48000, Note_on_c, 0, 40, 80
2, 48227, Note_on_c, 0, 40, 0
2, 48240, Note_on_c, 0, 47, 80
2, 48467, Note_on_c, 0, 47, 0
2, 48480, Note_on_c, 0, 55, 80
2, 48935, Note_on_c, 0, 55, 0
2, 48960, Note_on_c, 0, 45, 80
2, 48960, Note_on_c, 0, 55, 80
2, 49415, Note_on_c, 0, 45, 0
2, 49415, Note_on_c, 0, 55, 0
2, 49440, Note_on_c, 0, 43, 80
2, 49440, Note_on_c, 0, 55, 80
2, 49895, Note_on_c, 0, 43, 0
2, 49895, Note_on_c, 0, 55, 0
2, 49920, Note_on_c, 0, 41, 80
2, 50147, Note_on_c, 0, 41, 0
2, 50160, Note_on_c, 0, 48, 80
2, 50387, Note_on_c, 0, 48, 0
2, 50400, Note_on_c, 0, 55, 80
2, 50855, Note_on_c, 0, 55, 0
2, 50880, Note_on_c, 0, 38, 80
2, 51563, Note_on_c, 0, 38, 0
2, 51600, Note_on_c, 0, 38, 80
2, 51827, Note_on_c, 0, 38, 0
2, 51840, Note_on_c, 0, 43, 80
2, 52067, Note_on_c, 0, 43, 0
2, 52080, Note_on_c, 0, 50, 80
2, 52307, Note_on_c, 0, 50, 0
2, 52320, Note_on_c, 0, 55, 80
2, 52775, Note_on_c, 0, 55, 0
2, 52800, Note_on_c, 0, 43, 80
2, 53027, Note_on_c, 0, 43, 0
2, 53040, Note_on_c, 0, 43, 80
2, 53153, Note_on_c, 0, 43, 0
2, 53160, Note_on_c, 0, 38, 80
2, 53273, Note_on_c, 0, 38, 0
2, 53280, Note_on_c, 0, 31, 80
2, 53621, Note_on_c, 0, 31, 0
2, 53640, Note_on_c, 0, 43, 80
2, 53753, Note_on_c, 0, 43, 0
2, 53760, Note_on_c, 0, 36, 80
2, 54443, Note_on_c, 0, 36, 0
2, 54480, Note_on_c, 0, 36, 80
2, 54593, Note_on_c, 0, 36, 0
2, 54600, Note_on_c, 0, 38, 80
2, 54713, Note_on_c, 0, 38, 0
2, 54720, Note_on_c, 0, 40, 80
2, 55403, Note_on_c, 0, 40, 0
2, 55440, Note_on_c, 0, 40, 80
2, 55667, Note_on_c, 0, 40, 0
2, 55680, Note_on_c, 0, 45, 80
2, 55907, Note_on_c, 0, 45, 0
2, 55920, Note_on_c, 0, 52, 80
2, 56147, Note_on_c, 0, 52, 0
2, 56160, Note_on_c, 0, 55, 80
2, 56615, Note_on_c, 0, 55, 0
2, 56640, Note_on_c, 0, 45, 80
2, 56640, Note_on_c, 0, 55, 80
2, 57323, Note_on_c, 0, 45, 0
2, 57323, Note_on_c, 0, 55, 0
2, 57360, Note_on_c, 0, 45, 80
2, 57587, Note_on_c, 0, 45, 0
2, 57600, Note_on_c, 0, 38, 80
2, 58283, Note_on_c, 0, 38, 0
2, 58320, Note_on_c, 0, 38, 80
2, 58433, Note_on_c, 0, 38, 0
2, 58440, Note_on_c, 0, 40, 80
2, 58553, Note_on_c, 0, 40, 0
2, 58560, Note_on_c, 0, 42, 80
2, 59243, Note_on_c, 0, 42, 0
2, 59280, Note_on_c, 0, 42, 80
2, 59507, Note_on_c, 0, 42, 0
2, 59520, Note_on_c, 0, 43, 80
2, 59747, Note_on_c, 0, 43, 0
2, 59760, Note_on_c, 0, 50, 80
2, 59987, Note_on_c, 0, 50, 0
2, 60000, Note_on_c, 0, 55, 80
2, 60455, Note_on_c, 0, 55, 0
2, 60480, Note_on_c, 0, 43, 80
2, 61163, Note_on_c, 0, 43, 0
2, 61200, Note_on_c, 0, 43, 80
2, 61427, Note_on_c, 0, 43, 0
2, 61440, Note_on_c, 0, 36, 80
2, 62123, Note_on_c, 0, 36, 0
2, 62160, Note_on_c, 0, 36, 80
2, 62273, Note_on_c, 0, 36, 0
2, 62280, Note_on_c, 0, 38, 80
2, 62393, Note_on_c, 0, 38, 0
2, 62400, Note_on_c, 0, 40, 80
2, 63083, Note_on_c, 0, 40, 0
2, 63120, Note_on_c, 0, 40, 80
2, 63347, Note_on_c, 0, 40, 0
2, 63360, Note_on_c, 0, 45, 80
2, 63587, Note_on_c, 0, 45, 0
2, 63600, Note_on_c, 0, 52, 80
2, 63827, Note_on_c, 0, 52, 0
2, 63840, Note_on_c, 0, 55, 80
2, 64295, Note_on_c, 0, 55, 0
2, 64320, Note_on_c, 0, 45, 80
2, 65003, Note_on_c, 0, 45, 0
2, 65040, Note_on_c, 0, 45, 80
2, 65267, Note_on_c, 0, 45, 0
2, 65280, Note_on_c, 0, 38, 80
2, 65963, Note_on_c, 0, 38, 0
2, 66000, Note_on_c, 0, 38, 80
2, 66227, Note_on_c, 0, 38, 0
2, 66240, Note_on_c, 0, 43, 80
2, 66467, Note_on_c, 0, 43, 0
2, 66480, Note_on_c, 0, 50, 80
2, 66707, Note_on_c, 0, 50, 0
2, 66720, Note_on_c, 0, 53, 80
2, 67175, Note_on_c, 0, 53, 0
2, 67200, Note_on_c, 0, 48, 80
2, 67427, Note_on_c, 0, 48, 0
2, 67440, Note_on_c, 0, 55, 80
2, 67667, Note_on_c, 0, 55, 0
2, 67680, Note_on_c, 0, 60, 80
2, 68135, Note_on_c, 0, 60, 0
2, 68160, Note_on_c, 0, 43, 80
2, 68160, Note_on_c, 0, 53, 80
2, 68843, Note_on_c, 0, 43, 0
2, 68843, Note_on_c, 0, 53, 0
2, 68880, Note_on_c, 0, 43, 80
2, 69107, Note_on_c, 0, 43, 0
2, 69120, Note_on_c, 0, 36, 80
2, 69803, Note_on_c, 0, 36, 0
2, 69840, Note_on_c, 0, 36, 80
2, 69953, Note_on_c, 0, 36, 0
2, 69960, Note_on_c, 0, 38, 80
2, 70073, Note_on_c, 0, 38, 0
2, 70080, Note_on_c, 0, 40, 80
2, 70763, Note_on_c, 0, 40, 0
2, 70800, Note_on_c, 0, 40, 80
2, 71027, Note_on_c, 0, 40, 0
2, 71040, Note_on_c, 0, 45, 80
2, 71267, Note_on_c, 0, 45, 0
2, 71280, Note_on_c, 0, 52, 80
2, 71507, Note_on_c, 0, 52, 0
2, 71520, Note_on_c, 0, 55, 80
2, 71975, Note_on_c, 0, 55, 0
2, 72000, Note_on_c, 0, 45, 80
2, 72000, Note_on_c, 0, 55, 80
2, 72683, Note_on_c, 0, 45, 0
2, 72683, Note_on_c, 0, 55, 0
2, 72720, Note_on_c, 0, 45, 80
2, 72947, Note_on_c, 0, 45, 0
2, 72960, Note_on_c, 0, 38, 80
2, 73643, Note_on_c, 0, 38, 0
2, 73680, Note_on_c, 0, 38, 80
2, 73793, Note_on_c, 0, 38, 0
2, 73800, Note_on_c, 0, 40, 80
2, 73913, Note_on_c, 0, 40, 0
2, 73920, Note_on_c, 0, 42, 80
2, 74603, Note_on_c, 0, 42, 0
2, 74640, Note_on_c, 0, 42, 80
2, 74867, Note_on_c, 0, 42, 0
2, 74880, Note_on_c, 0, 43, 80
2, 75107, Note_on_c, 0, 43, 0
2, 75120, Note_on_c, 0, 50, 80
2, 75347, Note_on_c, 0, 50, 0
2, 75360, Note_on_c, 0, 53, 80
2, 75815, Note_on_c, 0, 53, 0
2, 75840, Note_on_c, 0, 43, 80
2, 76523, Note_on_c, 0, 43, 0
2, 76560, Note_on_c, 0, 43, 80
2, 76787, Note_on_c, 0, 43, 0
2, 76800, Note_on_c, 0, 36, 80
2, 77483, Note_on_c, 0, 36, 0
2, 77520, Note_on_c, 0, 36, 80
2, 77633, Note_on_c, 0, 36, 0
2, 77640, Note_on_c, 0, 38, 80
2, 77753, Note_on_c, 0, 38, 0
2, 77760, Note_on_c, 0, 40, 80
2, 78443, Note_on_c, 0, 40, 0
2, 78480, Note_on_c, 0, 40, 80
2, 78707, Note_on_c, 0, 40, 0
2, 78720, Note_on_c, 0, 45, 80
2, 78947, Note_on_c, 0, 45, 0
2, 78960, Note_on_c, 0, 52, 80
2, 79187, Note_on_c, 0, 52, 0
2, 79200, Note_on_c, 0, 55, 80
2, 79655, Note_on_c, 0, 55, 0
2, 79680, Note_on_c, 0, 45, 80
2, 79680, Note_on_c, 0, 55, 80
2, 80363, Note_on_c, 0, 45, 0
2, 80363, Note_on_c, 0, 55, 0
2, 80400, Note_on_c, 0, 45, 80
2, 80627, Note_on_c, 0, 45, 0
2, 80640, Note_on_c, 0, 50, 80
2, 80867, Note_on_c, 0, 50, 0
2, 80880, Note_on_c, 0, 57, 80
2, 81107, Note_on_c, 0, 57, 0
2, 81120, Note_on_c, 0, 60, 80
2, 81575, Note_on_c, 0, 60, 0
2, 81600, Note_on_c, 0, 43, 80
2, 81600, Note_on_c, 0, 53, 80
2, 82511, Note_on_c, 0, 43, 0
2, 82511, Note_on_c, 0, 53, 0
2, 82560, Note_on_c, 0, 48, 80
2, 82787, Note_on_c, 0, 48, 0
2, 82800, Note_on_c, 0, 55, 80
2, 83027, Note_on_c, 0, 55, 0
2, 83040, Note_on_c, 0, 60, 80
2, 83267, Note_on_c, 0, 60, 0
2, 83280, Note_on_c, 0, 62, 80
2, 83507, Note_on_c, 0, 62, 0
2, 83520, Note_on_c, 0, 45, 80
2, 83520, Note_on_c, 0, 55, 80
2, 84431, Note_on_c, 0, 45, 0
2, 84431, Note_on_c, 0, 55, 0
2, 84480, Note_on_c, 0, 50, 80
2, 84707, Note_on_c, 0, 50, 0
2, 84720, Note_on_c, 0, 57, 80
2, 84947, Note_on_c, 0, 57, 0
2, 84960, Note_on_c, 0, 60, 80
2, 85415, Note_on_c, 0, 60, 0
2, 85440, Note_on_c, 0, 43, 80
2, 85440, Note_on_c, 0, 53, 80
2, 86351, Note_on_c, 0, 43, 0
2, 86351, Note_on_c, 0, 53, 0
2, 86400, Note_on_c, 0, 48, 80
2, 86627, Note_on_c, 0, 48, 0
2, 86640, Note_on_c, 0, 55, 80
2, 86867, Note_on_c, 0, 55, 0
2, 86880, Note_on_c, 0, 60, 80
2, 87107, Note_on_c, 0, 60, 0
2, 87120, Note_on_c, 0, 62, 80
2, 87347, Note_on_c, 0, 62, 0
2, 87360, Note_on_c, 0, 36, 80
2, 90095, Note_on_c, 0, 36, 0
2, 90096, End_track
0, 0, End_of_file
