0, 0, Header, 0, 1, 480
1, 0, Start_track
1, 0, Title_t, "Holy Is The Lord"
1, 0, Instrument_name_t, "C Original"
1, 0, Time_signature, 4, 2, 24, 8
1, 0, Key_signature, 0, "major"
1, 0, SMPTE_offset, 33, 0, 0, 0, 0
1, 0, Tempo, 722891
1, 0, System_exclusive, 5, 126, 127, 9, 1, 247
1, 240, System_exclusive, 10, 65, 16, 66, 18, 64, 0, 127, 0, 65, 247
1, 481, Control_c, 0, 0, 0
1, 482, Control_c, 0, 32, 0
1, 483, Program_c, 0, 25
1, 484, Control_c, 0, 7, 110
1, 485, Control_c, 0, 10, 64
1, 486, Control_c, 0, 11, 127
1, 487, Control_c, 0, 91, 55
1, 488, Control_c, 0, 93, 0
1, 489, Control_c, 1, 0, 0
1, 490, Control_c, 1, 32, 0
1, 491, Program_c, 1, 33
1, 492, Control_c, 1, 7, 116
1, 493, Control_c, 1, 10, 64
1, 494, Control_c, 1, 11, 127
1, 495, Control_c, 1, 91, 55
1, 496, Control_c, 1, 93, 0
1, 497, Control_c, 2, 0, 0
1, 498, Control_c, 2, 32, 0
1, 499, Program_c, 2, 27
1, 500, Control_c, 2, 7, 110
1, 501, Control_c, 2, 10, 0
1, 502, Control_c, 1, 101, 0
1, 502, Control_c, 2, 11, 127
1, 503, Control_c, 2, 91, 55
1, 504, Control_c, 2, 93, 90
1, 505, Control_c, 3, 0, 0
1, 506, Control_c, 1, 100, 0
1, 506, Control_c, 3, 32, 0
1, 507, Program_c, 3, 66
1, 508, Control_c, 3, 7, 110
1, 509, Control_c, 3, 10, 64
1, 510, Control_c, 1, 6, 2
1, 510, Control_c, 3, 11, 127
1, 511, Control_c, 3, 91, 55
1, 512, Control_c, 3, 93, 0
1, 513, Control_c, 4, 0, 0
1, 514, Control_c, 1, 101, 127
1, 514, Control_c, 4, 32, 0
1, 515, Program_c, 4, 27
1, 516, Control_c, 4, 7, 110
1, 517, Control_c, 4, 10, 127
1, 518, Control_c, 1, 100, 127
1, 518, Control_c, 4, 11, 127
1, 519, Control_c, 4, 91, 55
1, 520, Control_c, 4, 93, 90
1, 521, Control_c, 5, 0, 0
1, 522, Control_c, 5, 32, 0
1, 523, Program_c, 5, 30
1, 524, Control_c, 5, 7, 110
1, 525, Control_c, 5, 10, 0
1, 526, Control_c, 5, 11, 127
1, 527, Control_c, 5, 91, 55
1, 528, Control_c, 5, 93, 0
1, 529, Control_c, 6, 0, 0
1, 530, Control_c, 6, 32, 0
1, 531, Program_c, 6, 30
1, 532, Control_c, 6, 7, 110
1, 533, Control_c, 6, 10, 127
1, 534, Control_c, 6, 11, 127
1, 535, Control_c, 6, 91, 55
1, 536, Control_c, 6, 93, 0
1, 553, Control_c, 9, 0, 0
1, 554, Control_c, 9, 32, 0
1, 555, Program_c, 9, 0
1, 556, Control_c, 9, 7, 127
1, 557, Control_c, 9, 10, 64
1, 558, Control_c, 9, 11, 127
1, 559, Control_c, 9, 91, 46
1, 560, Control_c, 9, 93, 0
1, 578, Control_c, 0, 101, 0
1, 582, Control_c, 0, 100, 0
1, 586, Control_c, 0, 6, 2
1, 590, Control_c, 0, 101, 127
1, 594, Control_c, 0, 100, 127
1, 624, Control_c, 2, 101, 0
1, 628, Control_c, 2, 100, 0
1, 632, Control_c, 2, 6, 2
1, 633, Control_c, 3, 101, 0
1, 636, Control_c, 2, 101, 127
1, 637, Control_c, 3, 100, 0
1, 640, Control_c, 2, 100, 127
1, 641, Control_c, 3, 6, 2
1, 643, Control_c, 6, 101, 0
1, 645, Control_c, 3, 101, 127
1, 647, Control_c, 5, 101, 0
1, 647, Control_c, 6, 100, 0
1, 649, Control_c, 3, 100, 127
1, 650, Control_c, 4, 101, 0
1, 651, Control_c, 5, 100, 0
1, 651, Control_c, 6, 6, 2
1, 654, Control_c, 4, 100, 0
1, 655, Control_c, 5, 6, 2
1, 655, Control_c, 6, 101, 127
1, 658, Control_c, 4, 6, 2
1, 659, Control_c, 5, 101, 127
1, 659, Control_c, 6, 100, 127
1, 662, Control_c, 4, 101, 127
1, 663, Control_c, 5, 100, 127
1, 666, Control_c, 4, 100, 127
1, 1902, Control_c, 4, 64, 0
1, 1918, Note_on_c, 0, 69, 102
1, 1919, Note_on_c, 2, 69, 113
1, 1920, Note_on_c, 1, 38, 107
1, 1920, Note_on_c, 9, 36, 113
1, 1920, Note_on_c, 9, 46, 113
1, 1926, Note_on_c, 4, 50, 102
1, 1929, Note_on_c, 4, 69, 113
1, 1930, Note_off_c, 9, 36, 64
1, 1930, Note_off_c, 9, 46, 64
1, 1942, Control_c, 3, 1, 31
1, 1963, Control_c, 0, 64, 127
1, 1987, Control_c, 2, 64, 127
1, 1989, Control_c, 3, 1, 14
1, 2025, Control_c, 3, 1, 0
1, 2090, Control_c, 4, 64, 127
1, 2098, Note_off_c, 4, 50, 64
1, 2116, Note_off_c, 2, 69, 64
1, 2131, Note_on_c, 4, 50, 85
1, 2154, Note_on_c, 0, 57, 80
1, 2155, Note_on_c, 0, 50, 102
1, 2156, Note_off_c, 1, 38, 64
1, 2160, Note_on_c, 1, 38, 102
1, 2160, Note_on_c, 9, 46, 63
1, 2170, Note_off_c, 9, 46, 64
1, 2238, Note_off_c, 0, 57, 64
1, 2261, Note_off_c, 0, 50, 64
1, 2280, Note_on_c, 9, 36, 107
1, 2290, Note_off_c, 9, 36, 64
1, 2362, Note_off_c, 4, 50, 64
1, 2386, Note_on_c, 0, 50, 102
1, 2386, Note_on_c, 0, 57, 102
1, 2387, Note_on_c, 0, 62, 93
1, 2393, Note_on_c, 4, 64, 93
1, 2395, Note_on_c, 4, 50, 93
1, 2396, Note_off_c, 1, 38, 64
1, 2397, Note_on_c, 4, 62, 89
1, 2399, Note_on_c, 4, 57, 93
1, 2400, Note_on_c, 1, 38, 93
1, 2400, Note_on_c, 9, 40, 116
1, 2400, Note_on_c, 9, 49, 87
1, 2410, Note_off_c, 9, 40, 64
1, 2410, Note_off_c, 9, 49, 64
1, 2428, Note_off_c, 0, 69, 64
1, 2487, Note_off_c, 0, 50, 64
1, 2491, Note_off_c, 0, 57, 64
1, 2502, Note_off_c, 0, 62, 64
1, 2585, Note_off_c, 4, 50, 64
1, 2624, Note_on_c, 0, 50, 113
1, 2626, Note_on_c, 0, 62, 98
1, 2627, Note_on_c, 0, 57, 102
1, 2635, Note_on_c, 4, 50, 89
1, 2636, Note_off_c, 1, 38, 64
1, 2640, Note_on_c, 1, 38, 113
1, 2640, Note_on_c, 6, 57, 102
1, 2640, Note_on_c, 9, 46, 85
1, 2650, Note_off_c, 9, 46, 64
1, 2743, Note_off_c, 0, 50, 64
1, 2760, Note_on_c, 9, 36, 102
1, 2770, Note_off_c, 9, 36, 64
1, 2773, Note_off_c, 4, 57, 64
1, 2778, Note_off_c, 0, 62, 64
1, 2779, Note_off_c, 0, 57, 64
1, 2818, Note_off_c, 4, 50, 64
1, 2873, Note_on_c, 0, 50, 113
1, 2873, Note_on_c, 0, 57, 107
1, 2874, Note_on_c, 0, 62, 102
1, 2876, Note_off_c, 1, 38, 64
1, 2880, Note_on_c, 1, 38, 116
1, 2880, Note_on_c, 3, 61, 107
1, 2880, Note_on_c, 6, 64, 98
1, 2880, Note_on_c, 6, 69, 107
1, 2880, Note_on_c, 9, 40, 113
1, 2881, Note_on_c, 4, 50, 107
1, 2881, Note_on_c, 4, 57, 107
1, 2890, Note_off_c, 9, 40, 64
1, 2917, Note_on_c, 9, 40, 116
1, 2927, Note_off_c, 9, 40, 64
1, 3006, Note_off_c, 0, 50, 64
1, 3012, Note_off_c, 0, 62, 64
1, 3014, Note_off_c, 0, 57, 64
1, 3045, Note_off_c, 4, 57, 64
1, 3045, Note_off_c, 4, 69, 64
1, 3045, Note_off_c, 6, 57, 64
1, 3060, Note_off_c, 4, 62, 64
1, 3068, Note_off_c, 4, 64, 64
1, 3078, Note_off_c, 4, 50, 64
1, 3113, Note_on_c, 0, 50, 113
1, 3116, Note_off_c, 1, 38, 64
1, 3117, Note_on_c, 0, 62, 107
1, 3118, Note_on_c, 0, 57, 113
1, 3120, Note_on_c, 1, 38, 116
1, 3120, Note_on_c, 3, 62, 113
1, 3120, Note_on_c, 6, 57, 93
1, 3120, Note_on_c, 9, 45, 116
1, 3125, Note_off_c, 3, 61, 64
1, 3130, Note_off_c, 9, 45, 64
1, 3235, Note_off_c, 0, 50, 64
1, 3240, Note_on_c, 3, 59, 107
1, 3245, Note_off_c, 0, 62, 64
1, 3246, Note_off_c, 0, 57, 64
1, 3250, Pitch_bend_c, 3, 9342
1, 3255, Note_off_c, 3, 62, 64
1, 3262, Pitch_bend_c, 3, 11069
1, 3274, Pitch_bend_c, 3, 13011
1, 3286, Note_off_c, 6, 64, 64
1, 3286, Pitch_bend_c, 3, 15312
1, 3298, Pitch_bend_c, 3, 16383
1, 3348, Note_on_c, 0, 50, 113
1, 3354, Note_on_c, 0, 57, 107
1, 3354, Note_on_c, 0, 62, 102
1, 3356, Note_off_c, 1, 38, 64
1, 3360, Note_on_c, 1, 38, 116
1, 3360, Note_on_c, 6, 64, 93
1, 3360, Note_on_c, 9, 40, 116
1, 3370, Note_off_c, 9, 40, 64
1, 3405, Pitch_bend_c, 3, 16104
1, 3417, Pitch_bend_c, 3, 14881
1, 3429, Pitch_bend_c, 3, 13586
1, 3441, Pitch_bend_c, 3, 12579
1, 3454, Pitch_bend_c, 3, 11644
1, 3465, Pitch_bend_c, 3, 8695
1, 3476, Pitch_bend_c, 3, 8263
1, 3480, Note_on_c, 9, 43, 113
1, 3483, Note_off_c, 0, 57, 64
1, 3485, Note_off_c, 0, 50, 64
1, 3486, Note_off_c, 0, 62, 64
1, 3488, Pitch_bend_c, 3, 8192
1, 3490, Note_off_c, 9, 43, 64
1, 3512, Pitch_bend_c, 3, 7964
1, 3535, Note_off_c, 6, 57, 64
1, 3547, Control_c, 2, 64, 0
1, 3593, Note_on_c, 0, 50, 116
1, 3596, Note_off_c, 1, 38, 64
1, 3596, Pitch_bend_c, 3, 8192
1, 3597, Note_on_c, 0, 57, 102
1, 3600, Note_on_c, 1, 38, 107
1, 3600, Note_on_c, 3, 57, 113
1, 3600, Note_on_c, 6, 57, 89
1, 3600, Note_on_c, 9, 41, 113
1, 3600, Note_on_c, 0, 62, 93
1, 3609, Note_off_c, 3, 59, 64
1, 3610, Note_off_c, 9, 41, 64
1, 3701, Note_off_c, 3, 57, 64
1, 3720, Note_on_c, 3, 57, 107
1, 3743, Control_c, 4, 64, 0
1, 3743, Note_off_c, 0, 50, 64
1, 3752, Note_off_c, 0, 57, 64
1, 3753, Note_off_c, 6, 64, 64
1, 3764, Note_off_c, 0, 62, 64
1, 3800, Note_off_c, 1, 38, 64
1, 3817, Control_c, 0, 64, 0
1, 3835, Control_c, 3, 1, 11
1, 3840, Note_on_c, 0, 49, 113
1, 3840, Note_on_c, 0, 57, 107
1, 3840, Note_on_c, 0, 64, 102
1, 3840, Note_on_c, 0, 69, 102
1, 3840, Note_on_c, 1, 37, 113
1, 3840, Note_on_c, 5, 76, 102
1, 3840, Note_on_c, 6, 49, 113
1, 3840, Note_on_c, 6, 64, 85
1, 3840, Note_on_c, 9, 36, 113
1, 3840, Note_on_c, 9, 49, 87
1, 3840, Note_on_c, 9, 54, 54
1, 3850, Note_off_c, 9, 36, 64
1, 3850, Note_off_c, 9, 49, 64
1, 3850, Note_off_c, 9, 54, 64
1, 3871, Control_c, 3, 1, 49
1, 3900, Control_c, 5, 64, 127
1, 3907, Control_c, 3, 1, 81
1, 3942, Control_c, 3, 1, 93
1, 3952, Control_c, 0, 64, 127
1, 3960, Note_on_c, 9, 54, 32
1, 3970, Note_off_c, 9, 54, 64
1, 3990, Control_c, 3, 1, 105
1, 3992, Control_c, 6, 64, 127
1, 4026, Note_off_c, 0, 57, 64
1, 4038, Control_c, 3, 1, 111
1, 4043, Note_off_c, 0, 49, 64
1, 4076, Note_off_c, 1, 37, 64
1, 4080, Note_on_c, 0, 49, 85
1, 4080, Note_on_c, 0, 57, 93
1, 4080, Note_on_c, 1, 37, 107
1, 4080, Note_on_c, 5, 81, 107
1, 4080, Note_on_c, 9, 36, 113
1, 4080, Note_on_c, 9, 46, 98
1, 4080, Note_on_c, 9, 54, 62
1, 4090, Note_off_c, 9, 36, 64
1, 4090, Note_off_c, 9, 46, 64
1, 4090, Note_off_c, 9, 54, 64
1, 4097, Control_c, 3, 1, 118
1, 4200, Note_on_c, 9, 54, 76
1, 4210, Note_off_c, 9, 54, 64
1, 4211, Note_off_c, 0, 57, 64
1, 4211, Note_off_c, 0, 64, 64
1, 4230, Note_off_c, 6, 64, 64
1, 4235, Note_off_c, 0, 69, 64
1, 4241, Note_off_c, 6, 69, 64
1, 4248, Note_off_c, 0, 49, 64
1, 4258, Control_c, 6, 64, 0
1, 4281, Note_off_c, 5, 76, 64
1, 4286, Control_c, 5, 64, 0
1, 4288, Control_c, 3, 1, 108
1, 4316, Note_off_c, 1, 37, 64
1, 4320, Note_on_c, 0, 49, 85
1, 4320, Note_on_c, 0, 52, 107
1, 4320, Note_on_c, 0, 57, 107
1, 4320, Note_on_c, 0, 64, 102
1, 4320, Note_on_c, 0, 69, 107
1, 4320, Note_on_c, 1, 37, 113
1, 4320, Note_on_c, 5, 76, 107
1, 4320, Note_on_c, 6, 64, 102
1, 4320, Note_on_c, 6, 69, 107
1, 4320, Note_on_c, 9, 40, 116
1, 4320, Note_on_c, 9, 46, 116
1, 4320, Note_on_c, 9, 54, 85
1, 4323, Control_c, 3, 1, 73
1, 4330, Note_off_c, 9, 40, 64
1, 4330, Note_off_c, 9, 46, 64
1, 4330, Note_off_c, 9, 54, 64
1, 4344, Note_off_c, 3, 57, 64
1, 4359, Control_c, 3, 1, 0
1, 4406, Control_c, 6, 64, 127
1, 4407, Control_c, 5, 64, 127
1, 4440, Note_on_c, 9, 54, 67
1, 4450, Note_off_c, 9, 54, 64
1, 4457, Note_off_c, 0, 57, 64
1, 4469, Note_off_c, 6, 57, 64
1, 4472, Note_off_c, 0, 52, 64
1, 4520, Note_off_c, 5, 81, 64
1, 4556, Note_off_c, 1, 37, 64
1, 4560, Note_on_c, 0, 52, 76
1, 4560, Note_on_c, 0, 57, 107
1, 4560, Note_on_c, 1, 37, 107
1, 4560, Note_on_c, 3, 64, 116
1, 4560, Note_on_c, 5, 81, 98
1, 4560, Note_on_c, 6, 57, 85
1, 4560, Note_on_c, 9, 46, 113
1, 4560, Note_on_c, 9, 54, 49
1, 4570, Note_off_c, 9, 46, 64
1, 4570, Note_off_c, 9, 54, 64
1, 4578, Note_off_c, 0, 64, 64
1, 4615, Note_off_c, 0, 52, 64
1, 4640, Note_off_c, 0, 57, 64
1, 4680, Note_on_c, 0, 52, 98
1, 4680, Note_on_c, 0, 57, 89
1, 4680, Note_on_c, 0, 64, 89
1, 4680, Note_on_c, 9, 54, 49
1, 4690, Note_off_c, 9, 54, 64
1, 4715, Note_off_c, 0, 49, 64
1, 4721, Note_off_c, 6, 64, 64
1, 4732, Note_off_c, 0, 69, 64
1, 4737, Note_off_c, 5, 76, 64
1, 4741, Control_c, 6, 64, 0
1, 4747, Note_off_c, 0, 64, 64
1, 4756, Note_off_c, 0, 57, 64
1, 4757, Note_off_c, 6, 49, 64
1, 4779, Control_c, 0, 64, 0
1, 4779, Note_off_c, 0, 52, 64
1, 4796, Note_off_c, 1, 37, 64
1, 4799, Control_c, 5, 64, 0
1, 4800, Note_on_c, 0, 50, 113
1, 4800, Note_on_c, 0, 57, 107
1, 4800, Note_on_c, 0, 64, 102
1, 4800, Note_on_c, 0, 69, 98
1, 4800, Note_on_c, 1, 38, 116
1, 4800, Note_on_c, 5, 76, 98
1, 4800, Note_on_c, 6, 50, 102
1, 4800, Note_on_c, 6, 64, 76
1, 4800, Note_on_c, 9, 36, 107
1, 4800, Note_on_c, 9, 46, 113
1, 4800, Note_on_c, 9, 54, 45
1, 4810, Note_off_c, 9, 36, 64
1, 4810, Note_off_c, 9, 46, 64
1, 4810, Note_off_c, 9, 54, 64
1, 4915, Control_c, 5, 64, 127
1, 4916, Control_c, 0, 64, 127
1, 4920, Note_on_c, 9, 54, 41
1, 4930, Note_off_c, 9, 54, 64
1, 4940, Control_c, 6, 64, 127
1, 4964, Note_off_c, 0, 57, 64
1, 4970, Note_off_c, 6, 57, 64
1, 4983, Note_off_c, 5, 81, 64
1, 5002, Note_off_c, 0, 50, 64
1, 5032, Note_off_c, 3, 64, 64
1, 5036, Note_off_c, 1, 38, 64
1, 5040, Note_on_c, 0, 50, 93
1, 5040, Note_on_c, 0, 57, 102
1, 5040, Note_on_c, 1, 38, 107
1, 5040, Note_on_c, 3, 62, 107
1, 5040, Note_on_c, 5, 81, 98
1, 5040, Note_on_c, 6, 57, 72
1, 5040, Note_on_c, 9, 36, 113
1, 5040, Note_on_c, 9, 46, 113
1, 5040, Note_on_c, 9, 54, 32
1, 5050, Note_off_c, 9, 36, 64
1, 5050, Note_off_c, 9, 46, 64
1, 5050, Note_off_c, 9, 54, 64
1, 5139, Note_off_c, 0, 64, 64
1, 5160, Note_on_c, 9, 54, 62
1, 5170, Note_off_c, 9, 54, 64
1, 5203, Note_off_c, 0, 57, 64
1, 5208, Note_off_c, 5, 76, 64
1, 5210, Note_off_c, 6, 64, 64
1, 5214, Note_off_c, 0, 50, 64
1, 5218, Note_off_c, 0, 69, 64
1, 5229, Note_off_c, 6, 69, 64
1, 5257, Control_c, 5, 64, 0
1, 5269, Control_c, 6, 64, 0
1, 5276, Note_off_c, 1, 38, 64
1, 5280, Note_on_c, 0, 50, 102
1, 5280, Note_on_c, 0, 57, 107
1, 5280, Note_on_c, 0, 64, 113
1, 5280, Note_on_c, 0, 69, 102
1, 5280, Note_on_c, 1, 38, 107
1, 5280, Note_on_c, 3, 61, 107
1, 5280, Note_on_c, 5, 76, 98
1, 5280, Note_on_c, 6, 64, 107
1, 5280, Note_on_c, 6, 69, 93
1, 5280, Note_on_c, 9, 40, 116
1, 5280, Note_on_c, 9, 46, 113
1, 5280, Note_on_c, 9, 54, 85
1, 5290, Note_off_c, 9, 40, 64
1, 5290, Note_off_c, 9, 46, 64
1, 5290, Note_off_c, 9, 54, 64
1, 5305, Note_off_c, 3, 62, 64
1, 5377, Control_c, 5, 64, 127
1, 5397, Control_c, 6, 64, 127
1, 5400, Note_on_c, 3, 59, 102
1, 5400, Note_on_c, 9, 54, 58
1, 5405, Note_off_c, 0, 57, 64
1, 5410, Note_off_c, 9, 54, 64
1, 5423, Note_off_c, 6, 57, 64
1, 5425, Note_off_c, 3, 61, 64
1, 5429, Note_off_c, 0, 50, 64
1, 5451, Note_off_c, 5, 81, 64
1, 5516, Note_off_c, 1, 38, 64
1, 5520, Note_on_c, 0, 50, 63
1, 5520, Note_on_c, 0, 57, 93
1, 5520, Note_on_c, 1, 38, 113
1, 5520, Note_on_c, 3, 61, 107
1, 5520, Note_on_c, 5, 81, 93
1, 5520, Note_on_c, 6, 57, 64
1, 5520, Note_on_c, 9, 46, 107
1, 5520, Note_on_c, 9, 54, 32
1, 5526, Note_off_c, 0, 64, 64
1, 5527, Note_off_c, 3, 59, 64
1, 5530, Note_off_c, 9, 46, 64
1, 5530, Note_off_c, 9, 54, 64
1, 5551, Note_off_c, 0, 50, 64
1, 5584, Note_off_c, 0, 57, 64
1, 5584, Note_off_c, 6, 64, 64
1, 5640, Note_on_c, 0, 50, 93
1, 5640, Note_on_c, 0, 57, 80
1, 5640, Note_on_c, 0, 64, 80
1, 5640, Note_on_c, 3, 59, 107
1, 5640, Note_on_c, 9, 54, 49
1, 5650, Note_off_c, 9, 54, 64
1, 5655, Note_off_c, 6, 57, 64
1, 5659, Note_off_c, 3, 61, 64
1, 5683, Note_off_c, 0, 69, 64
1, 5686, Note_off_c, 0, 57, 64
1, 5689, Note_off_c, 0, 64, 64
1, 5700, Control_c, 0, 64, 0
1, 5723, Control_c, 5, 64, 0
1, 5725, Control_c, 6, 64, 0
1, 5728, Note_off_c, 0, 50, 64
1, 5738, Note_off_c, 6, 50, 64
1, 5744, Note_off_c, 5, 81, 64
1, 5756, Note_off_c, 1, 38, 64
1, 5760, Note_on_c, 0, 52, 113
1, 5760, Note_on_c, 0, 59, 98
1, 5760, Note_on_c, 0, 64, 102
1, 5760, Note_on_c, 0, 69, 93
1, 5760, Note_on_c, 1, 40, 116
1, 5760, Note_on_c, 5, 71, 98
1, 5760, Note_on_c, 6, 52, 107
1, 5760, Note_on_c, 6, 59, 89
1, 5760, Note_on_c, 6, 64, 89
1, 5760, Note_on_c, 9, 36, 113
1, 5760, Note_on_c, 9, 46, 113
1, 5760, Note_on_c, 9, 54, 32
1, 5770, Note_off_c, 9, 36, 64
1, 5770, Note_off_c, 9, 46, 64
1, 5770, Note_off_c, 9, 54, 64
1, 5849, Control_c, 0, 64, 127
1, 5880, Note_on_c, 9, 54, 32
1, 5890, Control_c, 5, 64, 127
1, 5890, Note_off_c, 9, 54, 64
1, 5900, Control_c, 6, 64, 127
1, 5922, Note_off_c, 5, 76, 64
1, 5928, Note_off_c, 0, 59, 64
1, 5946, Note_off_c, 6, 59, 64
1, 5958, Note_off_c, 3, 59, 64
1, 5961, Note_off_c, 0, 52, 64
1, 5993, Note_off_c, 6, 52, 64
1, 5996, Note_off_c, 1, 40, 64
1, 6000, Note_on_c, 0, 52, 93
1, 6000, Note_on_c, 0, 59, 89
1, 6000, Note_on_c, 1, 40, 116
1, 6000, Note_on_c, 3, 59, 107
1, 6000, Note_on_c, 5, 76, 93
1, 6000, Note_on_c, 6, 52, 89
1, 6000, Note_on_c, 6, 59, 63
1, 6000, Note_on_c, 9, 36, 113
1, 6000, Note_on_c, 9, 46, 107
1, 6000, Note_on_c, 9, 54, 32
1, 6010, Note_off_c, 9, 36, 64
1, 6010, Note_off_c, 9, 46, 64
1, 6010, Note_off_c, 9, 54, 64
1, 6110, Control_c, 3, 1, 21
1, 6120, Note_on_c, 9, 54, 62
1, 6121, Note_off_c, 0, 64, 64
1, 6128, Note_off_c, 0, 59, 64
1, 6130, Note_off_c, 9, 54, 64
1, 6146, Control_c, 3, 1, 56
1, 6154, Note_off_c, 0, 69, 64
1, 6155, Note_off_c, 0, 52, 64
1, 6166, Note_off_c, 6, 64, 64
1, 6180, Note_off_c, 5, 71, 64
1, 6181, Control_c, 3, 1, 76
1, 6185, Note_off_c, 6, 69, 64
1, 6217, Control_c, 3, 1, 90
1, 6223, Control_c, 6, 64, 0
1, 6236, Note_off_c, 1, 40, 64
1, 6240, Note_on_c, 0, 52, 113
1, 6240, Note_on_c, 0, 59, 107
1, 6240, Note_on_c, 0, 64, 107
1, 6240, Note_on_c, 0, 69, 102
1, 6240, Note_on_c, 1, 40, 107
1, 6240, Note_on_c, 5, 71, 89
1, 6240, Note_on_c, 6, 64, 107
1, 6240, Note_on_c, 6, 69, 107
1, 6240, Note_on_c, 9, 40, 116
1, 6240, Note_on_c, 9, 46, 116
1, 6240, Note_on_c, 9, 54, 85
1, 6250, Note_off_c, 9, 40, 64
1, 6250, Note_off_c, 9, 46, 64
1, 6250, Note_off_c, 9, 54, 64
1, 6252, Control_c, 3, 1, 95
1, 6271, Control_c, 5, 64, 0
1, 6360, Note_on_c, 9, 54, 45
1, 6367, Control_c, 6, 64, 127
1, 6370, Note_off_c, 9, 54, 64
1, 6374, Note_off_c, 0, 59, 64
1, 6388, Note_off_c, 6, 59, 64
1, 6391, Control_c, 5, 64, 127
1, 6406, Note_off_c, 0, 52, 64
1, 6413, Note_off_c, 5, 76, 64
1, 6476, Note_off_c, 1, 40, 64
1, 6480, Note_on_c, 0, 52, 63
1, 6480, Note_on_c, 0, 59, 63
1, 6480, Note_on_c, 1, 40, 107
1, 6480, Note_on_c, 5, 76, 102
1, 6480, Note_on_c, 6, 59, 76
1, 6480, Note_on_c, 9, 46, 107
1, 6480, Note_on_c, 9, 54, 32
1, 6490, Note_off_c, 9, 46, 64
1, 6490, Note_off_c, 9, 54, 64
1, 6508, Note_off_c, 0, 52, 64
1, 6513, Note_off_c, 0, 64, 64
1, 6536, Note_off_c, 0, 69, 64
1, 6545, Note_off_c, 0, 59, 64
1, 6600, Note_on_c, 0, 52, 72
1, 6600, Note_on_c, 0, 59, 93
1, 6600, Note_on_c, 0, 64, 107
1, 6600, Note_on_c, 0, 69, 107
1, 6600, Note_on_c, 9, 54, 49
1, 6610, Note_off_c, 9, 54, 64
1, 6615, Note_off_c, 6, 64, 64
1, 6655, Note_off_c, 5, 71, 64
1, 6658, Control_c, 3, 1, 90
1, 6658, Note_off_c, 0, 52, 64
1, 6658, Note_off_c, 6, 52, 64
1, 6667, Note_off_c, 0, 59, 64
1, 6690, Control_c, 6, 64, 0
1, 6705, Control_c, 3, 1, 74
1, 6716, Note_off_c, 1, 40, 64
1, 6720, Note_on_c, 0, 52, 76
1, 6720, Note_on_c, 0, 59, 89
1, 6720, Note_on_c, 1, 40, 113
1, 6720, Note_on_c, 5, 71, 89
1, 6720, Note_on_c, 6, 52, 93
1, 6720, Note_on_c, 6, 64, 76
1, 6720, Note_on_c, 9, 36, 113
1, 6720, Note_on_c, 9, 46, 113
1, 6720, Note_on_c, 9, 54, 32
1, 6728, Control_c, 5, 64, 0
1, 6729, Note_off_c, 3, 59, 64
1, 6730, Note_off_c, 9, 36, 64
1, 6730, Note_off_c, 9, 46, 64
1, 6730, Note_off_c, 9, 54, 64
1, 6741, Control_c, 3, 1, 0
1, 6777, Note_off_c, 0, 64, 64
1, 6780, Note_off_c, 0, 59, 64
1, 6795, Note_off_c, 0, 52, 64
1, 6800, Note_off_c, 0, 69, 64
1, 6836, Control_c, 6, 64, 127
1, 6840, Note_on_c, 0, 52, 93
1, 6840, Note_on_c, 0, 59, 89
1, 6840, Note_on_c, 0, 64, 102
1, 6840, Note_on_c, 0, 69, 98
1, 6840, Note_on_c, 9, 54, 41
1, 6850, Note_off_c, 9, 54, 64
1, 6876, Control_c, 5, 64, 127
1, 6899, Note_off_c, 0, 59, 64
1, 6903, Note_off_c, 5, 76, 64
1, 6910, Note_off_c, 0, 52, 64
1, 6915, Note_off_c, 6, 59, 64
1, 6929, Note_off_c, 6, 52, 64
1, 6956, Note_off_c, 1, 40, 64
1, 6960, Note_on_c, 0, 52, 85
1, 6960, Note_on_c, 0, 59, 102
1, 6960, Note_on_c, 1, 40, 107
1, 6960, Note_on_c, 5, 76, 93
1, 6960, Note_on_c, 6, 52, 93
1, 6960, Note_on_c, 6, 59, 76
1, 6960, Note_on_c, 9, 36, 107
1, 6960, Note_on_c, 9, 46, 107
1, 6960, Note_on_c, 9, 54, 32
1, 6970, Note_off_c, 9, 36, 64
1, 6970, Note_off_c, 9, 46, 64
1, 6970, Note_off_c, 9, 54, 64
1, 7007, Note_off_c, 0, 64, 64
1, 7073, Note_off_c, 0, 69, 64
1, 7080, Note_on_c, 9, 54, 67
1, 7090, Note_off_c, 9, 54, 64
1, 7092, Note_off_c, 0, 59, 64
1, 7114, Note_off_c, 0, 52, 64
1, 7133, Note_off_c, 6, 69, 64
1, 7142, Note_off_c, 6, 64, 64
1, 7153, Note_off_c, 5, 71, 64
1, 7181, Control_c, 6, 64, 0
1, 7196, Note_off_c, 1, 40, 64
1, 7200, Note_on_c, 0, 52, 98
1, 7200, Note_on_c, 0, 59, 98
1, 7200, Note_on_c, 0, 64, 107
1, 7200, Note_on_c, 0, 69, 107
1, 7200, Note_on_c, 1, 40, 107
1, 7200, Note_on_c, 3, 57, 107
1, 7200, Note_on_c, 5, 71, 98
1, 7200, Note_on_c, 6, 64, 98
1, 7200, Note_on_c, 6, 69, 98
1, 7200, Note_on_c, 9, 40, 116
1, 7200, Note_on_c, 9, 46, 116
1, 7200, Note_on_c, 9, 54, 85
1, 7206, Control_c, 5, 64, 0
1, 7210, Note_off_c, 9, 40, 64
1, 7210, Note_off_c, 9, 46, 64
1, 7210, Note_off_c, 9, 54, 64
1, 7317, Note_off_c, 0, 59, 64
1, 7320, Note_on_c, 9, 54, 45
1, 7330, Note_off_c, 9, 54, 64
1, 7334, Control_c, 6, 64, 127
1, 7350, Control_c, 5, 64, 127
1, 7365, Note_off_c, 5, 76, 64
1, 7372, Note_off_c, 6, 59, 64
1, 7426, Note_off_c, 0, 52, 64
1, 7436, Note_off_c, 1, 40, 64
1, 7440, Note_on_c, 0, 59, 107
1, 7440, Note_on_c, 1, 40, 113
1, 7440, Note_on_c, 3, 61, 102
1, 7440, Note_on_c, 5, 76, 98
1, 7440, Note_on_c, 6, 59, 63
1, 7440, Note_on_c, 9, 46, 107
1, 7440, Note_on_c, 9, 54, 32
1, 7450, Note_off_c, 9, 46, 64
1, 7450, Note_off_c, 9, 54, 64
1, 7455, Note_off_c, 3, 57, 64
1, 7475, Note_off_c, 0, 64, 64
1, 7504, Note_off_c, 0, 59, 64
1, 7551, Note_off_c, 6, 59, 64
1, 7560, Note_on_c, 0, 59, 89
1, 7560, Note_on_c, 0, 64, 80
1, 7560, Note_on_c, 9, 54, 37
1, 7570, Note_off_c, 9, 54, 64
1, 7583, Note_off_c, 5, 71, 64
1, 7599, Note_off_c, 6, 52, 64
1, 7616, Note_off_c, 0, 59, 64
1, 7616, Note_off_c, 0, 69, 64
1, 7619, Note_off_c, 0, 64, 64
1, 7627, Note_off_c, 5, 76, 64
1, 7651, Control_c, 0, 64, 0
1, 7661, Control_c, 6, 64, 0
1, 7672, Control_c, 5, 64, 0
1, 7676, Note_off_c, 1, 40, 64
1, 7680, Note_on_c, 0, 42, 85
1, 7680, Note_on_c, 0, 49, 93
1, 7680, Note_on_c, 0, 54, 102
1, 7680, Note_on_c, 0, 57, 98
1, 7680, Note_on_c, 0, 64, 107
1, 7680, Note_on_c, 0, 69, 98
1, 7680, Note_on_c, 1, 42, 113
1, 7680, Note_on_c, 5, 76, 102
1, 7680, Note_on_c, 6, 49, 85
1, 7680, Note_on_c, 6, 54, 102
1, 7680, Note_on_c, 6, 57, 89
1, 7680, Note_on_c, 9, 36, 113
1, 7680, Note_on_c, 9, 46, 113
1, 7680, Note_on_c, 9, 54, 54
1, 7690, Note_off_c, 9, 36, 64
1, 7690, Note_off_c, 9, 46, 64
1, 7690, Note_off_c, 9, 54, 64
1, 7780, Control_c, 0, 64, 127
1, 7800, Note_on_c, 9, 54, 32
1, 7800, Note_off_c, 3, 61, 64
1, 7810, Note_off_c, 9, 54, 64
1, 7812, Control_c, 6, 64, 127
1, 7834, Note_off_c, 0, 57, 64
1, 7835, Control_c, 5, 64, 127
1, 7844, Note_off_c, 0, 54, 64
1, 7864, Note_off_c, 6, 57, 64
1, 7866, Note_off_c, 0, 49, 64
1, 7867, Note_off_c, 0, 42, 64
1, 7916, Note_off_c, 1, 42, 64
1, 7920, Note_on_c, 0, 42, 85
1, 7920, Note_on_c, 0, 49, 93
1, 7920, Note_on_c, 0, 54, 102
1, 7920, Note_on_c, 0, 57, 107
1, 7920, Note_on_c, 1, 42, 116
1, 7920, Note_on_c, 5, 81, 102
1, 7920, Note_on_c, 6, 57, 80
1, 7920, Note_on_c, 9, 36, 107
1, 7920, Note_on_c, 9, 46, 107
1, 7920, Note_on_c, 9, 54, 62
1, 7930, Note_off_c, 9, 36, 64
1, 7930, Note_off_c, 9, 46, 64
1, 7930, Note_off_c, 9, 54, 64
1, 8030, Note_off_c, 0, 57, 64
1, 8031, Note_off_c, 0, 64, 64
1, 8040, Note_on_c, 9, 54, 76
1, 8050, Note_off_c, 9, 54, 64
1, 8059, Note_off_c, 0, 54, 64
1, 8066, Note_off_c, 0, 69, 64
1, 8074, Note_off_c, 0, 49, 64
1, 8076, Note_off_c, 6, 64, 64
1, 8084, Note_off_c, 0, 42, 64
1, 8101, Note_off_c, 6, 69, 64
1, 8106, Note_off_c, 5, 76, 64
1, 8149, Control_c, 6, 64, 0
1, 8156, Note_off_c, 1, 42, 64
1, 8160, Note_on_c, 0, 42, 76
1, 8160, Note_on_c, 0, 49, 85
1, 8160, Note_on_c, 0, 54, 102
1, 8160, Note_on_c, 0, 57, 107
1, 8160, Note_on_c, 0, 64, 102
1, 8160, Note_on_c, 0, 69, 93
1, 8160, Note_on_c, 1, 42, 107
1, 8160, Note_on_c, 3, 57, 107
1, 8160, Note_on_c, 5, 76, 93
1, 8160, Note_on_c, 6, 64, 98
1, 8160, Note_on_c, 6, 69, 102
1, 8160, Note_on_c, 9, 40, 116
1, 8160, Note_on_c, 9, 46, 116
1, 8160, Note_on_c, 9, 54, 85
1, 8170, Note_off_c, 9, 40, 64
1, 8170, Note_off_c, 9, 46, 64
1, 8170, Note_off_c, 9, 54, 64
1, 8177, Control_c, 5, 64, 0
1, 8270, Control_c, 6, 64, 127
1, 8280, Note_on_c, 9, 54, 67
1, 8290, Note_off_c, 9, 54, 64
1, 8294, Note_off_c, 0, 57, 64
1, 8309, Control_c, 5, 64, 127
1, 8309, Note_off_c, 0, 54, 64
1, 8319, Note_off_c, 6, 57, 64
1, 8343, Note_off_c, 6, 54, 64
1, 8354, Note_off_c, 0, 49, 64
1, 8357, Note_off_c, 5, 81, 64
1, 8396, Note_off_c, 1, 42, 64
1, 8400, Note_on_c, 0, 54, 63
1, 8400, Note_on_c, 0, 57, 89
1, 8400, Note_on_c, 1, 42, 113
1, 8400, Note_on_c, 3, 62, 113
1, 8400, Note_on_c, 5, 81, 93
1, 8400, Note_on_c, 6, 54, 93
1, 8400, Note_on_c, 6, 57, 76
1, 8400, Note_on_c, 9, 46, 102
1, 8400, Note_on_c, 9, 54, 49
1, 8408, Note_off_c, 3, 57, 64
1, 8410, Note_off_c, 9, 46, 64
1, 8410, Note_off_c, 9, 54, 64
1, 8443, Note_off_c, 0, 64, 64
1, 8443, Note_off_c, 6, 49, 64
1, 8445, Note_off_c, 0, 54, 64
1, 8454, Note_off_c, 0, 57, 64
1, 8491, Note_off_c, 0, 42, 64
1, 8520, Note_on_c, 0, 54, 72
1, 8520, Note_on_c, 0, 57, 89
1, 8520, Note_on_c, 0, 64, 76
1, 8520, Note_on_c, 9, 54, 49
1, 8530, Note_off_c, 9, 54, 64
1, 8543, Note_off_c, 6, 64, 64
1, 8561, Note_off_c, 5, 76, 64
1, 8572, Note_off_c, 0, 69, 64
1, 8581, Note_off_c, 0, 64, 64
1, 8584, Note_off_c, 0, 54, 64
1, 8588, Note_off_c, 0, 57, 64
1, 8591, Control_c, 6, 64, 0
1, 8620, Control_c, 0, 64, 0
1, 8636, Note_off_c, 1, 42, 64
1, 8637, Control_c, 5, 64, 0
1, 8640, Note_on_c, 0, 50, 107
1, 8640, Note_on_c, 0, 57, 102
1, 8640, Note_on_c, 0, 64, 102
1, 8640, Note_on_c, 0, 69, 102
1, 8640, Note_on_c, 1, 38, 102
1, 8640, Note_on_c, 5, 76, 102
1, 8640, Note_on_c, 6, 50, 98
1, 8640, Note_on_c, 6, 64, 76
1, 8640, Note_on_c, 9, 36, 113
1, 8640, Note_on_c, 9, 46, 113
1, 8640, Note_on_c, 9, 54, 45
1, 8650, Note_off_c, 9, 36, 64
1, 8650, Note_off_c, 9, 46, 64
1, 8650, Note_off_c, 9, 54, 64
1, 8666, Note_off_c, 6, 54, 64
1, 8753, Control_c, 0, 64, 127
1, 8753, Note_off_c, 6, 57, 64
1, 8757, Control_c, 6, 64, 127
1, 8760, Note_on_c, 9, 54, 41
1, 8770, Note_off_c, 9, 54, 64
1, 8773, Control_c, 5, 64, 127
1, 8819, Note_off_c, 0, 57, 64
1, 8819, Note_off_c, 5, 81, 64
1, 8835, Note_off_c, 0, 50, 64
1, 8876, Note_off_c, 1, 38, 64
1, 8880, Note_on_c, 0, 50, 93
1, 8880, Note_on_c, 0, 57, 107
1, 8880, Note_on_c, 1, 38, 107
1, 8880, Note_on_c, 3, 61, 107
1, 8880, Note_on_c, 5, 81, 93
1, 8880, Note_on_c, 6, 57, 72
1, 8880, Note_on_c, 9, 36, 113
1, 8880, Note_on_c, 9, 46, 113
1, 8880, Note_on_c, 9, 54, 32
1, 8887, Note_off_c, 3, 62, 64
1, 8890, Note_off_c, 9, 36, 64
1, 8890, Note_off_c, 9, 46, 64
1, 8890, Note_off_c, 9, 54, 64
1, 8964, Note_off_c, 6, 64, 64
1, 8998, Note_off_c, 0, 57, 64
1, 9000, Note_on_c, 9, 54, 62
1, 9008, Note_off_c, 0, 64, 64
1, 9010, Note_off_c, 9, 54, 64
1, 9030, Note_off_c, 0, 50, 64
1, 9032, Note_off_c, 0, 69, 64
1, 9039, Note_off_c, 6, 69, 64
1, 9067, Note_off_c, 5, 76, 64
1, 9102, Control_c, 6, 64, 0
1, 9110, Note_off_c, 3, 61, 64
1, 9113, Control_c, 5, 64, 0
1, 9116, Note_off_c, 1, 38, 64
1, 9120, Note_on_c, 0, 50, 93
1, 9120, Note_on_c, 0, 57, 113
1, 9120, Note_on_c, 0, 64, 107
1, 9120, Note_on_c, 0, 69, 102
1, 9120, Note_on_c, 1, 38, 98
1, 9120, Note_on_c, 3, 57, 113
1, 9120, Note_on_c, 5, 76, 98
1, 9120, Note_on_c, 6, 64, 102
1, 9120, Note_on_c, 6, 69, 107
1, 9120, Note_on_c, 9, 40, 116
1, 9120, Note_on_c, 9, 46, 113
1, 9120, Note_on_c, 9, 54, 85
1, 9130, Note_off_c, 9, 40, 64
1, 9130, Note_off_c, 9, 46, 64
1, 9130, Note_off_c, 9, 54, 64
1, 9213, Control_c, 6, 64, 127
1, 9240, Note_on_c, 9, 54, 58
1, 9250, Note_off_c, 9, 54, 64
1, 9255, Control_c, 5, 64, 127
1, 9259, Note_off_c, 0, 57, 64
1, 9278, Note_off_c, 0, 64, 64
1, 9279, Note_off_c, 0, 50, 64
1, 9294, Note_off_c, 5, 81, 64
1, 9297, Note_off_c, 6, 57, 64
1, 9356, Note_off_c, 1, 38, 64
1, 9360, Note_on_c, 0, 50, 68
1, 9360, Note_on_c, 0, 57, 89
1, 9360, Note_on_c, 0, 64, 63
1, 9360, Note_on_c, 1, 33, 107
1, 9360, Note_on_c, 3, 61, 113
1, 9360, Note_on_c, 5, 81, 93
1, 9360, Note_on_c, 6, 57, 64
1, 9360, Note_on_c, 9, 46, 102
1, 9360, Note_on_c, 9, 54, 32
1, 9370, Note_off_c, 9, 46, 64
1, 9370, Note_off_c, 9, 54, 64
1, 9406, Note_off_c, 3, 57, 64
1, 9411, Note_off_c, 0, 50, 64
1, 9413, Note_off_c, 0, 64, 64
1, 9413, Note_off_c, 6, 69, 64
1, 9421, Note_off_c, 0, 57, 64
1, 9480, Note_on_c, 0, 50, 93
1, 9480, Note_on_c, 0, 57, 80
1, 9480, Note_on_c, 0, 64, 85
1, 9480, Note_on_c, 9, 54, 49
1, 9490, Note_off_c, 9, 54, 64
1, 9494, Note_off_c, 6, 57, 64
1, 9530, Note_off_c, 0, 64, 64
1, 9535, Note_off_c, 0, 57, 64
1, 9535, Note_off_c, 0, 69, 64
1, 9563, Control_c, 0, 64, 0
1, 9569, Note_off_c, 0, 50, 64
1, 9582, Control_c, 6, 64, 0
1, 9583, Control_c, 5, 64, 0
1, 9585, Note_off_c, 5, 81, 64
1, 9596, Note_off_c, 1, 33, 64
1, 9600, Note_on_c, 0, 52, 107
1, 9600, Note_on_c, 0, 59, 85
1, 9600, Note_on_c, 0, 64, 102
1, 9600, Note_on_c, 0, 69, 93
1, 9600, Note_on_c, 1, 28, 113
1, 9600, Note_on_c, 5, 71, 107
1, 9600, Note_on_c, 6, 52, 107
1, 9600, Note_on_c, 6, 59, 76
1, 9600, Note_on_c, 6, 68, 102
1, 9600, Note_on_c, 9, 36, 107
1, 9600, Note_on_c, 9, 46, 116
1, 9600, Note_on_c, 9, 54, 32
1, 9610, Note_off_c, 9, 36, 64
1, 9610, Note_off_c, 9, 46, 64
1, 9610, Note_off_c, 9, 54, 64
1, 9629, Note_off_c, 6, 50, 64
1, 9720, Note_on_c, 9, 54, 32
1, 9730, Note_off_c, 9, 54, 64
1, 9733, Note_off_c, 5, 76, 64
1, 9734, Control_c, 0, 64, 127
1, 9737, Note_off_c, 6, 64, 64
1, 9741, Control_c, 5, 64, 127
1, 9765, Note_off_c, 0, 59, 64
1, 9798, Note_off_c, 0, 52, 64
1, 9817, Control_c, 6, 64, 127
1, 9823, Note_off_c, 3, 61, 64
1, 9836, Note_off_c, 1, 28, 64
1, 9840, Note_on_c, 0, 52, 93
1, 9840, Note_on_c, 0, 59, 89
1, 9840, Note_on_c, 1, 28, 113
1, 9840, Note_on_c, 3, 59, 107
1, 9840, Note_on_c, 5, 76, 98
1, 9840, Note_on_c, 6, 64, 63
1, 9840, Note_on_c, 9, 36, 107
1, 9840, Note_on_c, 9, 46, 107
1, 9840, Note_on_c, 9, 54, 32
1, 9850, Note_off_c, 9, 36, 64
1, 9850, Note_off_c, 9, 46, 64
1, 9850, Note_off_c, 9, 54, 64
1, 9944, Control_c, 3, 1, 24
1, 9949, Note_off_c, 0, 64, 64
1, 9959, Note_off_c, 0, 59, 64
1, 9960, Note_on_c, 9, 54, 62
1, 9970, Note_off_c, 9, 54, 64
1, 9980, Control_c, 3, 1, 54
1, 9987, Note_off_c, 0, 52, 64
1, 9988, Note_off_c, 0, 69, 64
1, 9999, Note_off_c, 6, 59, 64
1, 10015, Control_c, 3, 1, 73
1, 10018, Note_off_c, 5, 71, 64
1, 10036, Note_off_c, 6, 52, 64
1, 10063, Control_c, 3, 1, 84
1, 10076, Note_off_c, 1, 28, 64
1, 10080, Note_on_c, 0, 52, 102
1, 10080, Note_on_c, 0, 59, 113
1, 10080, Note_on_c, 0, 64, 107
1, 10080, Note_on_c, 0, 69, 93
1, 10080, Note_on_c, 1, 28, 116
1, 10080, Note_on_c, 5, 71, 89
1, 10080, Note_on_c, 6, 52, 89
1, 10080, Note_on_c, 6, 59, 63
1, 10080, Note_on_c, 9, 40, 116
1, 10080, Note_on_c, 9, 46, 113
1, 10080, Note_on_c, 9, 54, 85
1, 10090, Note_off_c, 9, 40, 64
1, 10090, Note_off_c, 9, 46, 64
1, 10090, Note_off_c, 9, 54, 64
1, 10105, Control_c, 5, 64, 0
1, 10200, Note_on_c, 9, 54, 45
1, 10210, Note_off_c, 9, 54, 64
1, 10212, Control_c, 5, 64, 127
1, 10223, Note_off_c, 0, 59, 64
1, 10231, Note_off_c, 6, 64, 64
1, 10239, Note_off_c, 0, 52, 64
1, 10246, Note_off_c, 0, 64, 64
1, 10247, Note_off_c, 6, 68, 64
1, 10258, Note_off_c, 5, 76, 64
1, 10304, Control_c, 6, 64, 0
1, 10313, Control_c, 3, 1, 68
1, 10316, Note_off_c, 1, 28, 64
1, 10320, Note_on_c, 0, 52, 64
1, 10320, Note_on_c, 0, 59, 63
1, 10320, Note_on_c, 0, 64, 63
1, 10320, Note_on_c, 1, 28, 107
1, 10320, Note_on_c, 5, 76, 102
1, 10320, Note_on_c, 6, 64, 93
1, 10320, Note_on_c, 6, 69, 98
1, 10320, Note_on_c, 9, 46, 102
1, 10320, Note_on_c, 9, 54, 32
1, 10330, Note_off_c, 9, 46, 64
1, 10330, Note_off_c, 9, 54, 64
1, 10340, Note_off_c, 0, 64, 64
1, 10349, Control_c, 3, 1, 44
1, 10359, Note_off_c, 3, 59, 64
1, 10362, Note_off_c, 0, 52, 64
1, 10365, Note_off_c, 0, 59, 64
1, 10368, Note_off_c, 0, 69, 64
1, 10385, Control_c, 3, 1, 0
1, 10439, Control_c, 6, 64, 127
1, 10440, Note_on_c, 0, 52, 89
1, 10440, Note_on_c, 0, 59, 93
1, 10440, Note_on_c, 0, 64, 107
1, 10440, Note_on_c, 0, 69, 98
1, 10440, Note_on_c, 9, 54, 49
1, 10450, Note_off_c, 9, 54, 64
1, 10492, Note_off_c, 0, 64, 64
1, 10492, Note_off_c, 6, 59, 64
1, 10494, Note_off_c, 5, 71, 64
1, 10497, Note_off_c, 0, 52, 64
1, 10497, Note_off_c, 0, 59, 64
1, 10510, Note_off_c, 6, 52, 64
1, 10556, Note_off_c, 1, 28, 64
1, 10560, Note_on_c, 0, 52, 76
1, 10560, Note_on_c, 0, 59, 68
1, 10560, Note_on_c, 0, 64, 72
1, 10560, Note_on_c, 1, 28, 107
1, 10560, Note_on_c, 3, 61, 113
1, 10560, Note_on_c, 5, 71, 98
1, 10560, Note_on_c, 6, 52, 98
1, 10560, Note_on_c, 6, 59, 68
1, 10560, Note_on_c, 9, 36, 107
1, 10560, Note_on_c, 9, 46, 113
1, 10560, Note_on_c, 9, 54, 32
1, 10570, Note_off_c, 9, 36, 64
1, 10570, Note_off_c, 9, 46, 64
1, 10570, Note_off_c, 9, 54, 64
1, 10577, Control_c, 5, 64, 0
1, 10604, Note_off_c, 0, 64, 64
1, 10608, Note_off_c, 0, 69, 64
1, 10609, Note_off_c, 0, 59, 64
1, 10611, Note_off_c, 0, 52, 64
1, 10678, Note_off_c, 6, 64, 64
1, 10680, Note_on_c, 0, 52, 107
1, 10680, Note_on_c, 0, 59, 89
1, 10680, Note_on_c, 0, 64, 102
1, 10680, Note_on_c, 0, 69, 93
1, 10680, Note_on_c, 9, 54, 41
1, 10690, Note_off_c, 9, 54, 64
1, 10704, Control_c, 5, 64, 127
1, 10729, Note_off_c, 5, 76, 64
1, 10738, Note_off_c, 0, 59, 64
1, 10743, Note_off_c, 0, 64, 64
1, 10751, Note_off_c, 0, 52, 64
1, 10796, Note_off_c, 1, 28, 64
1, 10800, Note_on_c, 0, 52, 72
1, 10800, Note_on_c, 0, 59, 80
1, 10800, Note_on_c, 0, 64, 89
1, 10800, Note_on_c, 1, 28, 113
1, 10800, Note_on_c, 3, 62, 113
1, 10800, Note_on_c, 5, 76, 98
1, 10800, Note_on_c, 6, 64, 72
1, 10800, Note_on_c, 9, 43, 116
1, 10800, Note_on_c, 9, 54, 32
1, 10810, Note_off_c, 9, 43, 64
1, 10810, Note_off_c, 9, 54, 64
1, 10829, Note_off_c, 3, 61, 64
1, 10885, Note_off_c, 0, 64, 64
1, 10891, Note_off_c, 0, 69, 64
1, 10901, Note_off_c, 0, 59, 64
1, 10917, Note_off_c, 3, 62, 64
1, 10920, Note_on_c, 3, 59, 113
1, 10920, Note_on_c, 9, 40, 63
1, 10920, Note_on_c, 9, 54, 67
1, 10930, Note_off_c, 9, 40, 64
1, 10930, Note_off_c, 9, 54, 64
1, 10937, Note_off_c, 0, 52, 64
1, 10957, Note_off_c, 6, 64, 64
1, 10966, Pitch_bend_c, 3, 8479
1, 10972, Note_off_c, 5, 71, 64
1, 10978, Pitch_bend_c, 3, 9558
1, 10979, Control_c, 6, 64, 0
1, 10980, Note_off_c, 6, 69, 64
1, 10990, Pitch_bend_c, 3, 11141
1, 11002, Pitch_bend_c, 3, 14377
1, 11014, Pitch_bend_c, 3, 16383
1, 11032, Control_c, 5, 64, 0
1, 11036, Note_off_c, 1, 28, 64
1, 11040, Note_on_c, 0, 52, 113
1, 11040, Note_on_c, 0, 59, 102
1, 11040, Note_on_c, 0, 64, 102
1, 11040, Note_on_c, 0, 69, 98
1, 11040, Note_on_c, 1, 28, 107
1, 11040, Note_on_c, 5, 71, 89
1, 11040, Note_on_c, 6, 64, 102
1, 11040, Note_on_c, 6, 69, 102
1, 11040, Note_on_c, 9, 40, 116
1, 11040, Note_on_c, 9, 54, 85
1, 11050, Note_off_c, 9, 40, 64
1, 11050, Note_off_c, 9, 54, 64
1, 11144, Control_c, 6, 64, 127
1, 11157, Control_c, 5, 64, 127
1, 11160, Note_on_c, 9, 43, 113
1, 11160, Note_on_c, 9, 54, 45
1, 11164, Note_off_c, 0, 59, 64
1, 11169, Pitch_bend_c, 3, 14737
1, 11170, Note_off_c, 9, 43, 64
1, 11170, Note_off_c, 9, 54, 64
1, 11179, Note_off_c, 6, 59, 64
1, 11181, Pitch_bend_c, 3, 13946
1, 11193, Pitch_bend_c, 3, 12076
1, 11194, Note_off_c, 0, 52, 64
1, 11205, Note_off_c, 5, 76, 64
1, 11205, Pitch_bend_c, 3, 10062
1, 11207, Note_off_c, 0, 64, 64
1, 11217, Pitch_bend_c, 3, 8263
1, 11241, Pitch_bend_c, 3, 8192
1, 11242, Note_off_c, 6, 52, 64
1, 11252, Pitch_bend_c, 3, 7888
1, 11276, Note_off_c, 1, 28, 64
1, 11280, Note_on_c, 0, 52, 76
1, 11280, Note_on_c, 0, 59, 89
1, 11280, Note_on_c, 0, 64, 63
1, 11280, Note_on_c, 1, 28, 113
1, 11280, Note_on_c, 3, 57, 107
1, 11280, Note_on_c, 5, 76, 98
1, 11280, Note_on_c, 6, 52, 80
1, 11280, Note_on_c, 6, 59, 76
1, 11280, Note_on_c, 9, 41, 102
1, 11280, Note_on_c, 9, 54, 32
1, 11288, Pitch_bend_c, 3, 8116
1, 11290, Note_off_c, 9, 41, 64
1, 11290, Note_off_c, 9, 54, 64
1, 11307, Note_off_c, 3, 59, 64
1, 11312, Pitch_bend_c, 3, 8192
1, 11315, Note_off_c, 0, 64, 64
1, 11334, Note_off_c, 0, 52, 64
1, 11334, Note_off_c, 0, 59, 64
1, 11361, Note_off_c, 3, 57, 64
1, 11362, Note_off_c, 5, 71, 64
1, 11400, Note_on_c, 0, 52, 80
1, 11400, Note_on_c, 0, 59, 63
1, 11400, Note_on_c, 0, 64, 80
1, 11400, Note_on_c, 3, 57, 107
1, 11400, Note_on_c, 9, 41, 102
1, 11400, Note_on_c, 9, 54, 37
1, 11408, Note_off_c, 6, 59, 64
1, 11410, Note_off_c, 9, 41, 64
1, 11410, Note_off_c, 9, 54, 64
1, 11420, Note_off_c, 0, 59, 64
1, 11428, Note_off_c, 0, 69, 64
1, 11454, Note_off_c, 0, 52, 64
1, 11455, Note_off_c, 0, 64, 64
1, 11455, Note_off_c, 5, 76, 64
1, 11458, Control_c, 6, 64, 0
1, 11476, Control_c, 0, 64, 0
1, 11492, Control_c, 3, 1, 6
1, 11508, Note_off_c, 6, 52, 64
1, 11509, Control_c, 5, 64, 0
1, 11516, Note_off_c, 1, 28, 64
1, 11520, Note_on_c, 0, 49, 93
1, 11520, Note_on_c, 0, 52, 107
1, 11520, Note_on_c, 0, 57, 107
1, 11520, Note_on_c, 0, 64, 107
1, 11520, Note_on_c, 0, 69, 98
1, 11520, Note_on_c, 1, 37, 113
1, 11520, Note_on_c, 5, 76, 107
1, 11520, Note_on_c, 6, 49, 93
1, 11520, Note_on_c, 6, 57, 93
1, 11520, Note_on_c, 9, 36, 113
1, 11520, Note_on_c, 9, 46, 63
1, 11520, Note_on_c, 9, 49, 87
1, 11520, Note_on_c, 9, 54, 54
1, 11527, Control_c, 3, 1, 59
1, 11530, Note_off_c, 9, 36, 64
1, 11530, Note_off_c, 9, 46, 64
1, 11530, Note_off_c, 9, 49, 64
1, 11530, Note_off_c, 9, 54, 64
1, 11564, Control_c, 3, 1, 93
1, 11599, Control_c, 3, 1, 116
1, 11620, Control_c, 0, 64, 127
1, 11635, Control_c, 3, 1, 127
1, 11640, Note_on_c, 9, 54, 32
1, 11647, Control_c, 6, 64, 127
1, 11649, Control_c, 5, 64, 127
1, 11650, Note_off_c, 9, 54, 64
1, 11654, Note_off_c, 0, 57, 64
1, 11667, Note_off_c, 0, 52, 64
1, 11692, Note_off_c, 6, 64, 64
1, 11756, Note_off_c, 1, 37, 64
1, 11760, Note_on_c, 0, 52, 89
1, 11760, Note_on_c, 0, 57, 98
1, 11760, Note_on_c, 1, 37, 107
1, 11760, Note_on_c, 5, 81, 89
1, 11760, Note_on_c, 6, 64, 64
1, 11760, Note_on_c, 9, 36, 113
1, 11760, Note_on_c, 9, 46, 93
1, 11760, Note_on_c, 9, 54, 62
1, 11770, Note_off_c, 9, 36, 64
1, 11770, Note_off_c, 9, 46, 64
1, 11770, Note_off_c, 9, 54, 64
1, 11804, Note_off_c, 0, 64, 64
1, 11875, Note_off_c, 0, 57, 64
1, 11880, Note_on_c, 9, 54, 76
1, 11880, Note_off_c, 0, 69, 64
1, 11889, Note_off_c, 0, 52, 64
1, 11890, Note_off_c, 9, 54, 64
1, 11900, Note_off_c, 6, 69, 64
1, 11908, Note_off_c, 6, 64, 64
1, 11909, Control_c, 3, 1, 123
1, 11915, Note_off_c, 5, 76, 64
1, 11944, Control_c, 3, 1, 118
1, 11956, Note_off_c, 1, 37, 64
1, 11962, Control_c, 6, 64, 0
1, 11981, Control_c, 3, 1, 106
1, 12000, Note_on_c, 0, 52, 107
1, 12000, Note_on_c, 0, 57, 102
1, 12000, Note_on_c, 0, 64, 98
1, 12000, Note_on_c, 0, 69, 93
1, 12000, Note_on_c, 1, 37, 113
1, 12000, Note_on_c, 5, 76, 107
1, 12000, Note_on_c, 6, 64, 89
1, 12000, Note_on_c, 6, 69, 98
1, 12000, Note_on_c, 9, 40, 116
1, 12000, Note_on_c, 9, 46, 102
1, 12000, Note_on_c, 9, 54, 85
1, 12009, Note_off_c, 3, 57, 64
1, 12010, Note_off_c, 9, 40, 64
1, 12010, Note_off_c, 9, 46, 64
1, 12010, Note_off_c, 9, 54, 64
1, 12015, Control_c, 3, 1, 59
1, 12024, Control_c, 5, 64, 0
1, 12051, Control_c, 3, 1, 0
1, 12100, Control_c, 6, 64, 127
1, 12120, Note_on_c, 9, 54, 67
1, 12127, Note_off_c, 0, 52, 64
1, 12129, Note_off_c, 0, 57, 64
1, 12130, Note_off_c, 9, 54, 64
1, 12145, Control_c, 5, 64, 127
1, 12172, Note_off_c, 5, 81, 64
1, 12174, Note_off_c, 6, 57, 64
1, 12190, Note_off_c, 6, 49, 64
1, 12240, Note_on_c, 0, 52, 76
1, 12240, Note_on_c, 0, 57, 85
1, 12240, Note_on_c, 1, 37, 107
1, 12240, Note_on_c, 3, 64, 116
1, 12240, Note_on_c, 5, 81, 98
1, 12240, Note_on_c, 6, 49, 72
1, 12240, Note_on_c, 6, 57, 72
1, 12240, Note_on_c, 9, 46, 107
1, 12240, Note_on_c, 9, 54, 49
1, 12250, Note_off_c, 9, 46, 64
1, 12250, Note_off_c, 9, 54, 64
1, 12272, Note_off_c, 0, 64, 64
1, 12276, Note_off_c, 1, 37, 64
1, 12296, Note_off_c, 0, 57, 64
1, 12323, Note_off_c, 0, 49, 64
1, 12324, Note_off_c, 0, 69, 64
1, 12360, Note_on_c, 0, 57, 89
1, 12360, Note_on_c, 0, 64, 89
1, 12360, Note_on_c, 0, 69, 63
1, 12360, Note_on_c, 9, 54, 49
1, 12370, Note_off_c, 9, 54, 64
1, 12394, Note_off_c, 5, 76, 64
1, 12398, Note_off_c, 6, 64, 64
1, 12400, Note_off_c, 0, 52, 64
1, 12419, Note_off_c, 0, 64, 64
1, 12425, Note_off_c, 0, 57, 64
1, 12427, Note_off_c, 0, 69, 64
1, 12442, Control_c, 6, 64, 0
1, 12449, Control_c, 0, 64, 0
1, 12475, Control_c, 5, 64, 0
1, 12476, Note_off_c, 1, 37, 64
1, 12480, Note_on_c, 0, 50, 93
1, 12480, Note_on_c, 0, 57, 102
1, 12480, Note_on_c, 0, 64, 102
1, 12480, Note_on_c, 0, 69, 102
1, 12480, Note_on_c, 1, 26, 113
1, 12480, Note_on_c, 5, 76, 102
1, 12480, Note_on_c, 6, 50, 98
1, 12480, Note_on_c, 6, 64, 76
1, 12480, Note_on_c, 9, 36, 107
1, 12480, Note_on_c, 9, 46, 113
1, 12480, Note_on_c, 9, 54, 45
1, 12490, Note_off_c, 9, 36, 64
1, 12490, Note_off_c, 9, 46, 64
1, 12490, Note_off_c, 9, 54, 64
1, 12492, Note_off_c, 6, 49, 64
1, 12578, Control_c, 0, 64, 127
1, 12600, Note_on_c, 9, 54, 41
1, 12605, Control_c, 5, 64, 127
1, 12610, Note_off_c, 9, 54, 64
1, 12626, Control_c, 6, 64, 127
1, 12628, Note_off_c, 0, 57, 64
1, 12634, Note_off_c, 6, 57, 64
1, 12636, Note_off_c, 5, 81, 64
1, 12648, Note_off_c, 0, 50, 64
1, 12668, Note_off_c, 0, 64, 64
1, 12715, Note_off_c, 3, 64, 64
1, 12716, Note_off_c, 1, 26, 64
1, 12720, Note_on_c, 0, 50, 98
1, 12720, Note_on_c, 0, 57, 102
1, 12720, Note_on_c, 0, 64, 89
1, 12720, Note_on_c, 1, 26, 113
1, 12720, Note_on_c, 3, 62, 113
1, 12720, Note_on_c, 5, 81, 98
1, 12720, Note_on_c, 6, 57, 63
1, 12720, Note_on_c, 9, 36, 107
1, 12720, Note_on_c, 9, 46, 102
1, 12720, Note_on_c, 9, 54, 32
1, 12730, Note_off_c, 9, 36, 64
1, 12730, Note_off_c, 9, 46, 64
1, 12730, Note_off_c, 9, 54, 64
1, 12828, Note_off_c, 0, 57, 64
1, 12836, Note_off_c, 0, 64, 64
1, 12840, Note_on_c, 9, 54, 62
1, 12848, Note_off_c, 0, 69, 64
1, 12850, Note_off_c, 9, 54, 64
1, 12864, Note_off_c, 5, 76, 64
1, 12868, Note_off_c, 0, 50, 64
1, 12868, Note_off_c, 6, 64, 64
1, 12902, Note_off_c, 6, 69, 64
1, 12921, Note_off_c, 3, 62, 64
1, 12938, Control_c, 6, 64, 0
1, 12956, Note_off_c, 1, 26, 64
1, 12959, Control_c, 5, 64, 0
1, 12960, Note_on_c, 0, 50, 98
1, 12960, Note_on_c, 0, 57, 113
1, 12960, Note_on_c, 0, 64, 107
1, 12960, Note_on_c, 0, 69, 107
1, 12960, Note_on_c, 1, 26, 113
1, 12960, Note_on_c, 3, 61, 93
1, 12960, Note_on_c, 5, 76, 93
1, 12960, Note_on_c, 6, 64, 89
1, 12960, Note_on_c, 6, 69, 93
1, 12960, Note_on_c, 9, 40, 116
1, 12960, Note_on_c, 9, 46, 113
1, 12960, Note_on_c, 9, 54, 85
1, 12970, Note_off_c, 9, 40, 64
1, 12970, Note_off_c, 9, 46, 64
1, 12970, Note_off_c, 9, 54, 64
1, 13078, Control_c, 6, 64, 127
1, 13080, Note_on_c, 3, 59, 113
1, 13080, Note_on_c, 9, 54, 58
1, 13088, Control_c, 5, 64, 127
1, 13090, Note_off_c, 9, 54, 64
1, 13099, Note_off_c, 3, 61, 64
1, 13102, Note_off_c, 0, 57, 64
1, 13112, Note_off_c, 6, 57, 64
1, 13114, Note_off_c, 0, 64, 64
1, 13118, Note_off_c, 0, 50, 64
1, 13132, Note_off_c, 5, 81, 64
1, 13148, Note_off_c, 6, 50, 64
1, 13196, Note_off_c, 1, 26, 64
1, 13200, Note_on_c, 0, 50, 63
1, 13200, Note_on_c, 0, 57, 76
1, 13200, Note_on_c, 0, 64, 85
1, 13200, Note_on_c, 1, 26, 107
1, 13200, Note_on_c, 3, 61, 102
1, 13200, Note_on_c, 5, 81, 93
1, 13200, Note_on_c, 6, 50, 85
1, 13200, Note_on_c, 6, 57, 63
1, 13200, Note_on_c, 9, 46, 93
1, 13200, Note_on_c, 9, 54, 32
1, 13210, Note_off_c, 9, 46, 64
1, 13210, Note_off_c, 9, 54, 64
1, 13230, Note_off_c, 3, 59, 64
1, 13258, Note_off_c, 0, 64, 64
1, 13262, Note_off_c, 0, 57, 64
1, 13262, Note_off_c, 0, 69, 64
1, 13265, Note_off_c, 0, 50, 64
1, 13320, Note_on_c, 0, 50, 93
1, 13320, Note_on_c, 0, 57, 76
1, 13320, Note_on_c, 0, 64, 89
1, 13320, Note_on_c, 0, 69, 63
1, 13320, Note_on_c, 3, 59, 107
1, 13320, Note_on_c, 9, 54, 49
1, 13322, Note_off_c, 6, 57, 64
1, 13330, Note_off_c, 9, 54, 64
1, 13336, Note_off_c, 0, 69, 64
1, 13338, Note_off_c, 3, 61, 64
1, 13370, Note_off_c, 0, 57, 64
1, 13370, Note_off_c, 0, 64, 64
1, 13397, Control_c, 0, 64, 0
1, 13400, Control_c, 5, 64, 0
1, 13400, Control_c, 6, 64, 0
1, 13416, Note_off_c, 5, 81, 64
1, 13419, Note_off_c, 6, 50, 64
1, 13422, Note_off_c, 6, 64, 64
1, 13436, Note_off_c, 1, 26, 64
1, 13437, Note_off_c, 0, 50, 64
1, 13440, Note_on_c, 0, 52, 116
1, 13440, Note_on_c, 0, 59, 89
1, 13440, Note_on_c, 0, 64, 107
1, 13440, Note_on_c, 0, 69, 98
1, 13440, Note_on_c, 1, 28, 116
1, 13440, Note_on_c, 5, 71, 107
1, 13440, Note_on_c, 6, 52, 107
1, 13440, Note_on_c, 6, 59, 89
1, 13440, Note_on_c, 9, 36, 113
1, 13440, Note_on_c, 9, 46, 113
1, 13440, Note_on_c, 9, 54, 32
1, 13450, Note_off_c, 9, 36, 64
1, 13450, Note_off_c, 9, 46, 64
1, 13450, Note_off_c, 9, 54, 64
1, 13541, Control_c, 0, 64, 127
1, 13556, Control_c, 5, 64, 127
1, 13560, Note_on_c, 9, 54, 32
1, 13570, Note_off_c, 9, 54, 64
1, 13587, Control_c, 6, 64, 127
1, 13590, Note_off_c, 5, 76, 64
1, 13622, Note_off_c, 0, 59, 64
1, 13636, Note_off_c, 0, 52, 64
1, 13645, Note_off_c, 3, 59, 64
1, 13676, Note_off_c, 1, 28, 64
1, 13680, Note_on_c, 0, 52, 89
1, 13680, Note_on_c, 0, 59, 93
1, 13680, Note_on_c, 1, 28, 113
1, 13680, Note_on_c, 3, 59, 107
1, 13680, Note_on_c, 5, 76, 102
1, 13680, Note_on_c, 6, 64, 72
1, 13680, Note_on_c, 9, 36, 113
1, 13680, Note_on_c, 9, 46, 102
1, 13680, Note_on_c, 9, 54, 32
1, 13690, Note_off_c, 9, 36, 64
1, 13690, Note_off_c, 9, 46, 64
1, 13690, Note_off_c, 9, 54, 64
1, 13766, Control_c, 3, 1, 14
1, 13782, Note_off_c, 0, 64, 64
1, 13790, Note_off_c, 0, 59, 64
1, 13800, Note_on_c, 9, 54, 62
1, 13802, Control_c, 3, 1, 54
1, 13810, Note_off_c, 9, 54, 64
1, 13818, Note_off_c, 0, 69, 64
1, 13836, Note_off_c, 6, 64, 64
1, 13838, Control_c, 3, 1, 74
1, 13842, Note_off_c, 0, 52, 64
1, 13849, Note_off_c, 6, 69, 64
1, 13855, Note_off_c, 5, 71, 64
1, 13873, Control_c, 3, 1, 90
1, 13886, Control_c, 6, 64, 0
1, 13904, Control_c, 5, 64, 0
1, 13916, Note_off_c, 1, 28, 64
1, 13920, Note_on_c, 0, 52, 102
1, 13920, Note_on_c, 0, 59, 107
1, 13920, Note_on_c, 0, 64, 102
1, 13920, Note_on_c, 0, 69, 98
1, 13920, Note_on_c, 1, 28, 113
1, 13920, Note_on_c, 5, 71, 80
1, 13920, Note_on_c, 6, 64, 93
1, 13920, Note_on_c, 6, 69, 98
1, 13920, Note_on_c, 9, 40, 116
1, 13920, Note_on_c, 9, 46, 113
1, 13920, Note_on_c, 9, 54, 85
1, 13921, Control_c, 3, 1, 100
1, 13930, Note_off_c, 9, 40, 64
1, 13930, Note_off_c, 9, 46, 64
1, 13930, Note_off_c, 9, 54, 64
1, 13968, Control_c, 3, 1, 105
1, 14005, Control_c, 6, 64, 127
1, 14022, Control_c, 5, 64, 127
1, 14040, Note_on_c, 9, 54, 45
1, 14050, Note_off_c, 9, 54, 64
1, 14061, Note_off_c, 0, 59, 64
1, 14069, Note_off_c, 6, 59, 64
1, 14084, Note_off_c, 0, 52, 64
1, 14098, Note_off_c, 5, 76, 64
1, 14156, Note_off_c, 1, 28, 64
1, 14160, Note_on_c, 0, 52, 76
1, 14160, Note_on_c, 0, 59, 68
1, 14160, Note_on_c, 1, 28, 107
1, 14160, Note_on_c, 5, 76, 98
1, 14160, Note_on_c, 6, 59, 64
1, 14160, Note_on_c, 9, 46, 98
1, 14160, Note_on_c, 9, 54, 32
1, 14169, Note_off_c, 0, 64, 64
1, 14170, Note_off_c, 9, 46, 64
1, 14170, Note_off_c, 9, 54, 64
1, 14191, Note_off_c, 0, 69, 64
1, 14201, Note_off_c, 0, 52, 64
1, 14215, Note_off_c, 0, 59, 64
1, 14219, Control_c, 3, 1, 100
1, 14254, Note_off_c, 6, 64, 64
1, 14280, Note_on_c, 0, 52, 93
1, 14280, Note_on_c, 0, 59, 93
1, 14280, Note_on_c, 0, 64, 102
1, 14280, Note_on_c, 0, 69, 93
1, 14280, Note_on_c, 9, 54, 49
1, 14290, Control_c, 3, 1, 95
1, 14290, Note_off_c, 9, 54, 64
1, 14330, Note_off_c, 5, 71, 64
1, 14332, Note_off_c, 0, 59, 64
1, 14339, Note_off_c, 0, 52, 64
1, 14343, Note_off_c, 6, 52, 64
1, 14349, Control_c, 3, 1, 73
1, 14363, Note_off_c, 3, 59, 64
1, 14364, Control_c, 6, 64, 0
1, 14386, Control_c, 3, 1, 0
1, 14391, Control_c, 5, 64, 0
1, 14396, Note_off_c, 1, 28, 64
1, 14400, Note_on_c, 0, 52, 72
1, 14400, Note_on_c, 0, 59, 76
1, 14400, Note_on_c, 1, 28, 113
1, 14400, Note_on_c, 5, 71, 89
1, 14400, Note_on_c, 6, 52, 89
1, 14400, Note_on_c, 6, 64, 76
1, 14400, Note_on_c, 9, 36, 113
1, 14400, Note_on_c, 9, 46, 107
1, 14400, Note_on_c, 9, 54, 32
1, 14410, Note_off_c, 9, 36, 64
1, 14410, Note_off_c, 9, 46, 64
1, 14410, Note_off_c, 9, 54, 64
1, 14428, Note_off_c, 0, 64, 64
1, 14452, Note_off_c, 0, 59, 64
1, 14454, Note_off_c, 0, 69, 64
1, 14458, Note_off_c, 0, 52, 64
1, 14496, Control_c, 6, 64, 127
1, 14520, Note_on_c, 0, 52, 98
1, 14520, Note_on_c, 0, 59, 89
1, 14520, Note_on_c, 0, 64, 98
1, 14520, Note_on_c, 0, 69, 89
1, 14520, Note_on_c, 9, 54, 41
1, 14524, Control_c, 5, 64, 127
1, 14530, Note_off_c, 9, 54, 64
1, 14554, Note_off_c, 6, 59, 64
1, 14558, Note_off_c, 5, 76, 64
1, 14591, Note_off_c, 0, 59, 64
1, 14607, Note_off_c, 6, 52, 64
1, 14609, Note_off_c, 0, 52, 64
1, 14636, Note_off_c, 1, 28, 64
1, 14640, Note_on_c, 0, 52, 80
1, 14640, Note_on_c, 0, 59, 89
1, 14640, Note_on_c, 1, 28, 107
1, 14640, Note_on_c, 5, 76, 102
1, 14640, Note_on_c, 6, 52, 76
1, 14640, Note_on_c, 6, 59, 63
1, 14640, Note_on_c, 9, 36, 102
1, 14640, Note_on_c, 9, 46, 76
1, 14640, Note_on_c, 9, 54, 32
1, 14650, Note_off_c, 9, 36, 64
1, 14650, Note_off_c, 9, 46, 64
1, 14650, Note_off_c, 9, 54, 64
1, 14733, Note_off_c, 0, 64, 64
1, 14755, Note_off_c, 0, 59, 64
1, 14760, Note_on_c, 9, 36, 98
1, 14760, Note_on_c, 9, 54, 67
1, 14770, Note_off_c, 0, 52, 64
1, 14770, Note_off_c, 9, 36, 64
1, 14770, Note_off_c, 9, 54, 64
1, 14803, Note_off_c, 0, 69, 64
1, 14807, Note_off_c, 5, 71, 64
1, 14820, Note_off_c, 6, 64, 64
1, 14831, Note_off_c, 6, 69, 64
1, 14863, Control_c, 5, 64, 0
1, 14865, Control_c, 6, 64, 0
1, 14876, Note_off_c, 1, 28, 64
1, 14880, Note_on_c, 0, 52, 113
1, 14880, Note_on_c, 0, 59, 107
1, 14880, Note_on_c, 0, 64, 113
1, 14880, Note_on_c, 0, 69, 102
1, 14880, Note_on_c, 1, 28, 107
1, 14880, Note_on_c, 3, 57, 107
1, 14880, Note_on_c, 5, 71, 98
1, 14880, Note_on_c, 6, 64, 76
1, 14880, Note_on_c, 6, 69, 89
1, 14880, Note_on_c, 9, 40, 116
1, 14880, Note_on_c, 9, 49, 87
1, 14880, Note_on_c, 9, 54, 85
1, 14890, Note_off_c, 9, 40, 64
1, 14890, Note_off_c, 9, 49, 64
1, 14890, Note_off_c, 9, 54, 64
1, 14990, Note_off_c, 6, 59, 64
1, 14994, Control_c, 5, 64, 127
1, 15000, Note_on_c, 9, 54, 45
1, 15010, Note_off_c, 9, 54, 64
1, 15033, Note_off_c, 5, 76, 64
1, 15043, Note_off_c, 0, 59, 64
1, 15044, Note_off_c, 0, 64, 64
1, 15046, Note_off_c, 0, 52, 64
1, 15074, Control_c, 6, 64, 127
1, 15075, Pitch_bend_c, 3, 7964
1, 15087, Pitch_bend_c, 3, 6674
1, 15098, Pitch_bend_c, 3, 4626
1, 15111, Pitch_bend_c, 3, 2882
1, 15116, Note_off_c, 1, 28, 64
1, 15120, Note_on_c, 0, 59, 98
1, 15120, Note_on_c, 0, 64, 89
1, 15120, Note_on_c, 1, 28, 113
1, 15120, Note_on_c, 3, 61, 107
1, 15120, Note_on_c, 5, 76, 102
1, 15120, Note_on_c, 6, 59, 63
1, 15120, Note_on_c, 9, 46, 89
1, 15120, Note_on_c, 9, 54, 32
1, 15122, Pitch_bend_c, 3, 2199
1, 15130, Note_off_c, 9, 46, 64
1, 15130, Note_off_c, 9, 54, 64
1, 15133, Note_off_c, 3, 57, 64
1, 15134, Pitch_bend_c, 3, 1972
1, 15158, Pitch_bend_c, 3, 2275
1, 15168, Note_off_c, 0, 64, 64
1, 15170, Pitch_bend_c, 3, 2882
1, 15171, Note_off_c, 0, 59, 64
1, 15181, Pitch_bend_c, 3, 3716
1, 15194, Pitch_bend_c, 3, 4323
1, 15194, Note_off_c, 5, 71, 64
1, 15205, Pitch_bend_c, 3, 5385
1, 15217, Pitch_bend_c, 3, 6674
1, 15229, Pitch_bend_c, 3, 7433
1, 15238, Note_off_c, 6, 64, 64
1, 15240, Note_on_c, 0, 59, 64
1, 15240, Note_on_c, 0, 64, 93
1, 15240, Note_on_c, 9, 54, 37
1, 15241, Pitch_bend_c, 3, 8192
1, 15250, Note_off_c, 9, 54, 64
1, 15266, Note_off_c, 6, 59, 64
1, 15293, Note_off_c, 0, 59, 64
1, 15294, Note_off_c, 5, 76, 64
1, 15305, Note_off_c, 0, 64, 64
1, 15305, Note_off_c, 6, 52, 64
1, 15311, Note_off_c, 0, 69, 64
1, 15321, Control_c, 5, 64, 0
1, 15321, Control_c, 6, 64, 0
1, 15340, Control_c, 0, 64, 0
1, 15356, Note_off_c, 1, 28, 64
1, 15360, Note_on_c, 0, 42, 76
1, 15360, Note_on_c, 0, 49, 98
1, 15360, Note_on_c, 0, 54, 107
1, 15360, Note_on_c, 0, 57, 93
1, 15360, Note_on_c, 0, 64, 102
1, 15360, Note_on_c, 0, 69, 107
1, 15360, Note_on_c, 1, 30, 113
1, 15360, Note_on_c, 5, 76, 102
1, 15360, Note_on_c, 6, 49, 89
1, 15360, Note_on_c, 6, 54, 85
1, 15360, Note_on_c, 6, 57, 76
1, 15360, Note_on_c, 6, 64, 76
1, 15360, Note_on_c, 9, 36, 116
1, 15360, Note_on_c, 9, 54, 54
1, 15360, Note_on_c, 9, 57, 89
1, 15370, Note_off_c, 9, 36, 64
1, 15370, Note_off_c, 9, 54, 64
1, 15370, Note_off_c, 9, 57, 64
1, 15373, Control_c, 3, 1, 37
1, 15409, Control_c, 3, 1, 127
1, 15459, Control_c, 5, 64, 127
1, 15480, Note_on_c, 9, 54, 32
1, 15480, Control_c, 6, 64, 127
1, 15490, Note_off_c, 9, 54, 64
1, 15492, Control_c, 0, 64, 127
1, 15508, Note_off_c, 0, 57, 64
1, 15531, Note_off_c, 0, 54, 64
1, 15540, Note_off_c, 0, 49, 64
1, 15553, Note_off_c, 6, 57, 64
1, 15554, Note_off_c, 0, 64, 64
1, 15559, Note_off_c, 6, 54, 64
1, 15565, Control_c, 3, 1, 0
1, 15588, Note_off_c, 3, 61, 64
1, 15596, Note_off_c, 1, 30, 64
1, 15600, Note_on_c, 0, 49, 89
1, 15600, Note_on_c, 0, 54, 93
1, 15600, Note_on_c, 0, 57, 93
1, 15600, Note_on_c, 0, 64, 93
1, 15600, Note_on_c, 1, 30, 113
1, 15600, Note_on_c, 5, 81, 89
1, 15600, Note_on_c, 6, 54, 93
1, 15600, Note_on_c, 6, 57, 68
1, 15600, Note_on_c, 9, 36, 107
1, 15600, Note_on_c, 9, 46, 89
1, 15600, Note_on_c, 9, 54, 62
1, 15610, Note_off_c, 9, 36, 64
1, 15610, Note_off_c, 9, 46, 64
1, 15610, Note_off_c, 9, 54, 64
1, 15695, Note_off_c, 0, 57, 64
1, 15706, Note_off_c, 0, 69, 64
1, 15708, Note_off_c, 0, 64, 64
1, 15720, Note_on_c, 9, 54, 76
1, 15730, Note_off_c, 9, 54, 64
1, 15737, Note_off_c, 0, 54, 64
1, 15738, Note_off_c, 0, 49, 64
1, 15749, Note_off_c, 5, 76, 64
1, 15769, Note_off_c, 6, 69, 64
1, 15785, Note_off_c, 6, 64, 64
1, 15803, Control_c, 6, 64, 0
1, 15819, Control_c, 5, 64, 0
1, 15836, Note_off_c, 1, 30, 64
1, 15840, Note_on_c, 0, 49, 72
1, 15840, Note_on_c, 0, 54, 107
1, 15840, Note_on_c, 0, 57, 113
1, 15840, Note_on_c, 0, 64, 107
1, 15840, Note_on_c, 0, 69, 98
1, 15840, Note_on_c, 1, 30, 107
1, 15840, Note_on_c, 3, 57, 113
1, 15840, Note_on_c, 5, 76, 98
1, 15840, Note_on_c, 6, 64, 93
1, 15840, Note_on_c, 6, 69, 85
1, 15840, Note_on_c, 9, 40, 116
1, 15840, Note_on_c, 9, 46, 107
1, 15840, Note_on_c, 9, 54, 85
1, 15846, Note_off_c, 0, 42, 64
1, 15850, Note_off_c, 9, 40, 64
1, 15850, Note_off_c, 9, 46, 64
1, 15850, Note_off_c, 9, 54, 64
1, 15918, Control_c, 5, 64, 127
1, 15928, Control_c, 6, 64, 127
1, 15960, Note_on_c, 9, 54, 67
1, 15963, Note_off_c, 0, 57, 64
1, 15970, Note_off_c, 9, 54, 64
1, 15982, Note_off_c, 0, 54, 64
1, 15984, Note_off_c, 6, 57, 64
1, 15990, Note_off_c, 0, 49, 64
1, 16009, Note_off_c, 5, 81, 64
1, 16039, Pitch_bend_c, 3, 7661
1, 16052, Pitch_bend_c, 3, 5992
1, 16063, Pitch_bend_c, 3, 2730
1, 16075, Pitch_bend_c, 3, 1289
1, 16076, Note_off_c, 1, 30, 64
1, 16077, Note_off_c, 3, 57, 64
1, 16080, Note_on_c, 0, 49, 76
1, 16080, Note_on_c, 0, 57, 89
1, 16080, Note_on_c, 1, 30, 113
1, 16080, Note_on_c, 3, 62, 107
1, 16080, Note_on_c, 5, 81, 93
1, 16080, Note_on_c, 6, 57, 72
1, 16080, Note_on_c, 9, 46, 98
1, 16080, Note_on_c, 9, 54, 49
1, 16083, Note_off_c, 0, 64, 64
1, 16087, Pitch_bend_c, 3, 910
1, 16090, Note_off_c, 9, 46, 64
1, 16090, Note_off_c, 9, 54, 64
1, 16099, Pitch_bend_c, 3, 1365
1, 16111, Pitch_bend_c, 3, 2199
1, 16122, Pitch_bend_c, 3, 3034
1, 16133, Note_off_c, 0, 49, 64
1, 16134, Pitch_bend_c, 3, 4171
1, 16146, Pitch_bend_c, 3, 5537
1, 16148, Note_off_c, 0, 57, 64
1, 16158, Pitch_bend_c, 3, 7054
1, 16170, Pitch_bend_c, 3, 8116
1, 16182, Pitch_bend_c, 3, 8192
1, 16200, Note_on_c, 0, 49, 89
1, 16200, Note_on_c, 0, 57, 80
1, 16200, Note_on_c, 0, 64, 80
1, 16200, Note_on_c, 9, 54, 49
1, 16210, Note_off_c, 9, 54, 64
1, 16244, Note_off_c, 6, 64, 64
1, 16253, Note_off_c, 6, 49, 64
1, 16263, Control_c, 6, 64, 0
1, 16266, Note_off_c, 0, 57, 64
1, 16266, Note_off_c, 5, 76, 64
1, 16267, Note_off_c, 0, 69, 64
1, 16274, Note_off_c, 0, 64, 64
1, 16277, Control_c, 0, 64, 0
1, 16286, Note_off_c, 0, 49, 64
1, 16292, Control_c, 5, 64, 0
1, 16316, Note_off_c, 1, 30, 64
1, 16320, Note_on_c, 0, 50, 113
1, 16320, Note_on_c, 0, 57, 89
1, 16320, Note_on_c, 0, 64, 98
1, 16320, Note_on_c, 0, 69, 93
1, 16320, Note_on_c, 1, 26, 116
1, 16320, Note_on_c, 5, 76, 98
1, 16320, Note_on_c, 6, 50, 93
1, 16320, Note_on_c, 6, 64, 76
1, 16320, Note_on_c, 9, 36, 113
1, 16320, Note_on_c, 9, 46, 113
1, 16320, Note_on_c, 9, 54, 45
1, 16330, Note_off_c, 9, 36, 64
1, 16330, Note_off_c, 9, 46, 64
1, 16330, Note_off_c, 9, 54, 64
1, 16371, Note_off_c, 6, 54, 64
1, 16385, Control_c, 3, 1, 51
1, 16411, Control_c, 5, 64, 127
1, 16422, Control_c, 3, 1, 127
1, 16440, Note_on_c, 9, 54, 41
1, 16447, Control_c, 0, 64, 127
1, 16450, Note_off_c, 9, 54, 64
1, 16459, Note_off_c, 6, 57, 64
1, 16474, Note_off_c, 0, 57, 64
1, 16485, Note_off_c, 5, 81, 64
1, 16495, Control_c, 6, 64, 127
1, 16514, Note_off_c, 0, 50, 64
1, 16541, Control_c, 3, 1, 81
1, 16556, Note_off_c, 1, 26, 64
1, 16560, Note_on_c, 0, 50, 98
1, 16560, Note_on_c, 0, 57, 93
1, 16560, Note_on_c, 1, 26, 107
1, 16560, Note_on_c, 3, 61, 102
1, 16560, Note_on_c, 5, 81, 98
1, 16560, Note_on_c, 6, 57, 72
1, 16560, Note_on_c, 9, 36, 107
1, 16560, Note_on_c, 9, 46, 107
1, 16560, Note_on_c, 9, 54, 32
1, 16570, Note_off_c, 9, 36, 64
1, 16570, Note_off_c, 9, 46, 64
1, 16570, Note_off_c, 9, 54, 64
1, 16576, Control_c, 3, 1, 0
1, 16605, Note_off_c, 3, 62, 64
1, 16657, Note_off_c, 0, 64, 64
1, 16665, Note_off_c, 0, 57, 64
1, 16680, Note_on_c, 9, 54, 62
1, 16690, Note_off_c, 9, 54, 64
1, 16690, Note_off_c, 0, 69, 64
1, 16706, Note_off_c, 0, 50, 64
1, 16718, Note_off_c, 5, 76, 64
1, 16750, Note_off_c, 6, 64, 64
1, 16755, Control_c, 5, 64, 0
1, 16772, Note_off_c, 6, 69, 64
1, 16776, Control_c, 6, 64, 0
1, 16783, Note_off_c, 3, 61, 64
1, 16796, Note_off_c, 1, 26, 64
1, 16800, Note_on_c, 0, 50, 113
1, 16800, Note_on_c, 0, 57, 107
1, 16800, Note_on_c, 0, 64, 102
1, 16800, Note_on_c, 0, 69, 107
1, 16800, Note_on_c, 1, 26, 113
1, 16800, Note_on_c, 3, 57, 107
1, 16800, Note_on_c, 5, 76, 93
1, 16800, Note_on_c, 6, 64, 93
1, 16800, Note_on_c, 6, 69, 102
1, 16800, Note_on_c, 9, 40, 116
1, 16800, Note_on_c, 9, 46, 113
1, 16800, Note_on_c, 9, 54, 85
1, 16810, Note_off_c, 9, 40, 64
1, 16810, Note_off_c, 9, 46, 64
1, 16810, Note_off_c, 9, 54, 64
1, 16880, Control_c, 5, 64, 127
1, 16892, Control_c, 6, 64, 127
1, 16920, Note_on_c, 9, 54, 58
1, 16930, Note_off_c, 9, 54, 64
1, 16939, Note_off_c, 0, 57, 64
1, 16949, Note_off_c, 5, 81, 64
1, 16964, Note_off_c, 0, 50, 64
1, 16969, Note_off_c, 6, 57, 64
1, 16976, Note_off_c, 0, 64, 64
1, 17015, Pitch_bend_c, 3, 7585
1, 17027, Pitch_bend_c, 3, 6068
1, 17030, Note_off_c, 6, 50, 64
1, 17036, Note_off_c, 1, 26, 64
1, 17039, Pitch_bend_c, 3, 3109
1, 17040, Note_on_c, 0, 50, 76
1, 17040, Note_on_c, 0, 57, 72
1, 17040, Note_on_c, 0, 64, 64
1, 17040, Note_on_c, 1, 26, 107
1, 17040, Note_on_c, 3, 61, 113
1, 17040, Note_on_c, 5, 81, 98
1, 17040, Note_on_c, 6, 50, 93
1, 17040, Note_on_c, 6, 57, 80
1, 17040, Note_on_c, 9, 46, 93
1, 17040, Note_on_c, 9, 54, 32
1, 17042, Note_off_c, 3, 57, 64
1, 17050, Note_off_c, 9, 46, 64
1, 17050, Note_off_c, 9, 54, 64
1, 17051, Pitch_bend_c, 3, 1972
1, 17052, Note_off_c, 6, 64, 64
1, 17063, Pitch_bend_c, 3, 1213
1, 17085, Note_off_c, 0, 50, 64
1, 17087, Pitch_bend_c, 3, 2123
1, 17094, Note_off_c, 0, 64, 64
1, 17099, Pitch_bend_c, 3, 2806
1, 17104, Note_off_c, 0, 57, 64
1, 17110, Pitch_bend_c, 3, 4096
1, 17115, Note_off_c, 0, 69, 64
1, 17122, Pitch_bend_c, 3, 5840
1, 17126, Note_off_c, 6, 57, 64
1, 17134, Pitch_bend_c, 3, 7433
1, 17146, Pitch_bend_c, 3, 8192
1, 17160, Note_on_c, 0, 50, 93
1, 17160, Note_on_c, 0, 57, 89
1, 17160, Note_on_c, 0, 64, 89
1, 17160, Note_on_c, 0, 69, 64
1, 17160, Note_on_c, 9, 54, 49
1, 17170, Note_off_c, 9, 54, 64
1, 17178, Note_off_c, 6, 69, 64
1, 17182, Pitch_bend_c, 3, 8479
1, 17199, Note_off_c, 0, 69, 64
1, 17213, Note_off_c, 0, 64, 64
1, 17222, Note_off_c, 0, 57, 64
1, 17229, Pitch_bend_c, 3, 8192
1, 17231, Control_c, 0, 64, 0
1, 17238, Control_c, 5, 64, 0
1, 17249, Note_off_c, 0, 50, 64
1, 17252, Control_c, 6, 64, 0
1, 17276, Note_off_c, 1, 26, 64
1, 17278, Note_off_c, 5, 81, 64
1, 17280, Note_off_c, 6, 50, 64
1, 17280, Note_on_c, 0, 52, 107
1, 17280, Note_on_c, 0, 59, 107
1, 17280, Note_on_c, 0, 64, 102
1, 17280, Note_on_c, 0, 69, 98
1, 17280, Note_on_c, 1, 28, 113
1, 17280, Note_on_c, 5, 71, 76
1, 17280, Note_on_c, 6, 52, 93
1, 17280, Note_on_c, 6, 59, 72
1, 17280, Note_on_c, 6, 64, 80
1, 17280, Note_on_c, 6, 68, 107
1, 17280, Note_on_c, 9, 36, 107
1, 17280, Note_on_c, 9, 46, 116
1, 17280, Note_on_c, 9, 54, 32
1, 17290, Note_off_c, 9, 36, 64
1, 17290, Note_off_c, 9, 46, 64
1, 17290, Note_off_c, 9, 54, 64
1, 17378, Control_c, 5, 64, 127
1, 17400, Note_on_c, 9, 54, 32
1, 17401, Control_c, 6, 64, 127
1, 17403, Control_c, 0, 64, 127
1, 17410, Note_off_c, 9, 54, 64
1, 17421, Note_off_c, 5, 76, 64
1, 17453, Note_off_c, 0, 59, 64
1, 17457, Note_off_c, 6, 59, 64
1, 17478, Note_off_c, 0, 52, 64
1, 17516, Note_off_c, 1, 28, 64
1, 17520, Note_on_c, 0, 52, 98
1, 17520, Note_on_c, 0, 59, 93
1, 17520, Note_on_c, 1, 28, 113
1, 17520, Note_on_c, 3, 59, 98
1, 17520, Note_on_c, 5, 76, 93
1, 17520, Note_on_c, 6, 59, 64
1, 17520, Note_on_c, 9, 36, 107
1, 17520, Note_on_c, 9, 46, 113
1, 17520, Note_on_c, 9, 54, 32
1, 17529, Note_off_c, 3, 61, 64
1, 17530, Note_off_c, 9, 36, 64
1, 17530, Note_off_c, 9, 46, 64
1, 17530, Note_off_c, 9, 54, 64
1, 17589, Control_c, 3, 1, 16
1, 17624, Control_c, 3, 1, 59
1, 17633, Note_off_c, 0, 64, 64
1, 17638, Note_off_c, 0, 59, 64
1, 17640, Note_on_c, 9, 54, 62
1, 17650, Note_off_c, 9, 54, 64
1, 17660, Control_c, 3, 1, 88
1, 17664, Note_off_c, 5, 71, 64
1, 17668, Note_off_c, 0, 69, 64
1, 17670, Note_off_c, 0, 52, 64
1, 17679, Note_off_c, 6, 64, 64
1, 17695, Control_c, 3, 1, 103
1, 17698, Note_off_c, 6, 52, 64
1, 17732, Control_c, 3, 1, 115
1, 17756, Note_off_c, 1, 28, 64
1, 17760, Note_on_c, 0, 52, 107
1, 17760, Note_on_c, 0, 59, 107
1, 17760, Note_on_c, 0, 64, 107
1, 17760, Note_on_c, 0, 69, 89
1, 17760, Note_on_c, 1, 28, 113
1, 17760, Note_on_c, 5, 71, 89
1, 17760, Note_on_c, 6, 52, 98
1, 17760, Note_on_c, 6, 64, 72
1, 17760, Note_on_c, 9, 40, 116
1, 17760, Note_on_c, 9, 46, 116
1, 17760, Note_on_c, 9, 54, 85
1, 17767, Control_c, 3, 1, 120
1, 17770, Note_off_c, 9, 40, 64
1, 17770, Note_off_c, 9, 46, 64
1, 17770, Note_off_c, 9, 54, 64
1, 17802, Control_c, 3, 1, 125
1, 17880, Note_on_c, 9, 54, 45
1, 17886, Control_c, 3, 1, 127
1, 17890, Note_off_c, 9, 54, 64
1, 17894, Note_off_c, 0, 59, 64
1, 17897, Note_off_c, 0, 64, 64
1, 17899, Note_off_c, 0, 52, 64
1, 17908, Note_off_c, 5, 76, 64
1, 17920, Note_off_c, 6, 68, 64
1, 17930, Note_off_c, 6, 64, 64
1, 17961, Control_c, 6, 64, 0
1, 17996, Note_off_c, 1, 28, 64
1, 18000, Note_on_c, 0, 52, 63
1, 18000, Note_on_c, 0, 59, 63
1, 18000, Note_on_c, 0, 64, 72
1, 18000, Note_on_c, 1, 28, 107
1, 18000, Note_on_c, 5, 76, 102
1, 18000, Note_on_c, 6, 64, 89
1, 18000, Note_on_c, 6, 69, 102
1, 18000, Note_on_c, 9, 46, 107
1, 18000, Note_on_c, 9, 54, 32
1, 18010, Note_off_c, 9, 46, 64
1, 18010, Note_off_c, 9, 54, 64
1, 18030, Note_off_c, 0, 52, 64
1, 18037, Note_off_c, 0, 69, 64
1, 18046, Note_off_c, 0, 64, 64
1, 18047, Note_off_c, 0, 59, 64
1, 18087, Control_c, 6, 64, 127
1, 18120, Note_on_c, 0, 52, 93
1, 18120, Note_on_c, 0, 59, 93
1, 18120, Note_on_c, 0, 64, 102
1, 18120, Note_on_c, 0, 69, 93
1, 18120, Note_on_c, 9, 40, 63
1, 18120, Note_on_c, 9, 54, 49
1, 18130, Note_off_c, 9, 40, 64
1, 18130, Note_off_c, 9, 54, 64
1, 18133, Note_off_c, 5, 71, 64
1, 18160, Control_c, 6, 64, 0
1, 18167, Note_off_c, 6, 52, 64
1, 18167, Note_off_c, 0, 64, 64
1, 18176, Note_off_c, 0, 59, 64
1, 18180, Note_off_c, 0, 52, 64
1, 18206, Control_c, 5, 64, 0
1, 18236, Note_off_c, 1, 28, 64
1, 18240, Note_on_c, 0, 52, 72
1, 18240, Note_on_c, 0, 59, 64
1, 18240, Note_on_c, 0, 64, 76
1, 18240, Note_on_c, 1, 28, 113
1, 18240, Note_on_c, 5, 71, 89
1, 18240, Note_on_c, 6, 52, 89
1, 18240, Note_on_c, 9, 40, 116
1, 18240, Note_on_c, 9, 54, 32
1, 18250, Note_off_c, 9, 40, 64
1, 18250, Note_off_c, 9, 54, 64
1, 18284, Note_off_c, 0, 64, 64
1, 18289, Note_off_c, 0, 69, 64
1, 18290, Note_off_c, 0, 59, 64
1, 18295, Note_off_c, 0, 52, 64
1, 18339, Control_c, 5, 64, 127
1, 18347, Note_off_c, 6, 59, 64
1, 18350, Control_c, 3, 1, 123
1, 18360, Control_c, 6, 64, 127
1, 18360, Note_on_c, 0, 52, 98
1, 18360, Note_on_c, 0, 59, 85
1, 18360, Note_on_c, 0, 64, 98
1, 18360, Note_on_c, 0, 69, 85
1, 18360, Note_on_c, 9, 54, 41
1, 18370, Note_off_c, 9, 54, 64
1, 18386, Control_c, 3, 1, 86
1, 18399, Note_off_c, 5, 76, 64
1, 18411, Note_off_c, 0, 64, 64
1, 18411, Note_off_c, 0, 59, 64
1, 18420, Note_off_c, 3, 59, 64
1, 18422, Control_c, 3, 1, 0
1, 18430, Note_off_c, 0, 52, 64
1, 18430, Note_off_c, 0, 69, 64
1, 18476, Note_off_c, 1, 28, 64
1, 18480, Note_on_c, 0, 52, 76
1, 18480, Note_on_c, 0, 59, 76
1, 18480, Note_on_c, 0, 64, 93
1, 18480, Note_on_c, 0, 69, 72
1, 18480, Note_on_c, 1, 28, 107
1, 18480, Note_on_c, 5, 76, 93
1, 18480, Note_on_c, 6, 59, 85
1, 18480, Note_on_c, 9, 45, 116
1, 18480, Note_on_c, 9, 54, 32
1, 18490, Note_off_c, 9, 45, 64
1, 18490, Note_off_c, 9, 54, 64
1, 18553, Note_off_c, 0, 64, 64
1, 18555, Note_off_c, 0, 69, 64
1, 18587, Note_off_c, 0, 59, 64
1, 18600, Note_on_c, 9, 40, 63
1, 18600, Note_on_c, 9, 54, 67
1, 18609, Note_off_c, 0, 52, 64
1, 18610, Note_off_c, 9, 40, 64
1, 18610, Note_off_c, 9, 54, 64
1, 18632, Note_off_c, 5, 71, 64
1, 18633, Note_off_c, 6, 64, 64
1, 18656, Note_off_c, 6, 69, 64
1, 18674, Control_c, 6, 64, 0
1, 18703, Control_c, 5, 64, 0
1, 18711, Note_off_c, 6, 52, 64
1, 18716, Note_off_c, 1, 28, 64
1, 18720, Note_on_c, 0, 52, 89
1, 18720, Note_on_c, 0, 59, 107
1, 18720, Note_on_c, 0, 64, 107
1, 18720, Note_on_c, 0, 69, 93
1, 18720, Note_on_c, 1, 28, 113
1, 18720, Note_on_c, 3, 57, 102
1, 18720, Note_on_c, 5, 71, 89
1, 18720, Note_on_c, 6, 52, 64
1, 18720, Note_on_c, 6, 64, 89
1, 18720, Note_on_c, 6, 69, 89
1, 18720, Note_on_c, 9, 40, 116
1, 18720, Note_on_c, 9, 54, 85
1, 18730, Note_off_c, 9, 40, 64
1, 18730, Note_off_c, 9, 54, 64
1, 18813, Control_c, 6, 64, 127
1, 18820, Control_c, 5, 64, 127
1, 18840, Note_on_c, 9, 43, 116
1, 18840, Note_on_c, 9, 54, 45
1, 18850, Note_off_c, 9, 43, 64
1, 18850, Note_off_c, 9, 54, 64
1, 18853, Note_off_c, 0, 59, 64
1, 18865, Note_off_c, 6, 59, 64
1, 18868, Note_off_c, 5, 76, 64
1, 18871, Note_off_c, 0, 52, 64
1, 18893, Note_off_c, 0, 64, 64
1, 18956, Note_off_c, 1, 28, 64
1, 18960, Note_on_c, 0, 52, 85
1, 18960, Note_on_c, 0, 59, 98
1, 18960, Note_on_c, 1, 28, 113
1, 18960, Note_on_c, 3, 61, 107
1, 18960, Note_on_c, 5, 76, 93
1, 18960, Note_on_c, 6, 59, 72
1, 18960, Note_on_c, 9, 41, 116
1, 18960, Note_on_c, 9, 54, 32
1, 18970, Note_off_c, 9, 41, 64
1, 18970, Note_off_c, 9, 54, 64
1, 18988, Note_off_c, 3, 57, 64
1, 19019, Note_off_c, 0, 59, 64
1, 19023, Note_off_c, 0, 52, 64
1, 19050, Note_off_c, 5, 71, 64
1, 19053, Control_c, 3, 1, 36
1, 19080, Note_on_c, 0, 59, 72
1, 19080, Note_on_c, 0, 64, 72
1, 19080, Note_on_c, 9, 40, 116
1, 19080, Note_on_c, 9, 54, 37
1, 19089, Control_c, 3, 1, 73
1, 19090, Note_off_c, 6, 59, 64
1, 19090, Note_off_c, 9, 40, 64
1, 19090, Note_off_c, 9, 54, 64
1, 19124, Control_c, 3, 1, 91
1, 19125, Note_off_c, 0, 64, 64
1, 19129, Note_off_c, 0, 69, 64
1, 19139, Control_c, 6, 64, 0
1, 19147, Control_c, 0, 64, 0
1, 19148, Note_off_c, 5, 76, 64
1, 19155, Note_off_c, 0, 59, 64
1, 19161, Control_c, 5, 64, 0
1, 19165, Note_off_c, 6, 52, 64
1, 19172, Control_c, 3, 1, 103
1, 19196, Note_off_c, 1, 28, 64
1, 19200, Note_on_c, 0, 42, 80
1, 19200, Note_on_c, 0, 49, 107
1, 19200, Note_on_c, 0, 54, 98
1, 19200, Note_on_c, 0, 57, 116
1, 19200, Note_on_c, 0, 64, 102
1, 19200, Note_on_c, 0, 69, 93
1, 19200, Note_on_c, 1, 30, 113
1, 19200, Note_on_c, 5, 76, 93
1, 19200, Note_on_c, 6, 49, 80
1, 19200, Note_on_c, 6, 54, 85
1, 19200, Note_on_c, 6, 57, 89
1, 19200, Note_on_c, 9, 36, 113
1, 19200, Note_on_c, 9, 49, 87
1, 19200, Note_on_c, 9, 54, 54
1, 19210, Note_off_c, 9, 36, 64
1, 19210, Note_off_c, 9, 49, 64
1, 19210, Note_off_c, 9, 54, 64
1, 19285, Control_c, 5, 64, 127
1, 19291, Control_c, 6, 64, 127
1, 19320, Note_on_c, 9, 54, 32
1, 19330, Note_off_c, 9, 54, 64
1, 19332, Note_off_c, 6, 64, 64
1, 19363, Control_c, 0, 64, 127
1, 19363, Control_c, 3, 1, 98
1, 19368, Note_off_c, 0, 57, 64
1, 19384, Note_off_c, 0, 54, 64
1, 19398, Control_c, 3, 1, 86
1, 19404, Note_off_c, 0, 49, 64
1, 19418, Note_off_c, 3, 61, 64
1, 19436, Note_off_c, 1, 30, 64
1, 19440, Note_on_c, 0, 49, 89
1, 19440, Note_on_c, 0, 54, 93
1, 19440, Note_on_c, 0, 57, 98
1, 19440, Note_on_c, 1, 30, 113
1, 19440, Note_on_c, 5, 81, 93
1, 19440, Note_on_c, 6, 64, 63
1, 19440, Note_on_c, 9, 36, 113
1, 19440, Note_on_c, 9, 46, 102
1, 19440, Note_on_c, 9, 54, 62
1, 19446, Control_c, 3, 1, 54
1, 19450, Note_off_c, 9, 36, 64
1, 19450, Note_off_c, 9, 46, 64
1, 19450, Note_off_c, 9, 54, 64
1, 19482, Control_c, 3, 1, 0
1, 19531, Note_off_c, 0, 57, 64
1, 19536, Note_off_c, 0, 64, 64
1, 19555, Note_off_c, 0, 69, 64
1, 19560, Note_on_c, 9, 54, 76
1, 19563, Note_off_c, 0, 49, 64
1, 19566, Note_off_c, 0, 54, 64
1, 19570, Note_off_c, 9, 54, 64
1, 19603, Note_off_c, 5, 76, 64
1, 19612, Note_off_c, 6, 64, 64
1, 19619, Note_off_c, 6, 69, 64
1, 19621, Note_off_c, 6, 54, 64
1, 19626, Control_c, 6, 64, 0
1, 19672, Control_c, 5, 64, 0
1, 19676, Note_off_c, 1, 30, 64
1, 19680, Note_on_c, 0, 49, 89
1, 19680, Note_on_c, 0, 54, 107
1, 19680, Note_on_c, 0, 57, 107
1, 19680, Note_on_c, 0, 64, 107
1, 19680, Note_on_c, 0, 69, 102
1, 19680, Note_on_c, 1, 30, 113
1, 19680, Note_on_c, 3, 57, 107
1, 19680, Note_on_c, 5, 76, 93
1, 19680, Note_on_c, 6, 54, 102
1, 19680, Note_on_c, 6, 64, 80
1, 19680, Note_on_c, 6, 69, 80
1, 19680, Note_on_c, 9, 40, 116
1, 19680, Note_on_c, 9, 46, 116
1, 19680, Note_on_c, 9, 54, 85
1, 19690, Note_off_c, 9, 40, 64
1, 19690, Note_off_c, 9, 46, 64
1, 19690, Note_off_c, 9, 54, 64
1, 19757, Control_c, 6, 64, 127
1, 19779, Control_c, 5, 64, 127
1, 19800, Note_on_c, 9, 54, 67
1, 19810, Note_off_c, 0, 57, 64
1, 19810, Note_off_c, 9, 54, 64
1, 19816, Note_off_c, 0, 64, 64
1, 19830, Note_off_c, 0, 54, 64
1, 19835, Note_off_c, 6, 57, 64
1, 19847, Note_off_c, 5, 81, 64
1, 19858, Note_off_c, 0, 49, 64
1, 19885, Pitch_bend_c, 3, 7888
1, 19897, Pitch_bend_c, 3, 6674
1, 19897, Note_off_c, 0, 42, 64
1, 19904, Note_off_c, 3, 57, 64
1, 19909, Pitch_bend_c, 3, 3868
1, 19916, Note_off_c, 1, 30, 64
1, 19920, Note_on_c, 0, 54, 72
1, 19920, Note_on_c, 0, 57, 93
1, 19920, Note_on_c, 0, 64, 76
1, 19920, Note_on_c, 1, 30, 107
1, 19920, Note_on_c, 3, 62, 113
1, 19920, Note_on_c, 5, 81, 93
1, 19920, Note_on_c, 6, 57, 72
1, 19920, Note_on_c, 9, 46, 102
1, 19920, Note_on_c, 9, 54, 49
1, 19922, Pitch_bend_c, 3, 2048
1, 19930, Note_off_c, 9, 46, 64
1, 19930, Note_off_c, 9, 54, 64
1, 19933, Pitch_bend_c, 3, 1061
1, 19956, Pitch_bend_c, 3, 1896
1, 19961, Note_off_c, 0, 64, 64
1, 19968, Pitch_bend_c, 3, 2730
1, 19974, Note_off_c, 0, 57, 64
1, 19978, Note_off_c, 0, 54, 64
1, 19980, Pitch_bend_c, 3, 3716
1, 19992, Pitch_bend_c, 3, 4399
1, 20004, Pitch_bend_c, 3, 4930
1, 20016, Pitch_bend_c, 3, 5461
1, 20027, Pitch_bend_c, 3, 6599
1, 20039, Pitch_bend_c, 3, 7130
1, 20040, Note_on_c, 0, 49, 63
1, 20040, Note_on_c, 0, 54, 68
1, 20040, Note_on_c, 0, 57, 85
1, 20040, Note_on_c, 0, 64, 80
1, 20040, Note_on_c, 9, 54, 49
1, 20050, Note_off_c, 9, 54, 64
1, 20051, Pitch_bend_c, 3, 7812
1, 20060, Note_off_c, 6, 49, 64
1, 20063, Pitch_bend_c, 3, 8192
1, 20069, Note_off_c, 6, 64, 64
1, 20071, Note_off_c, 0, 69, 64
1, 20094, Note_off_c, 0, 64, 64
1, 20099, Control_c, 6, 64, 0
1, 20102, Note_off_c, 5, 76, 64
1, 20108, Note_off_c, 0, 49, 64
1, 20108, Note_off_c, 0, 54, 64
1, 20116, Note_off_c, 0, 57, 64
1, 20128, Control_c, 5, 64, 0
1, 20150, Control_c, 0, 64, 0
1, 20156, Note_off_c, 1, 30, 64
1, 20160, Note_on_c, 0, 50, 98
1, 20160, Note_on_c, 0, 57, 89
1, 20160, Note_on_c, 0, 64, 107
1, 20160, Note_on_c, 0, 69, 107
1, 20160, Note_on_c, 1, 26, 113
1, 20160, Note_on_c, 5, 76, 89
1, 20160, Note_on_c, 6, 50, 107
1, 20160, Note_on_c, 6, 64, 80
1, 20160, Note_on_c, 9, 36, 113
1, 20160, Note_on_c, 9, 46, 116
1, 20160, Note_on_c, 9, 54, 45
1, 20170, Note_off_c, 9, 36, 64
1, 20170, Note_off_c, 9, 46, 64
1, 20170, Note_off_c, 9, 54, 64
1, 20194, Note_off_c, 6, 54, 64
1, 20246, Control_c, 5, 64, 127
1, 20253, Control_c, 6, 64, 127
1, 20280, Note_on_c, 9, 54, 41
1, 20286, Control_c, 0, 64, 127
1, 20290, Note_off_c, 9, 54, 64
1, 20324, Note_off_c, 6, 57, 64
1, 20336, Note_off_c, 0, 57, 64
1, 20343, Note_off_c, 0, 64, 64
1, 20344, Note_off_c, 0, 50, 64
1, 20346, Note_off_c, 5, 81, 64
1, 20396, Note_off_c, 1, 26, 64
1, 20400, Note_on_c, 0, 50, 102
1, 20400, Note_on_c, 0, 57, 93
1, 20400, Note_on_c, 0, 64, 89
1, 20400, Note_on_c, 1, 26, 113
1, 20400, Note_on_c, 3, 61, 107
1, 20400, Note_on_c, 5, 81, 93
1, 20400, Note_on_c, 6, 57, 72
1, 20400, Note_on_c, 9, 36, 107
1, 20400, Note_on_c, 9, 46, 107
1, 20400, Note_on_c, 9, 54, 32
1, 20410, Note_off_c, 9, 36, 64
1, 20410, Note_off_c, 9, 46, 64
1, 20410, Note_off_c, 9, 54, 64
1, 20411, Note_off_c, 3, 62, 64
1, 20501, Note_off_c, 0, 64, 64
1, 20502, Note_off_c, 0, 69, 64
1, 20507, Note_off_c, 0, 57, 64
1, 20520, Note_on_c, 9, 54, 62
1, 20530, Note_off_c, 9, 54, 64
1, 20544, Note_off_c, 0, 50, 64
1, 20548, Note_off_c, 5, 76, 64
1, 20569, Note_off_c, 6, 64, 64
1, 20591, Note_off_c, 6, 69, 64
1, 20606, Control_c, 5, 64, 0
1, 20620, Control_c, 6, 64, 0
1, 20636, Note_off_c, 1, 26, 64
1, 20640, Note_on_c, 0, 50, 107
1, 20640, Note_on_c, 0, 57, 102
1, 20640, Note_on_c, 0, 64, 107
1, 20640, Note_on_c, 0, 69, 102
1, 20640, Note_on_c, 1, 26, 113
1, 20640, Note_on_c, 3, 57, 107
1, 20640, Note_on_c, 5, 76, 93
1, 20640, Note_on_c, 6, 64, 98
1, 20640, Note_on_c, 6, 69, 98
1, 20640, Note_on_c, 9, 40, 116
1, 20640, Note_on_c, 9, 46, 116
1, 20640, Note_on_c, 9, 54, 85
1, 20644, Note_off_c, 3, 61, 64
1, 20650, Note_off_c, 9, 40, 64
1, 20650, Note_off_c, 9, 46, 64
1, 20650, Note_off_c, 9, 54, 64
1, 20721, Control_c, 5, 64, 127
1, 20737, Control_c, 6, 64, 127
1, 20760, Note_on_c, 9, 54, 58
1, 20770, Note_off_c, 9, 54, 64
1, 20779, Note_off_c, 0, 57, 64
1, 20793, Note_off_c, 0, 64, 64
1, 20800, Note_off_c, 0, 50, 64
1, 20809, Note_off_c, 5, 81, 64
1, 20816, Note_off_c, 6, 57, 64
1, 20876, Note_off_c, 1, 26, 64
1, 20880, Note_on_c, 0, 50, 63
1, 20880, Note_on_c, 0, 57, 89
1, 20880, Note_on_c, 0, 64, 76
1, 20880, Note_on_c, 1, 26, 113
1, 20880, Note_on_c, 3, 61, 107
1, 20880, Note_on_c, 5, 81, 89
1, 20880, Note_on_c, 6, 57, 72
1, 20880, Note_on_c, 9, 46, 89
1, 20880, Note_on_c, 9, 54, 32
1, 20883, Note_off_c, 6, 64, 64
1, 20890, Note_off_c, 9, 46, 64
1, 20890, Note_off_c, 9, 54, 64
1, 20921, Note_off_c, 0, 50, 64
1, 20932, Note_off_c, 0, 57, 64
1, 20932, Note_off_c, 0, 64, 64
1, 20947, Note_off_c, 3, 57, 64
1, 20959, Note_off_c, 0, 69, 64
1, 20997, Note_off_c, 6, 57, 64
1, 21000, Note_on_c, 0, 50, 72
1, 21000, Note_on_c, 0, 57, 89
1, 21000, Note_on_c, 0, 64, 85
1, 21000, Note_on_c, 9, 54, 49
1, 21003, Note_off_c, 6, 69, 64
1, 21010, Note_off_c, 9, 54, 64
1, 21046, Note_off_c, 0, 64, 64
1, 21052, Note_off_c, 0, 57, 64
1, 21076, Note_off_c, 0, 50, 64
1, 21081, Control_c, 5, 64, 0
1, 21083, Control_c, 6, 64, 0
1, 21085, Control_c, 0, 64, 0
1, 21105, Note_off_c, 5, 81, 64
1, 21116, Note_off_c, 1, 26, 64
1, 21120, Note_on_c, 0, 52, 113
1, 21120, Note_on_c, 0, 59, 89
1, 21120, Note_on_c, 0, 64, 113
1, 21120, Note_on_c, 0, 69, 98
1, 21120, Note_on_c, 1, 28, 107
1, 21120, Note_on_c, 5, 71, 85
1, 21120, Note_on_c, 6, 52, 107
1, 21120, Note_on_c, 6, 59, 64
1, 21120, Note_on_c, 6, 64, 93
1, 21120, Note_on_c, 6, 68, 102
1, 21120, Note_on_c, 9, 36, 113
1, 21120, Note_on_c, 9, 54, 32
1, 21120, Note_on_c, 9, 57, 89
1, 21130, Note_off_c, 9, 36, 64
1, 21130, Note_off_c, 9, 54, 64
1, 21130, Note_off_c, 9, 57, 64
1, 21160, Note_off_c, 6, 50, 64
1, 21222, Control_c, 6, 64, 127
1, 21222, Control_c, 5, 64, 127
1, 21240, Note_on_c, 9, 54, 32
1, 21250, Note_off_c, 9, 54, 64
1, 21259, Control_c, 0, 64, 127
1, 21264, Note_off_c, 6, 59, 64
1, 21303, Note_off_c, 0, 59, 64
1, 21307, Note_off_c, 5, 76, 64
1, 21329, Note_off_c, 0, 52, 64
1, 21356, Note_off_c, 1, 28, 64
1, 21360, Note_on_c, 0, 52, 89
1, 21360, Note_on_c, 0, 59, 80
1, 21360, Note_on_c, 1, 28, 107
1, 21360, Note_on_c, 3, 59, 107
1, 21360, Note_on_c, 5, 76, 93
1, 21360, Note_on_c, 6, 59, 76
1, 21360, Note_on_c, 9, 36, 113
1, 21360, Note_on_c, 9, 46, 93
1, 21360, Note_on_c, 9, 54, 32
1, 21370, Note_off_c, 9, 36, 64
1, 21370, Note_off_c, 9, 46, 64
1, 21370, Note_off_c, 9, 54, 64
1, 21384, Note_off_c, 3, 61, 64
1, 21480, Note_on_c, 9, 54, 62
1, 21485, Note_off_c, 0, 64, 64
1, 21486, Note_off_c, 0, 59, 64
1, 21490, Note_off_c, 9, 54, 64
1, 21507, Note_off_c, 0, 52, 64
1, 21507, Note_off_c, 5, 71, 64
1, 21511, Note_off_c, 0, 69, 64
1, 21530, Note_off_c, 6, 64, 64
1, 21552, Control_c, 3, 1, 17
1, 21553, Note_off_c, 6, 52, 64
1, 21588, Control_c, 3, 1, 37
1, 21596, Note_off_c, 1, 28, 64
1, 21597, Control_c, 5, 64, 0
1, 21600, Note_on_c, 0, 52, 113
1, 21600, Note_on_c, 0, 59, 102
1, 21600, Note_on_c, 0, 64, 107
1, 21600, Note_on_c, 0, 69, 98
1, 21600, Note_on_c, 1, 28, 113
1, 21600, Note_on_c, 5, 71, 85
1, 21600, Note_on_c, 6, 52, 93
1, 21600, Note_on_c, 6, 64, 76
1, 21600, Note_on_c, 9, 40, 116
1, 21600, Note_on_c, 9, 46, 113
1, 21600, Note_on_c, 9, 54, 85
1, 21610, Note_off_c, 9, 40, 64
1, 21610, Note_off_c, 9, 46, 64
1, 21610, Note_off_c, 9, 54, 64
1, 21624, Control_c, 3, 1, 51
1, 21671, Control_c, 3, 1, 63
1, 21707, Control_c, 5, 64, 127
1, 21720, Note_on_c, 9, 54, 45
1, 21726, Note_off_c, 6, 68, 64
1, 21730, Note_off_c, 9, 54, 64
1, 21731, Control_c, 3, 1, 73
1, 21733, Note_off_c, 0, 59, 64
1, 21746, Note_off_c, 0, 52, 64
1, 21752, Note_off_c, 6, 59, 64
1, 21754, Note_off_c, 0, 64, 64
1, 21767, Note_off_c, 5, 76, 64
1, 21804, Control_c, 6, 64, 0
1, 21814, Control_c, 3, 1, 78
1, 21836, Note_off_c, 1, 28, 64
1, 21840, Note_on_c, 0, 52, 63
1, 21840, Note_on_c, 0, 59, 76
1, 21840, Note_on_c, 0, 64, 63
1, 21840, Note_on_c, 1, 28, 113
1, 21840, Note_on_c, 5, 76, 89
1, 21840, Note_on_c, 6, 59, 80
1, 21840, Note_on_c, 6, 69, 98
1, 21840, Note_on_c, 9, 46, 113
1, 21840, Note_on_c, 9, 54, 32
1, 21850, Note_off_c, 9, 46, 64
1, 21850, Note_off_c, 9, 54, 64
1, 21883, Note_off_c, 0, 52, 64
1, 21885, Note_off_c, 0, 69, 64
1, 21900, Note_off_c, 0, 64, 64
1, 21904, Note_off_c, 0, 59, 64
1, 21945, Control_c, 6, 64, 127
1, 21960, Note_on_c, 0, 52, 85
1, 21960, Note_on_c, 0, 59, 85
1, 21960, Note_on_c, 0, 64, 98
1, 21960, Note_on_c, 0, 69, 93
1, 21960, Note_on_c, 9, 40, 116
1, 21960, Note_on_c, 9, 54, 49
1, 21970, Note_off_c, 9, 40, 64
1, 21970, Note_off_c, 9, 54, 64
1, 22017, Note_off_c, 6, 52, 64
1, 22025, Note_off_c, 0, 59, 64
1, 22027, Note_off_c, 0, 52, 64
1, 22047, Note_off_c, 5, 71, 64
1, 22076, Control_c, 5, 64, 0
1, 22076, Note_off_c, 1, 28, 64
1, 22080, Note_on_c, 0, 52, 68
1, 22080, Note_on_c, 0, 59, 76
1, 22080, Note_on_c, 1, 28, 113
1, 22080, Note_on_c, 5, 71, 80
1, 22080, Note_on_c, 6, 52, 98
1, 22080, Note_on_c, 9, 36, 89
1, 22080, Note_on_c, 9, 46, 113
1, 22080, Note_on_c, 9, 54, 32
1, 22090, Note_off_c, 9, 36, 64
1, 22090, Note_off_c, 9, 46, 64
1, 22090, Note_off_c, 9, 54, 64
1, 22138, Note_off_c, 0, 64, 64
1, 22148, Note_off_c, 0, 52, 64
1, 22149, Note_off_c, 0, 59, 64
1, 22152, Note_off_c, 0, 69, 64
1, 22200, Note_on_c, 0, 52, 98
1, 22200, Note_on_c, 0, 59, 93
1, 22200, Note_on_c, 0, 64, 93
1, 22200, Note_on_c, 0, 69, 89
1, 22200, Note_on_c, 9, 40, 63
1, 22200, Note_on_c, 9, 54, 41
1, 22203, Control_c, 5, 64, 127
1, 22210, Note_off_c, 9, 40, 64
1, 22210, Note_off_c, 9, 54, 64
1, 22216, Note_off_c, 6, 64, 64
1, 22255, Control_c, 3, 1, 73
1, 22267, Note_off_c, 5, 76, 64
1, 22278, Note_off_c, 0, 52, 64
1, 22280, Note_off_c, 0, 59, 64
1, 22316, Note_off_c, 1, 28, 64
1, 22320, Note_on_c, 0, 52, 85
1, 22320, Note_on_c, 0, 59, 80
1, 22320, Note_on_c, 1, 28, 113
1, 22320, Note_on_c, 5, 76, 93
1, 22320, Note_on_c, 6, 64, 93
1, 22320, Note_on_c, 9, 43, 113
1, 22320, Note_on_c, 9, 54, 32
1, 22330, Note_off_c, 9, 43, 64
1, 22330, Note_off_c, 9, 54, 64
1, 22433, Note_off_c, 0, 52, 64
1, 22440, Note_on_c, 9, 40, 63
1, 22440, Note_on_c, 9, 54, 67
1, 22441, Note_off_c, 0, 64, 64
1, 22448, Note_off_c, 0, 59, 64
1, 22450, Note_off_c, 9, 40, 64
1, 22450, Note_off_c, 9, 54, 64
1, 22467, Note_off_c, 0, 69, 64
1, 22493, Control_c, 3, 1, 68
1, 22493, Note_off_c, 6, 59, 64
1, 22502, Note_off_c, 5, 71, 64
1, 22504, Control_c, 6, 64, 0
1, 22554, Control_c, 5, 64, 0
1, 22556, Note_off_c, 1, 28, 64
1, 22560, Note_on_c, 0, 52, 113
1, 22560, Note_on_c, 0, 59, 107
1, 22560, Note_on_c, 0, 64, 107
1, 22560, Note_on_c, 0, 69, 98
1, 22560, Note_on_c, 1, 28, 113
1, 22560, Note_on_c, 5, 71, 68
1, 22560, Note_on_c, 6, 59, 89
1, 22560, Note_on_c, 9, 40, 116
1, 22560, Note_on_c, 9, 54, 85
1, 22570, Note_off_c, 9, 40, 64
1, 22570, Note_off_c, 9, 54, 64
1, 22670, Control_c, 5, 64, 127
1, 22680, Note_on_c, 9, 43, 113
1, 22680, Note_on_c, 9, 54, 45
1, 22686, Control_c, 6, 64, 127
1, 22690, Note_off_c, 9, 43, 64
1, 22690, Note_off_c, 9, 54, 64
1, 22703, Note_off_c, 0, 59, 64
1, 22707, Note_off_c, 6, 64, 64
1, 22711, Note_off_c, 5, 76, 64
1, 22715, Note_off_c, 0, 52, 64
1, 22743, Control_c, 3, 1, 63
1, 22796, Note_off_c, 1, 28, 64
1, 22800, Note_on_c, 0, 52, 63
1, 22800, Note_on_c, 0, 59, 89
1, 22800, Note_on_c, 1, 35, 107
1, 22800, Note_on_c, 5, 76, 93
1, 22800, Note_on_c, 6, 64, 63
1, 22800, Note_on_c, 9, 41, 113
1, 22800, Note_on_c, 9, 54, 32
1, 22810, Note_off_c, 9, 41, 64
1, 22810, Note_off_c, 9, 54, 64
1, 22840, Note_off_c, 0, 52, 64
1, 22848, Note_off_c, 0, 64, 64
1, 22856, Note_off_c, 0, 59, 64
1, 22862, Control_c, 3, 1, 58
1, 22920, Note_on_c, 0, 52, 89
1, 22920, Note_on_c, 0, 59, 76
1, 22920, Note_on_c, 0, 64, 63
1, 22920, Note_on_c, 9, 40, 116
1, 22920, Note_on_c, 9, 54, 37
1, 22922, Control_c, 3, 1, 37
1, 22922, Note_off_c, 5, 71, 64
1, 22924, Note_off_c, 6, 59, 64
1, 22930, Note_off_c, 9, 40, 64
1, 22930, Note_off_c, 9, 54, 64
1, 22935, Note_off_c, 6, 52, 64
1, 22937, Note_off_c, 0, 69, 64
1, 22959, Control_c, 3, 1, 0
1, 22960, Note_off_c, 0, 64, 64
1, 22967, Note_off_c, 3, 59, 64
1, 22974, Note_off_c, 0, 52, 64
1, 22986, Note_off_c, 0, 59, 64
1, 22999, Control_c, 5, 64, 0
1, 23005, Control_c, 6, 64, 0
1, 23011, Control_c, 0, 64, 0
1, 23030, Note_off_c, 6, 69, 64
1, 23036, Note_off_c, 1, 35, 64
1, 23040, Note_on_c, 0, 52, 107
1, 23040, Note_on_c, 0, 59, 72
1, 23040, Note_on_c, 0, 64, 107
1, 23040, Note_on_c, 0, 68, 98
1, 23040, Note_on_c, 1, 40, 107
1, 23040, Note_on_c, 5, 71, 85
1, 23040, Note_on_c, 6, 52, 93
1, 23040, Note_on_c, 6, 59, 76
1, 23040, Note_on_c, 6, 68, 98
1, 23040, Note_on_c, 9, 36, 113
1, 23040, Note_on_c, 9, 49, 87
1, 23040, Note_on_c, 9, 54, 33
1, 23050, Note_off_c, 9, 36, 64
1, 23050, Note_off_c, 9, 49, 64
1, 23050, Note_off_c, 9, 54, 64
1, 23125, Control_c, 5, 64, 127
1, 23160, Note_on_c, 9, 54, 32
1, 23170, Note_off_c, 9, 54, 64
1, 23170, Control_c, 0, 64, 127
1, 23177, Note_off_c, 6, 64, 64
1, 23185, Note_off_c, 0, 59, 64
1, 23196, Note_off_c, 5, 76, 64
1, 23220, Note_off_c, 0, 52, 64
1, 23228, Control_c, 6, 64, 127
1, 23276, Note_off_c, 1, 40, 64
1, 23280, Note_on_c, 0, 52, 98
1, 23280, Note_on_c, 0, 59, 89
1, 23280, Note_on_c, 1, 40, 107
1, 23280, Note_on_c, 5, 76, 98
1, 23280, Note_on_c, 6, 64, 63
1, 23280, Note_on_c, 9, 36, 113
1, 23280, Note_on_c, 9, 46, 98
1, 23280, Note_on_c, 9, 54, 33
1, 23290, Note_off_c, 9, 36, 64
1, 23290, Note_off_c, 9, 46, 64
1, 23290, Note_off_c, 9, 54, 64
1, 23397, Note_off_c, 0, 59, 64
1, 23400, Note_on_c, 9, 54, 49
1, 23404, Note_off_c, 0, 64, 64
1, 23410, Note_off_c, 9, 54, 64
1, 23413, Note_off_c, 0, 52, 64
1, 23425, Note_off_c, 0, 68, 64
1, 23428, Note_off_c, 6, 59, 64
1, 23436, Note_off_c, 5, 71, 64
1, 23457, Control_c, 5, 64, 0
1, 23465, Note_off_c, 6, 52, 64
1, 23516, Note_off_c, 1, 40, 64
1, 23520, Note_on_c, 0, 52, 107
1, 23520, Note_on_c, 0, 59, 102
1, 23520, Note_on_c, 0, 64, 102
1, 23520, Note_on_c, 0, 68, 93
1, 23520, Note_on_c, 1, 40, 113
1, 23520, Note_on_c, 5, 71, 76
1, 23520, Note_on_c, 6, 52, 76
1, 23520, Note_on_c, 6, 59, 63
1, 23520, Note_on_c, 9, 40, 116
1, 23520, Note_on_c, 9, 46, 116
1, 23520, Note_on_c, 9, 54, 85
1, 23530, Note_off_c, 9, 40, 64
1, 23530, Note_off_c, 9, 46, 64
1, 23530, Note_off_c, 9, 54, 64
1, 23572, Control_c, 5, 64, 127
1, 23640, Note_on_c, 9, 54, 33
1, 23645, Note_off_c, 0, 59, 64
1, 23650, Note_off_c, 9, 54, 64
1, 23657, Note_off_c, 0, 52, 64
1, 23666, Note_off_c, 6, 59, 64
1, 23701, Note_off_c, 5, 76, 64
1, 23715, Control_c, 6, 64, 0
1, 23756, Note_off_c, 1, 40, 64
1, 23760, Note_on_c, 0, 52, 63
1, 23760, Note_on_c, 0, 59, 68
1, 23760, Note_on_c, 1, 40, 107
1, 23760, Note_on_c, 5, 76, 93
1, 23760, Note_on_c, 6, 59, 68
1, 23760, Note_on_c, 9, 46, 98
1, 23760, Note_on_c, 9, 54, 32
1, 23770, Note_off_c, 9, 46, 64
1, 23770, Note_off_c, 9, 54, 64
1, 23783, Note_off_c, 0, 64, 64
1, 23787, Note_off_c, 0, 68, 64
1, 23796, Note_off_c, 0, 52, 64
1, 23820, Note_off_c, 0, 59, 64
1, 23880, Note_on_c, 0, 52, 89
1, 23880, Note_on_c, 0, 59, 89
1, 23880, Note_on_c, 0, 64, 98
1, 23880, Note_on_c, 0, 68, 76
1, 23880, Note_on_c, 9, 36, 107
1, 23880, Note_on_c, 9, 54, 32
1, 23880, Note_off_c, 6, 64, 64
1, 23890, Note_off_c, 9, 36, 64
1, 23890, Note_off_c, 9, 54, 64
1, 23947, Note_off_c, 0, 59, 64
1, 23951, Note_off_c, 0, 52, 64
1, 23951, Note_off_c, 5, 71, 64
1, 23952, Note_off_c, 6, 52, 64
1, 23960, Note_off_c, 0, 64, 64
1, 23989, Control_c, 5, 64, 0
1, 23996, Note_off_c, 1, 40, 64
1, 24000, Note_on_c, 0, 52, 76
1, 24000, Note_on_c, 0, 59, 76
1, 24000, Note_on_c, 0, 64, 72
1, 24000, Note_on_c, 1, 40, 113
1, 24000, Note_on_c, 5, 71, 72
1, 24000, Note_on_c, 6, 52, 89
1, 24000, Note_on_c, 6, 64, 72
1, 24000, Note_on_c, 9, 40, 116
1, 24000, Note_on_c, 9, 54, 32
1, 24010, Note_off_c, 9, 40, 64
1, 24010, Note_off_c, 9, 54, 64
1, 24036, Note_on_c, 9, 40, 116
1, 24046, Note_off_c, 9, 40, 64
1, 24049, Note_off_c, 0, 64, 64
1, 24059, Note_off_c, 0, 52, 64
1, 24064, Note_off_c, 0, 59, 64
1, 24064, Note_off_c, 0, 68, 64
1, 24104, Control_c, 5, 64, 127
1, 24120, Note_on_c, 0, 52, 107
1, 24120, Note_on_c, 0, 59, 76
1, 24120, Note_on_c, 0, 64, 107
1, 24120, Note_on_c, 0, 68, 98
1, 24120, Note_on_c, 9, 54, 32
1, 24130, Note_off_c, 9, 54, 64
1, 24134, Note_off_c, 6, 59, 64
1, 24174, Note_off_c, 5, 76, 64
1, 24184, Note_off_c, 0, 59, 64
1, 24188, Note_off_c, 0, 52, 64
1, 24200, Note_off_c, 0, 64, 64
1, 24236, Note_off_c, 1, 40, 64
1, 24240, Note_on_c, 0, 52, 85
1, 24240, Note_on_c, 0, 59, 89
1, 24240, Note_on_c, 0, 64, 72
1, 24240, Note_on_c, 1, 40, 113
1, 24240, Note_on_c, 5, 76, 93
1, 24240, Note_on_c, 6, 59, 89
1, 24240, Note_on_c, 9, 45, 113
1, 24240, Note_on_c, 9, 54, 33
1, 24250, Note_off_c, 9, 45, 64
1, 24250, Note_off_c, 9, 54, 64
1, 24339, Note_off_c, 0, 64, 64
1, 24346, Note_off_c, 0, 59, 64
1, 24350, Note_off_c, 0, 52, 64
1, 24356, Note_off_c, 0, 68, 64
1, 24360, Note_on_c, 9, 54, 71
1, 24370, Note_off_c, 9, 54, 64
1, 24411, Note_off_c, 5, 71, 64
1, 24431, Control_c, 5, 64, 0
1, 24454, Note_off_c, 6, 68, 64
1, 24476, Note_off_c, 1, 40, 64
1, 24480, Note_on_c, 0, 52, 113
1, 24480, Note_on_c, 0, 59, 102
1, 24480, Note_on_c, 0, 64, 107
1, 24480, Note_on_c, 0, 68, 93
1, 24480, Note_on_c, 1, 40, 113
1, 24480, Note_on_c, 5, 71, 98
1, 24480, Note_on_c, 6, 68, 89
1, 24480, Note_on_c, 9, 43, 107
1, 24480, Note_on_c, 9, 54, 85
1, 24490, Note_off_c, 9, 43, 64
1, 24490, Note_off_c, 9, 54, 64
1, 24551, Control_c, 5, 64, 127
1, 24570, Control_c, 6, 64, 127
1, 24600, Note_on_c, 9, 43, 102
1, 24600, Note_on_c, 9, 54, 32
1, 24610, Note_off_c, 9, 43, 64
1, 24610, Note_off_c, 9, 54, 64
1, 24655, Note_off_c, 0, 59, 64
1, 24663, Note_off_c, 5, 76, 64
1, 24670, Note_off_c, 0, 52, 64
1, 24720, Note_on_c, 0, 52, 80
1, 24720, Note_on_c, 0, 59, 64
1, 24720, Note_on_c, 5, 76, 89
1, 24720, Note_on_c, 9, 41, 98
1, 24720, Note_on_c, 9, 54, 32
1, 24730, Note_off_c, 9, 41, 64
1, 24730, Note_off_c, 9, 54, 64
1, 24780, Note_off_c, 6, 59, 64
1, 24828, Note_off_c, 0, 52, 64
1, 24830, Control_c, 0, 64, 127
1, 24832, Note_off_c, 5, 71, 64
1, 24840, Note_on_c, 9, 41, 93
1, 24840, Note_on_c, 9, 54, 32
1, 24840, Note_off_c, 6, 52, 64
1, 24846, Note_off_c, 0, 64, 64
1, 24850, Note_off_c, 9, 41, 64
1, 24850, Note_off_c, 9, 54, 64
1, 24853, Note_off_c, 0, 68, 64
1, 24854, Note_off_c, 0, 59, 64
1, 24880, Note_off_c, 5, 76, 64
1, 24893, Control_c, 0, 64, 0
1, 24921, Note_off_c, 1, 40, 64
1, 24925, Control_c, 6, 64, 0
1, 24935, Control_c, 5, 64, 0
1, 24988, Note_off_c, 6, 64, 64
1, 24994, Note_off_c, 6, 68, 64
1, 24994, End_track
0, 0, End_of_file
