0, 0, Header, 1, 3, 480
1, 0, Start_track
1, 0, Time_signature, 4, 2, 24, 8
1, 0, Key_signature, 4, "major"
1, 0, Tempo, 500000
1, 0, Control_c, 0, 121, 0
1, 0, Program_c, 0, 0
1, 0, Control_c, 0, 7, 100
1, 0, Control_c, 0, 10, 64
1, 0, Control_c, 0, 91, 0
1, 0, Control_c, 0, 93, 0
1, 0, MIDI_port, 0
1, 1680, Note_on_c, 0, 63, 80
1, 1907, Note_on_c, 0, 63, 0
1, 1920, Note_on_c, 0, 64, 80
1, 2147, Note_on_c, 0, 64, 0
1, 2160, Note_on_c, 0, 64, 80
1, 2387, Note_on_c, 0, 64, 0
1, 2400, Note_on_c, 0, 63, 80
1, 2627, Note_on_c, 0, 63, 0
1, 2640, Note_on_c, 0, 64, 80
1, 3323, Note_on_c, 0, 64, 0
1, 3600, Note_on_c, 0, 64, 80
1, 4055, Note_on_c, 0, 64, 0
1, 4080, Note_on_c, 0, 64, 80
1, 4307, Note_on_c, 0, 64, 0
1, 4320, Note_on_c, 0, 63, 80
1, 4547, Note_on_c, 0, 63, 0
1, 4560, Note_on_c, 0, 64, 80
1, 4787, Note_on_c, 0, 64, 0
1, 5040, Note_on_c, 0, 63, 80
1, 5267, Note_on_c, 0, 63, 0
1, 5280, Note_on_c, 0, 61, 80
1, 5507, Note_on_c, 0, 61, 0
1, 5520, Note_on_c, 0, 61, 80
1, 5975, Note_on_c, 0, 61, 0
1, 6000, Note_on_c, 0, 59, 80
1, 7595, Note_on_c, 0, 59, 0
1, 9360, Note_on_c, 0, 61, 80
1, 9473, Note_on_c, 0, 61, 0
1, 9480, Note_on_c, 0, 63, 80
1, 9593, Note_on_c, 0, 63, 0
1, 9600, Note_on_c, 0, 64, 80
1, 9827, Note_on_c, 0, 64, 0
1, 9840, Note_on_c, 0, 64, 80
1, 10067, Note_on_c, 0, 64, 0
1, 10080, Note_on_c, 0, 63, 80
1, 10307, Note_on_c, 0, 63, 0
1, 10320, Note_on_c, 0, 64, 80
1, 11003, Note_on_c, 0, 64, 0
1, 11280, Note_on_c, 0, 61, 80
1, 11393, Note_on_c, 0, 61, 0
1, 11400, Note_on_c, 0, 63, 80
1, 11513, Note_on_c, 0, 63, 0
1, 11520, Note_on_c, 0, 64, 80
1, 11747, Note_on_c, 0, 64, 0
1, 11760, Note_on_c, 0, 64, 80
1, 11987, Note_on_c, 0, 64, 0
1, 12000, Note_on_c, 0, 64, 80
1, 12227, Note_on_c, 0, 64, 0
1, 12240, Note_on_c, 0, 66, 80
1, 12695, Note_on_c, 0, 66, 0
1, 12720, Note_on_c, 0, 64, 80
1, 13175, Note_on_c, 0, 64, 0
1, 13200, Note_on_c, 0, 68, 80
1, 15251, Note_on_c, 0, 68, 0
1, 17040, Note_on_c, 0, 63, 80
1, 17267, Note_on_c, 0, 63, 0
1, 17280, Note_on_c, 0, 64, 80
1, 17507, Note_on_c, 0, 64, 0
1, 17520, Note_on_c, 0, 64, 80
1, 17747, Note_on_c, 0, 64, 0
1, 17760, Note_on_c, 0, 64, 80
1, 17987, Note_on_c, 0, 64, 0
1, 18000, Note_on_c, 0, 63, 80
1, 18455, Note_on_c, 0, 63, 0
1, 18480, Note_on_c, 0, 64, 80
1, 18707, Note_on_c, 0, 64, 0
1, 18960, Note_on_c, 0, 61, 80
1, 19073, Note_on_c, 0, 61, 0
1, 19080, Note_on_c, 0, 63, 80
1, 19193, Note_on_c, 0, 63, 0
1, 19200, Note_on_c, 0, 64, 80
1, 19427, Note_on_c, 0, 64, 0
1, 19440, Note_on_c, 0, 64, 80
1, 19667, Note_on_c, 0, 64, 0
1, 19680, Note_on_c, 0, 63, 80
1, 19907, Note_on_c, 0, 63, 0
1, 19920, Note_on_c, 0, 64, 80
1, 20147, Note_on_c, 0, 64, 0
1, 20400, Note_on_c, 0, 66, 80
1, 20627, Note_on_c, 0, 66, 0
1, 20640, Note_on_c, 0, 64, 80
1, 20867, Note_on_c, 0, 64, 0
1, 20880, Note_on_c, 0, 63, 80
1, 21335, Note_on_c, 0, 63, 0
1, 21360, Note_on_c, 0, 61, 80
1, 21587, Note_on_c, 0, 61, 0
1, 21600, Note_on_c, 0, 59, 80
1, 22967, Note_on_c, 0, 59, 0
1, 24720, Note_on_c, 0, 61, 80
1, 24833, Note_on_c, 0, 61, 0
1, 24840, Note_on_c, 0, 63, 80
1, 24953, Note_on_c, 0, 63, 0
1, 24960, Note_on_c, 0, 64, 80
1, 25187, Note_on_c, 0, 64, 0
1, 25200, Note_on_c, 0, 64, 80
1, 25427, Note_on_c, 0, 64, 0
1, 25440, Note_on_c, 0, 63, 80
1, 25667, Note_on_c, 0, 63, 0
1, 25680, Note_on_c, 0, 64, 80
1, 26363, Note_on_c, 0, 64, 0
1, 26640, Note_on_c, 0, 64, 80
1, 26867, Note_on_c, 0, 64, 0
1, 26880, Note_on_c, 0, 69, 80
1, 27107, Note_on_c, 0, 69, 0
1, 27120, Note_on_c, 0, 68, 80
1, 27347, Note_on_c, 0, 68, 0
1, 27360, Note_on_c, 0, 66, 80
1, 27587, Note_on_c, 0, 66, 0
1, 27600, Note_on_c, 0, 64, 80
1, 28055, Note_on_c, 0, 64, 0
1, 28080, Note_on_c, 0, 68, 80
1, 28535, Note_on_c, 0, 68, 0
1, 28560, Note_on_c, 0, 66, 80
1, 31523, Note_on_c, 0, 66, 0
1, 32640, Note_on_c, 0, 61, 80
1, 33323, Note_on_c, 0, 61, 0
1, 33360, Note_on_c, 0, 61, 80
1, 33587, Note_on_c, 0, 61, 0
1, 33840, Note_on_c, 0, 63, 80
1, 34067, Note_on_c, 0, 63, 0
1, 34080, Note_on_c, 0, 64, 80
1, 34307, Note_on_c, 0, 64, 0
1, 34320, Note_on_c, 0, 64, 80
1, 34775, Note_on_c, 0, 64, 0
1, 34800, Note_on_c, 0, 63, 80
1, 35039, Note_on_c, 0, 63, 0
1, 35040, Note_on_c, 0, 61, 80
1, 35267, Note_on_c, 0, 61, 0
1, 35280, Note_on_c, 0, 61, 80
1, 35519, Note_on_c, 0, 61, 0
1, 35520, Note_on_c, 0, 59, 80
1, 35975, Note_on_c, 0, 59, 0
1, 36480, Note_on_c, 0, 68, 80
1, 36935, Note_on_c, 0, 68, 0
1, 36960, Note_on_c, 0, 68, 80
1, 37187, Note_on_c, 0, 68, 0
1, 37200, Note_on_c, 0, 66, 80
1, 37655, Note_on_c, 0, 66, 0
1, 37680, Note_on_c, 0, 63, 80
1, 38135, Note_on_c, 0, 63, 0
1, 38160, Note_on_c, 0, 64, 80
1, 39755, Note_on_c, 0, 64, 0
1, 40320, Note_on_c, 0, 69, 80
1, 40547, Note_on_c, 0, 69, 0
1, 40560, Note_on_c, 0, 68, 80
1, 40787, Note_on_c, 0, 68, 0
1, 40800, Note_on_c, 0, 66, 80
1, 41027, Note_on_c, 0, 66, 0
1, 41040, Note_on_c, 0, 64, 80
1, 41723, Note_on_c, 0, 64, 0
1, 42000, Note_on_c, 0, 69, 80
1, 42455, Note_on_c, 0, 69, 0
1, 42480, Note_on_c, 0, 68, 80
1, 42935, Note_on_c, 0, 68, 0
1, 42960, Note_on_c, 0, 66, 80
1, 43415, Note_on_c, 0, 66, 0
1, 43440, Note_on_c, 0, 64, 80
1, 43895, Note_on_c, 0, 64, 0
1, 43920, Note_on_c, 0, 68, 80
1, 44375, Note_on_c, 0, 68, 0
1, 44400, Note_on_c, 0, 66, 80
1, 45995, Note_on_c, 0, 66, 0
1, 47280, Note_on_c, 0, 64, 80
1, 47507, Note_on_c, 0, 64, 0
1, 47520, Note_on_c, 0, 64, 80
1, 47747, Note_on_c, 0, 64, 0
1, 47760, Note_on_c, 0, 71, 80
1, 48215, Note_on_c, 0, 71, 0
1, 48240, Note_on_c, 0, 71, 80
1, 48695, Note_on_c, 0, 71, 0
1, 48720, Note_on_c, 0, 71, 80
1, 48947, Note_on_c, 0, 71, 0
1, 49200, Note_on_c, 0, 64, 80
1, 49427, Note_on_c, 0, 64, 0
1, 49440, Note_on_c, 0, 64, 80
1, 49667, Note_on_c, 0, 64, 0
1, 49680, Note_on_c, 0, 71, 80
1, 50135, Note_on_c, 0, 71, 0
1, 50160, Note_on_c, 0, 71, 80
1, 50615, Note_on_c, 0, 71, 0
1, 50640, Note_on_c, 0, 71, 80
1, 50867, Note_on_c, 0, 71, 0
1, 51120, Note_on_c, 0, 68, 80
1, 51347, Note_on_c, 0, 68, 0
1, 51360, Note_on_c, 0, 69, 80
1, 51587, Note_on_c, 0, 69, 0
1, 51600, Note_on_c, 0, 71, 80
1, 52055, Note_on_c, 0, 71, 0
1, 52080, Note_on_c, 0, 71, 80
1, 52307, Note_on_c, 0, 71, 0
1, 52320, Note_on_c, 0, 71, 80
1, 52547, Note_on_c, 0, 71, 0
1, 52560, Note_on_c, 0, 71, 80
1, 52787, Note_on_c, 0, 71, 0
1, 53040, Note_on_c, 0, 69, 80
1, 53267, Note_on_c, 0, 69, 0
1, 53280, Note_on_c, 0, 68, 80
1, 53507, Note_on_c, 0, 68, 0
1, 53520, Note_on_c, 0, 68, 80
1, 53975, Note_on_c, 0, 68, 0
1, 54000, Note_on_c, 0, 69, 80
1, 54239, Note_on_c, 0, 69, 0
1, 54240, Note_on_c, 0, 66, 80
1, 54467, Note_on_c, 0, 66, 0
1, 54480, Note_on_c, 0, 66, 80
1, 54707, Note_on_c, 0, 66, 0
1, 54960, Note_on_c, 0, 64, 80
1, 55187, Note_on_c, 0, 64, 0
1, 55200, Note_on_c, 0, 66, 80
1, 55427, Note_on_c, 0, 66, 0
1, 55440, Note_on_c, 0, 69, 80
1, 55895, Note_on_c, 0, 69, 0
1, 55920, Note_on_c, 0, 68, 80
1, 56147, Note_on_c, 0, 68, 0
1, 56160, Note_on_c, 0, 66, 80
1, 56387, Note_on_c, 0, 66, 0
1, 56400, Note_on_c, 0, 64, 80
1, 56627, Note_on_c, 0, 64, 0
1, 56880, Note_on_c, 0, 64, 80
1, 57107, Note_on_c, 0, 64, 0
1, 57120, Note_on_c, 0, 66, 80
1, 57347, Note_on_c, 0, 66, 0
1, 57360, Note_on_c, 0, 68, 80
1, 58043, Note_on_c, 0, 68, 0
1, 58080, Note_on_c, 0, 68, 80
1, 58307, Note_on_c, 0, 68, 0
1, 58320, Note_on_c, 0, 66, 80
1, 59003, Note_on_c, 0, 66, 0
1, 59280, Note_on_c, 0, 63, 80
1, 59507, Note_on_c, 0, 63, 0
1, 59520, Note_on_c, 0, 64, 80
1, 59747, Note_on_c, 0, 64, 0
1, 59760, Note_on_c, 0, 64, 80
1, 60215, Note_on_c, 0, 64, 0
1, 60240, Note_on_c, 0, 64, 80
1, 60695, Note_on_c, 0, 64, 0
1, 60720, Note_on_c, 0, 66, 80
1, 60947, Note_on_c, 0, 66, 0
1, 60960, Note_on_c, 0, 68, 80
1, 61187, Note_on_c, 0, 68, 0
1, 61200, Note_on_c, 0, 68, 80
1, 61655, Note_on_c, 0, 68, 0
1, 61680, Note_on_c, 0, 69, 80
1, 61919, Note_on_c, 0, 69, 0
1, 61920, Note_on_c, 0, 66, 80
1, 62147, Note_on_c, 0, 66, 0
1, 62160, Note_on_c, 0, 66, 80
1, 62387, Note_on_c, 0, 66, 0
1, 62640, Note_on_c, 0, 64, 80
1, 62867, Note_on_c, 0, 64, 0
1, 62880, Note_on_c, 0, 64, 80
1, 63107, Note_on_c, 0, 64, 0
1, 63120, Note_on_c, 0, 71, 80
1, 63575, Note_on_c, 0, 71, 0
1, 63600, Note_on_c, 0, 71, 80
1, 64055, Note_on_c, 0, 71, 0
1, 64080, Note_on_c, 0, 71, 80
1, 64307, Note_on_c, 0, 71, 0
1, 64560, Note_on_c, 0, 64, 80
1, 64787, Note_on_c, 0, 64, 0
1, 64800, Note_on_c, 0, 64, 80
1, 65027, Note_on_c, 0, 64, 0
1, 65040, Note_on_c, 0, 71, 80
1, 65495, Note_on_c, 0, 71, 0
1, 65520, Note_on_c, 0, 73, 80
1, 65759, Note_on_c, 0, 73, 0
1, 65760, Note_on_c, 0, 71, 80
1, 65987, Note_on_c, 0, 71, 0
1, 66000, Note_on_c, 0, 71, 80
1, 66227, Note_on_c, 0, 71, 0
1, 66480, Note_on_c, 0, 68, 80
1, 66707, Note_on_c, 0, 68, 0
1, 66720, Note_on_c, 0, 69, 80
1, 66947, Note_on_c, 0, 69, 0
1, 66960, Note_on_c, 0, 71, 80
1, 67415, Note_on_c, 0, 71, 0
1, 67440, Note_on_c, 0, 71, 80
1, 67895, Note_on_c, 0, 71, 0
1, 67920, Note_on_c, 0, 71, 80
1, 68147, Note_on_c, 0, 71, 0
1, 68400, Note_on_c, 0, 69, 80
1, 68627, Note_on_c, 0, 69, 0
1, 68640, Note_on_c, 0, 68, 80
1, 68867, Note_on_c, 0, 68, 0
1, 68880, Note_on_c, 0, 68, 80
1, 69335, Note_on_c, 0, 68, 0
1, 69360, Note_on_c, 0, 71, 80
1, 69599, Note_on_c, 0, 71, 0
1, 69600, Note_on_c, 0, 69, 80
1, 69827, Note_on_c, 0, 69, 0
1, 69840, Note_on_c, 0, 69, 80
1, 70523, Note_on_c, 0, 69, 0
1, 70800, Note_on_c, 0, 64, 80
1, 70913, Note_on_c, 0, 64, 0
1, 70920, Note_on_c, 0, 66, 80
1, 71033, Note_on_c, 0, 66, 0
1, 71040, Note_on_c, 0, 69, 80
1, 71267, Note_on_c, 0, 69, 0
1, 71280, Note_on_c, 0, 68, 80
1, 71507, Note_on_c, 0, 68, 0
1, 71520, Note_on_c, 0, 66, 80
1, 71747, Note_on_c, 0, 66, 0
1, 71760, Note_on_c, 0, 64, 80
1, 72215, Note_on_c, 0, 64, 0
1, 72240, Note_on_c, 0, 59, 80
1, 72467, Note_on_c, 0, 59, 0
1, 72720, Note_on_c, 0, 61, 80
1, 73175, Note_on_c, 0, 61, 0
1, 73200, Note_on_c, 0, 68, 80
1, 73655, Note_on_c, 0, 68, 0
1, 73680, Note_on_c, 0, 66, 80
1, 74135, Note_on_c, 0, 66, 0
1, 74160, Note_on_c, 0, 64, 80
1, 74615, Note_on_c, 0, 64, 0
1, 74640, Note_on_c, 0, 64, 80
1, 78059, Note_on_c, 0, 64, 0
1, 78060, End_track
2, 0, Start_track
2, 0, Key_signature, 4, "major"
2, 0, Control_c, 1, 121, 0
2, 0, Program_c, 1, 0
2, 0, Control_c, 1, 7, 100
2, 0, Control_c, 1, 10, 64
2, 0, Control_c, 1, 91, 0
2, 0, Control_c, 1, 93, 0
2, 0, MIDI_port, 0
2, 1920, Note_on_c, 1, 57, 80
2, 1920, Note_on_c, 1, 59, 80
2, 1920, Note_on_c, 1, 61, 80
2, 1920, Note_on_c, 1, 64, 80
2, 3743, Note_on_c, 1, 57, 0
2, 3743, Note_on_c, 1, 59, 0
2, 3743, Note_on_c, 1, 61, 0
2, 3743, Note_on_c, 1, 64, 0
2, 3840, Note_on_c, 1, 56, 80
2, 3840, Note_on_c, 1, 59, 80
2, 3840, Note_on_c, 1, 64, 80
2, 4523, Note_on_c, 1, 56, 0
2, 4523, Note_on_c, 1, 59, 0
2, 4523, Note_on_c, 1, 64, 0
2, 4560, Note_on_c, 1, 57, 80
2, 4560, Note_on_c, 1, 59, 80
2, 4560, Note_on_c, 1, 61, 80
2, 4560, Note_on_c, 1, 64, 80
2, 5699, Note_on_c, 1, 57, 0
2, 5699, Note_on_c, 1, 59, 0
2, 5699, Note_on_c, 1, 61, 0
2, 5699, Note_on_c, 1, 64, 0
2, 5760, Note_on_c, 1, 54, 80
2, 5760, Note_on_c, 1, 56, 80
2, 5760, Note_on_c, 1, 59, 80
2, 7583, Note_on_c, 1, 54, 0
2, 7583, Note_on_c, 1, 56, 0
2, 7583, Note_on_c, 1, 59, 0
2, 7680, Note_on_c, 1, 51, 80
2, 7680, Note_on_c, 1, 54, 80
2, 7680, Note_on_c, 1, 59, 80
2, 8363, Note_on_c, 1, 51, 0
2, 8363, Note_on_c, 1, 54, 0
2, 8363, Note_on_c, 1, 59, 0
2, 8400, Note_on_c, 1, 52, 80
2, 8400, Note_on_c, 1, 56, 80
2, 8400, Note_on_c, 1, 59, 80
2, 9083, Note_on_c, 1, 52, 0
2, 9083, Note_on_c, 1, 56, 0
2, 9083, Note_on_c, 1, 59, 0
2, 9120, Note_on_c, 1, 54, 80
2, 9120, Note_on_c, 1, 59, 80
2, 9120, Note_on_c, 1, 63, 80
2, 9575, Note_on_c, 1, 54, 0
2, 9575, Note_on_c, 1, 59, 0
2, 9575, Note_on_c, 1, 63, 0
2, 9600, Note_on_c, 1, 57, 80
2, 9600, Note_on_c, 1, 59, 80
2, 9600, Note_on_c, 1, 61, 80
2, 9600, Note_on_c, 1, 64, 80
2, 11423, Note_on_c, 1, 57, 0
2, 11423, Note_on_c, 1, 59, 0
2, 11423, Note_on_c, 1, 61, 0
2, 11423, Note_on_c, 1, 64, 0
2, 11520, Note_on_c, 1, 56, 80
2, 11520, Note_on_c, 1, 59, 80
2, 11520, Note_on_c, 1, 64, 80
2, 12203, Note_on_c, 1, 56, 0
2, 12203, Note_on_c, 1, 59, 0
2, 12203, Note_on_c, 1, 64, 0
2, 12240, Note_on_c, 1, 57, 80
2, 12240, Note_on_c, 1, 59, 80
2, 12240, Note_on_c, 1, 61, 80
2, 12240, Note_on_c, 1, 64, 80
2, 13379, Note_on_c, 1, 57, 0
2, 13379, Note_on_c, 1, 59, 0
2, 13379, Note_on_c, 1, 61, 0
2, 13379, Note_on_c, 1, 64, 0
2, 13440, Note_on_c, 1, 54, 80
2, 13440, Note_on_c, 1, 56, 80
2, 13440, Note_on_c, 1, 59, 80
2, 15263, Note_on_c, 1, 54, 0
2, 15263, Note_on_c, 1, 56, 0
2, 15263, Note_on_c, 1, 59, 0
2, 15360, Note_on_c, 1, 51, 80
2, 15360, Note_on_c, 1, 54, 80
2, 15360, Note_on_c, 1, 59, 80
2, 16043, Note_on_c, 1, 51, 0
2, 16043, Note_on_c, 1, 54, 0
2, 16043, Note_on_c, 1, 59, 0
2, 16080, Note_on_c, 1, 52, 80
2, 16080, Note_on_c, 1, 56, 80
2, 16080, Note_on_c, 1, 59, 80
2, 16763, Note_on_c, 1, 52, 0
2, 16763, Note_on_c, 1, 56, 0
2, 16763, Note_on_c, 1, 59, 0
2, 16800, Note_on_c, 1, 54, 80
2, 16800, Note_on_c, 1, 59, 80
2, 16800, Note_on_c, 1, 63, 80
2, 17255, Note_on_c, 1, 54, 0
2, 17255, Note_on_c, 1, 59, 0
2, 17255, Note_on_c, 1, 63, 0
2, 17280, Note_on_c, 1, 57, 80
2, 17280, Note_on_c, 1, 59, 80
2, 17280, Note_on_c, 1, 61, 80
2, 17280, Note_on_c, 1, 64, 80
2, 19103, Note_on_c, 1, 57, 0
2, 19103, Note_on_c, 1, 59, 0
2, 19103, Note_on_c, 1, 61, 0
2, 19103, Note_on_c, 1, 64, 0
2, 19200, Note_on_c, 1, 56, 80
2, 19200, Note_on_c, 1, 59, 80
2, 19200, Note_on_c, 1, 64, 80
2, 19883, Note_on_c, 1, 56, 0
2, 19883, Note_on_c, 1, 59, 0
2, 19883, Note_on_c, 1, 64, 0
2, 19920, Note_on_c, 1, 57, 80
2, 19920, Note_on_c, 1, 59, 80
2, 19920, Note_on_c, 1, 61, 80
2, 19920, Note_on_c, 1, 64, 80
2, 21059, Note_on_c, 1, 57, 0
2, 21059, Note_on_c, 1, 59, 0
2, 21059, Note_on_c, 1, 61, 0
2, 21059, Note_on_c, 1, 64, 0
2, 21120, Note_on_c, 1, 54, 80
2, 21120, Note_on_c, 1, 56, 80
2, 21120, Note_on_c, 1, 59, 80
2, 22943, Note_on_c, 1, 54, 0
2, 22943, Note_on_c, 1, 56, 0
2, 22943, Note_on_c, 1, 59, 0
2, 23040, Note_on_c, 1, 51, 80
2, 23040, Note_on_c, 1, 54, 80
2, 23040, Note_on_c, 1, 59, 80
2, 23723, Note_on_c, 1, 51, 0
2, 23723, Note_on_c, 1, 54, 0
2, 23723, Note_on_c, 1, 59, 0
2, 23760, Note_on_c, 1, 52, 80
2, 23760, Note_on_c, 1, 56, 80
2, 23760, Note_on_c, 1, 59, 80
2, 24443, Note_on_c, 1, 52, 0
2, 24443, Note_on_c, 1, 56, 0
2, 24443, Note_on_c, 1, 59, 0
2, 24480, Note_on_c, 1, 54, 80
2, 24480, Note_on_c, 1, 59, 80
2, 24480, Note_on_c, 1, 63, 80
2, 24935, Note_on_c, 1, 54, 0
2, 24935, Note_on_c, 1, 59, 0
2, 24935, Note_on_c, 1, 63, 0
2, 24960, Note_on_c, 1, 57, 80
2, 24960, Note_on_c, 1, 59, 80
2, 24960, Note_on_c, 1, 61, 80
2, 24960, Note_on_c, 1, 64, 80
2, 26783, Note_on_c, 1, 57, 0
2, 26783, Note_on_c, 1, 59, 0
2, 26783, Note_on_c, 1, 61, 0
2, 26783, Note_on_c, 1, 64, 0
2, 26880, Note_on_c, 1, 54, 80
2, 26880, Note_on_c, 1, 59, 80
2, 26880, Note_on_c, 1, 63, 80
2, 27563, Note_on_c, 1, 54, 0
2, 27563, Note_on_c, 1, 59, 0
2, 27563, Note_on_c, 1, 63, 0
2, 27600, Note_on_c, 1, 52, 80
2, 27600, Note_on_c, 1, 57, 80
2, 27600, Note_on_c, 1, 59, 80
2, 27600, Note_on_c, 1, 61, 80
2, 28739, Note_on_c, 1, 52, 0
2, 28739, Note_on_c, 1, 57, 0
2, 28739, Note_on_c, 1, 59, 0
2, 28739, Note_on_c, 1, 61, 0
2, 28800, Note_on_c, 1, 57, 80
2, 28800, Note_on_c, 1, 59, 80
2, 28800, Note_on_c, 1, 61, 80
2, 28800, Note_on_c, 1, 64, 80
2, 29939, Note_on_c, 1, 57, 0
2, 29939, Note_on_c, 1, 59, 0
2, 29939, Note_on_c, 1, 61, 0
2, 29939, Note_on_c, 1, 64, 0
2, 30000, Note_on_c, 1, 57, 80
2, 30227, Note_on_c, 1, 57, 0
2, 30240, Note_on_c, 1, 61, 80
2, 30467, Note_on_c, 1, 61, 0
2, 30480, Note_on_c, 1, 64, 80
2, 30707, Note_on_c, 1, 64, 0
2, 30720, Note_on_c, 1, 54, 80
2, 30720, Note_on_c, 1, 61, 80
2, 30720, Note_on_c, 1, 63, 80
2, 31631, Note_on_c, 1, 54, 0
2, 31631, Note_on_c, 1, 61, 0
2, 31631, Note_on_c, 1, 63, 0
2, 31680, Note_on_c, 1, 54, 80
2, 31907, Note_on_c, 1, 54, 0
2, 31920, Note_on_c, 1, 59, 80
2, 32147, Note_on_c, 1, 59, 0
2, 32160, Note_on_c, 1, 64, 80
2, 32387, Note_on_c, 1, 64, 0
2, 32400, Note_on_c, 1, 63, 80
2, 32627, Note_on_c, 1, 63, 0
2, 32640, Note_on_c, 1, 64, 80
2, 32640, Note_on_c, 1, 71, 80
2, 32640, Note_on_c, 1, 73, 80
2, 33323, Note_on_c, 1, 64, 0
2, 33323, Note_on_c, 1, 71, 0
2, 33323, Note_on_c, 1, 73, 0
2, 33360, Note_on_c, 1, 64, 80
2, 33360, Note_on_c, 1, 69, 80
2, 34271, Note_on_c, 1, 64, 0
2, 34271, Note_on_c, 1, 69, 0
2, 34320, Note_on_c, 1, 75, 80
2, 34433, Note_on_c, 1, 75, 0
2, 34440, Note_on_c, 1, 76, 80
2, 34553, Note_on_c, 1, 76, 0
2, 34560, Note_on_c, 1, 71, 80
2, 34560, Note_on_c, 1, 73, 80
2, 34560, Note_on_c, 1, 78, 80
2, 35243, Note_on_c, 1, 71, 0
2, 35243, Note_on_c, 1, 73, 0
2, 35243, Note_on_c, 1, 78, 0
2, 35280, Note_on_c, 1, 66, 80
2, 35280, Note_on_c, 1, 71, 80
2, 36191, Note_on_c, 1, 66, 0
2, 36191, Note_on_c, 1, 71, 0
2, 36240, Note_on_c, 1, 76, 80
2, 36353, Note_on_c, 1, 76, 0
2, 36360, Note_on_c, 1, 78, 80
2, 36473, Note_on_c, 1, 78, 0
2, 36480, Note_on_c, 1, 76, 80
2, 36480, Note_on_c, 1, 80, 80
2, 36707, Note_on_c, 1, 76, 0
2, 36707, Note_on_c, 1, 80, 0
2, 36720, Note_on_c, 1, 81, 80
2, 36947, Note_on_c, 1, 81, 0
2, 36960, Note_on_c, 1, 83, 80
2, 37187, Note_on_c, 1, 83, 0
2, 37200, Note_on_c, 1, 76, 80
2, 37261, Note_on_c, 1, 76, 0
2, 37262, Note_on_c, 1, 78, 80
2, 37262, Note_on_c, 1, 83, 80
2, 37657, Note_on_c, 1, 78, 0
2, 37657, Note_on_c, 1, 83, 0
2, 37680, Note_on_c, 1, 75, 80
2, 38135, Note_on_c, 1, 75, 0
2, 38160, Note_on_c, 1, 69, 80
2, 38160, Note_on_c, 1, 76, 80
2, 39071, Note_on_c, 1, 69, 0
2, 39071, Note_on_c, 1, 76, 0
2, 39120, Note_on_c, 1, 64, 80
2, 39120, Note_on_c, 1, 71, 80
2, 40031, Note_on_c, 1, 64, 0
2, 40031, Note_on_c, 1, 71, 0
2, 40080, Note_on_c, 1, 78, 80
2, 40193, Note_on_c, 1, 78, 0
2, 40200, Note_on_c, 1, 80, 80
2, 40313, Note_on_c, 1, 80, 0
2, 40320, Note_on_c, 1, 74, 80
2, 40320, Note_on_c, 1, 76, 80
2, 40320, Note_on_c, 1, 81, 80
2, 41003, Note_on_c, 1, 74, 0
2, 41003, Note_on_c, 1, 76, 0
2, 41003, Note_on_c, 1, 81, 0
2, 41040, Note_on_c, 1, 62, 80
2, 41040, Note_on_c, 1, 64, 80
2, 41040, Note_on_c, 1, 69, 80
2, 42179, Note_on_c, 1, 62, 0
2, 42179, Note_on_c, 1, 64, 0
2, 42179, Note_on_c, 1, 69, 0
2, 42240, Note_on_c, 1, 57, 80
2, 42240, Note_on_c, 1, 59, 80
2, 42240, Note_on_c, 1, 64, 80
2, 42923, Note_on_c, 1, 57, 0
2, 42923, Note_on_c, 1, 59, 0
2, 42923, Note_on_c, 1, 64, 0
2, 42960, Note_on_c, 1, 69, 80
2, 42960, Note_on_c, 1, 71, 80
2, 42960, Note_on_c, 1, 76, 80
2, 44099, Note_on_c, 1, 69, 0
2, 44099, Note_on_c, 1, 71, 0
2, 44099, Note_on_c, 1, 76, 0
2, 44160, Note_on_c, 1, 57, 80
2, 44160, Note_on_c, 1, 61, 80
2, 44160, Note_on_c, 1, 64, 80
2, 45755, Note_on_c, 1, 57, 0
2, 45755, Note_on_c, 1, 61, 0
2, 45755, Note_on_c, 1, 64, 0
2, 45840, Note_on_c, 1, 57, 80
2, 45840, Note_on_c, 1, 61, 80
2, 45840, Note_on_c, 1, 64, 80
2, 46295, Note_on_c, 1, 57, 0
2, 46295, Note_on_c, 1, 61, 0
2, 46295, Note_on_c, 1, 64, 0
2, 46320, Note_on_c, 1, 57, 80
2, 46320, Note_on_c, 1, 61, 80
2, 46320, Note_on_c, 1, 64, 80
2, 46439, Note_on_c, 1, 57, 0
2, 46439, Note_on_c, 1, 61, 0
2, 46439, Note_on_c, 1, 64, 0
2, 46560, Note_on_c, 1, 57, 80
2, 46560, Note_on_c, 1, 61, 80
2, 46560, Note_on_c, 1, 64, 80
2, 47039, Note_on_c, 1, 57, 0
2, 47039, Note_on_c, 1, 61, 0
2, 47039, Note_on_c, 1, 64, 0
2, 47040, Note_on_c, 1, 59, 80
2, 47040, Note_on_c, 1, 64, 80
2, 47040, Note_on_c, 1, 66, 80
2, 47040, Note_on_c, 1, 71, 80
2, 47495, Note_on_c, 1, 59, 0
2, 47495, Note_on_c, 1, 64, 0
2, 47495, Note_on_c, 1, 66, 0
2, 47495, Note_on_c, 1, 71, 0
2, 47520, Note_on_c, 1, 59, 80
2, 47520, Note_on_c, 1, 64, 80
2, 47520, Note_on_c, 1, 66, 80
2, 47520, Note_on_c, 1, 71, 80
2, 47975, Note_on_c, 1, 59, 0
2, 47975, Note_on_c, 1, 64, 0
2, 47975, Note_on_c, 1, 66, 0
2, 47975, Note_on_c, 1, 71, 0
2, 48000, Note_on_c, 1, 64, 80
2, 48000, Note_on_c, 1, 66, 80
2, 48000, Note_on_c, 1, 71, 80
2, 48455, Note_on_c, 1, 64, 0
2, 48455, Note_on_c, 1, 66, 0
2, 48455, Note_on_c, 1, 71, 0
2, 48480, Note_on_c, 1, 64, 80
2, 48707, Note_on_c, 1, 64, 0
2, 48720, Note_on_c, 1, 64, 80
2, 48720, Note_on_c, 1, 66, 80
2, 48720, Note_on_c, 1, 71, 80
2, 49403, Note_on_c, 1, 64, 0
2, 49403, Note_on_c, 1, 66, 0
2, 49403, Note_on_c, 1, 71, 0
2, 49440, Note_on_c, 1, 64, 80
2, 49440, Note_on_c, 1, 66, 80
2, 49440, Note_on_c, 1, 71, 80
2, 49895, Note_on_c, 1, 64, 0
2, 49895, Note_on_c, 1, 66, 0
2, 49895, Note_on_c, 1, 71, 0
2, 49920, Note_on_c, 1, 64, 80
2, 49920, Note_on_c, 1, 66, 80
2, 49920, Note_on_c, 1, 71, 80
2, 50375, Note_on_c, 1, 64, 0
2, 50375, Note_on_c, 1, 66, 0
2, 50375, Note_on_c, 1, 71, 0
2, 50400, Note_on_c, 1, 64, 80
2, 50627, Note_on_c, 1, 64, 0
2, 50640, Note_on_c, 1, 64, 80
2, 50640, Note_on_c, 1, 66, 80
2, 50640, Note_on_c, 1, 71, 80
2, 51323, Note_on_c, 1, 64, 0
2, 51323, Note_on_c, 1, 66, 0
2, 51323, Note_on_c, 1, 71, 0
2, 51360, Note_on_c, 1, 64, 80
2, 51360, Note_on_c, 1, 66, 80
2, 51360, Note_on_c, 1, 71, 80
2, 51815, Note_on_c, 1, 64, 0
2, 51815, Note_on_c, 1, 66, 0
2, 51815, Note_on_c, 1, 71, 0
2, 51840, Note_on_c, 1, 61, 80
2, 51840, Note_on_c, 1, 64, 80
2, 51840, Note_on_c, 1, 68, 80
2, 51840, Note_on_c, 1, 71, 80
2, 52295, Note_on_c, 1, 61, 0
2, 52295, Note_on_c, 1, 64, 0
2, 52295, Note_on_c, 1, 68, 0
2, 52295, Note_on_c, 1, 71, 0
2, 52320, Note_on_c, 1, 61, 80
2, 52547, Note_on_c, 1, 61, 0
2, 52560, Note_on_c, 1, 61, 80
2, 52560, Note_on_c, 1, 64, 80
2, 52560, Note_on_c, 1, 71, 80
2, 53243, Note_on_c, 1, 61, 0
2, 53243, Note_on_c, 1, 64, 0
2, 53243, Note_on_c, 1, 71, 0
2, 53280, Note_on_c, 1, 61, 80
2, 53280, Note_on_c, 1, 64, 80
2, 53280, Note_on_c, 1, 69, 80
2, 53735, Note_on_c, 1, 61, 0
2, 53735, Note_on_c, 1, 64, 0
2, 53735, Note_on_c, 1, 69, 0
2, 53760, Note_on_c, 1, 57, 80
2, 53760, Note_on_c, 1, 60, 80
2, 53760, Note_on_c, 1, 64, 80
2, 54215, Note_on_c, 1, 57, 0
2, 54215, Note_on_c, 1, 60, 0
2, 54215, Note_on_c, 1, 64, 0
2, 54240, Note_on_c, 1, 60, 80
2, 54467, Note_on_c, 1, 60, 0
2, 54480, Note_on_c, 1, 60, 80
2, 54480, Note_on_c, 1, 64, 80
2, 54480, Note_on_c, 1, 69, 80
2, 55163, Note_on_c, 1, 60, 0
2, 55163, Note_on_c, 1, 64, 0
2, 55163, Note_on_c, 1, 69, 0
2, 55200, Note_on_c, 1, 57, 80
2, 55200, Note_on_c, 1, 60, 80
2, 55200, Note_on_c, 1, 66, 80
2, 55655, Note_on_c, 1, 57, 0
2, 55655, Note_on_c, 1, 60, 0
2, 55655, Note_on_c, 1, 66, 0
2, 55680, Note_on_c, 1, 56, 80
2, 55680, Note_on_c, 1, 59, 80
2, 55680, Note_on_c, 1, 64, 80
2, 56135, Note_on_c, 1, 56, 0
2, 56135, Note_on_c, 1, 59, 0
2, 56135, Note_on_c, 1, 64, 0
2, 56160, Note_on_c, 1, 59, 80
2, 56387, Note_on_c, 1, 59, 0
2, 56400, Note_on_c, 1, 59, 80
2, 56400, Note_on_c, 1, 64, 80
2, 56400, Note_on_c, 1, 71, 80
2, 57083, Note_on_c, 1, 59, 0
2, 57083, Note_on_c, 1, 64, 0
2, 57083, Note_on_c, 1, 71, 0
2, 57120, Note_on_c, 1, 59, 80
2, 57120, Note_on_c, 1, 64, 80
2, 57120, Note_on_c, 1, 71, 80
2, 57575, Note_on_c, 1, 59, 0
2, 57575, Note_on_c, 1, 64, 0
2, 57575, Note_on_c, 1, 71, 0
2, 57600, Note_on_c, 1, 63, 80
2, 57600, Note_on_c, 1, 68, 80
2, 57600, Note_on_c, 1, 75, 80
2, 58055, Note_on_c, 1, 63, 0
2, 58055, Note_on_c, 1, 68, 0
2, 58055, Note_on_c, 1, 75, 0
2, 58080, Note_on_c, 1, 63, 80
2, 58307, Note_on_c, 1, 63, 0
2, 58320, Note_on_c, 1, 61, 80
2, 58320, Note_on_c, 1, 66, 80
2, 58320, Note_on_c, 1, 73, 80
2, 59003, Note_on_c, 1, 61, 0
2, 59003, Note_on_c, 1, 66, 0
2, 59003, Note_on_c, 1, 73, 0
2, 59040, Note_on_c, 1, 61, 80
2, 59040, Note_on_c, 1, 66, 80
2, 59040, Note_on_c, 1, 73, 80
2, 59495, Note_on_c, 1, 61, 0
2, 59495, Note_on_c, 1, 66, 0
2, 59495, Note_on_c, 1, 73, 0
2, 59520, Note_on_c, 1, 61, 80
2, 59520, Note_on_c, 1, 64, 80
2, 59520, Note_on_c, 1, 71, 80
2, 59975, Note_on_c, 1, 61, 0
2, 59975, Note_on_c, 1, 64, 0
2, 59975, Note_on_c, 1, 71, 0
2, 60000, Note_on_c, 1, 61, 80
2, 60227, Note_on_c, 1, 61, 0
2, 60240, Note_on_c, 1, 61, 80
2, 60240, Note_on_c, 1, 64, 80
2, 60240, Note_on_c, 1, 71, 80
2, 60923, Note_on_c, 1, 61, 0
2, 60923, Note_on_c, 1, 64, 0
2, 60923, Note_on_c, 1, 71, 0
2, 60960, Note_on_c, 1, 61, 80
2, 60960, Note_on_c, 1, 64, 80
2, 60960, Note_on_c, 1, 69, 80
2, 61415, Note_on_c, 1, 61, 0
2, 61415, Note_on_c, 1, 64, 0
2, 61415, Note_on_c, 1, 69, 0
2, 61440, Note_on_c, 1, 57, 80
2, 61440, Note_on_c, 1, 61, 80
2, 61440, Note_on_c, 1, 64, 80
2, 61895, Note_on_c, 1, 57, 0
2, 61895, Note_on_c, 1, 61, 0
2, 61895, Note_on_c, 1, 64, 0
2, 61920, Note_on_c, 1, 71, 80
2, 62147, Note_on_c, 1, 71, 0
2, 62160, Note_on_c, 1, 71, 80
2, 62160, Note_on_c, 1, 76, 80
2, 62160, Note_on_c, 1, 78, 80
2, 62160, Note_on_c, 1, 83, 80
2, 62843, Note_on_c, 1, 71, 0
2, 62843, Note_on_c, 1, 76, 0
2, 62843, Note_on_c, 1, 78, 0
2, 62843, Note_on_c, 1, 83, 0
2, 62880, Note_on_c, 1, 59, 80
2, 62880, Note_on_c, 1, 64, 80
2, 62880, Note_on_c, 1, 66, 80
2, 62880, Note_on_c, 1, 71, 80
2, 63335, Note_on_c, 1, 59, 0
2, 63335, Note_on_c, 1, 64, 0
2, 63335, Note_on_c, 1, 66, 0
2, 63335, Note_on_c, 1, 71, 0
2, 63360, Note_on_c, 1, 59, 80
2, 63360, Note_on_c, 1, 64, 80
2, 63360, Note_on_c, 1, 68, 80
2, 63815, Note_on_c, 1, 59, 0
2, 63815, Note_on_c, 1, 64, 0
2, 63815, Note_on_c, 1, 68, 0
2, 63840, Note_on_c, 1, 59, 80
2, 64067, Note_on_c, 1, 59, 0
2, 64080, Note_on_c, 1, 59, 80
2, 64080, Note_on_c, 1, 64, 80
2, 64080, Note_on_c, 1, 68, 80
2, 64763, Note_on_c, 1, 59, 0
2, 64763, Note_on_c, 1, 64, 0
2, 64763, Note_on_c, 1, 68, 0
2, 64800, Note_on_c, 1, 59, 80
2, 64800, Note_on_c, 1, 64, 80
2, 64800, Note_on_c, 1, 68, 80
2, 65255, Note_on_c, 1, 59, 0
2, 65255, Note_on_c, 1, 64, 0
2, 65255, Note_on_c, 1, 68, 0
2, 65280, Note_on_c, 1, 64, 80
2, 65280, Note_on_c, 1, 66, 80
2, 65280, Note_on_c, 1, 71, 80
2, 65735, Note_on_c, 1, 64, 0
2, 65735, Note_on_c, 1, 66, 0
2, 65735, Note_on_c, 1, 71, 0
2, 65760, Note_on_c, 1, 64, 80
2, 65987, Note_on_c, 1, 64, 0
2, 66000, Note_on_c, 1, 64, 80
2, 66000, Note_on_c, 1, 66, 80
2, 66000, Note_on_c, 1, 71, 80
2, 66683, Note_on_c, 1, 64, 0
2, 66683, Note_on_c, 1, 66, 0
2, 66683, Note_on_c, 1, 71, 0
2, 66720, Note_on_c, 1, 64, 80
2, 66720, Note_on_c, 1, 66, 80
2, 66720, Note_on_c, 1, 71, 80
2, 67175, Note_on_c, 1, 64, 0
2, 67175, Note_on_c, 1, 66, 0
2, 67175, Note_on_c, 1, 71, 0
2, 67200, Note_on_c, 1, 61, 80
2, 67200, Note_on_c, 1, 64, 80
2, 67200, Note_on_c, 1, 68, 80
2, 67200, Note_on_c, 1, 71, 80
2, 67655, Note_on_c, 1, 61, 0
2, 67655, Note_on_c, 1, 64, 0
2, 67655, Note_on_c, 1, 68, 0
2, 67655, Note_on_c, 1, 71, 0
2, 67680, Note_on_c, 1, 69, 80
2, 67907, Note_on_c, 1, 69, 0
2, 67920, Note_on_c, 1, 69, 80
2, 67920, Note_on_c, 1, 71, 80
2, 67920, Note_on_c, 1, 76, 80
2, 68603, Note_on_c, 1, 69, 0
2, 68603, Note_on_c, 1, 71, 0
2, 68603, Note_on_c, 1, 76, 0
2, 68640, Note_on_c, 1, 61, 80
2, 68640, Note_on_c, 1, 64, 80
2, 68640, Note_on_c, 1, 71, 80
2, 69095, Note_on_c, 1, 61, 0
2, 69095, Note_on_c, 1, 64, 0
2, 69095, Note_on_c, 1, 71, 0
2, 69120, Note_on_c, 1, 60, 80
2, 69120, Note_on_c, 1, 64, 80
2, 69120, Note_on_c, 1, 71, 80
2, 69803, Note_on_c, 1, 60, 0
2, 69803, Note_on_c, 1, 64, 0
2, 69803, Note_on_c, 1, 71, 0
2, 69840, Note_on_c, 1, 76, 80
2, 69840, Note_on_c, 1, 83, 80
2, 70181, Note_on_c, 1, 76, 0
2, 70181, Note_on_c, 1, 83, 0
2, 70200, Note_on_c, 1, 72, 80
2, 70200, Note_on_c, 1, 81, 80
2, 70541, Note_on_c, 1, 72, 0
2, 70541, Note_on_c, 1, 81, 0
2, 70560, Note_on_c, 1, 69, 80
2, 70560, Note_on_c, 1, 76, 80
2, 70787, Note_on_c, 1, 69, 0
2, 70787, Note_on_c, 1, 76, 0
2, 70800, Note_on_c, 1, 72, 80
2, 71027, Note_on_c, 1, 72, 0
2, 71040, Note_on_c, 1, 64, 80
2, 71040, Note_on_c, 1, 68, 80
2, 71040, Note_on_c, 1, 71, 80
2, 71495, Note_on_c, 1, 64, 0
2, 71495, Note_on_c, 1, 68, 0
2, 71495, Note_on_c, 1, 71, 0
2, 71520, Note_on_c, 1, 59, 80
2, 71747, Note_on_c, 1, 59, 0
2, 71760, Note_on_c, 1, 54, 80
2, 71760, Note_on_c, 1, 59, 80
2, 71760, Note_on_c, 1, 63, 80
2, 72443, Note_on_c, 1, 54, 0
2, 72443, Note_on_c, 1, 59, 0
2, 72443, Note_on_c, 1, 63, 0
2, 72480, Note_on_c, 1, 56, 80
2, 72480, Note_on_c, 1, 59, 80
2, 72480, Note_on_c, 1, 64, 80
2, 72935, Note_on_c, 1, 56, 0
2, 72935, Note_on_c, 1, 59, 0
2, 72935, Note_on_c, 1, 64, 0
2, 72960, Note_on_c, 1, 57, 80
2, 72960, Note_on_c, 1, 61, 80
2, 72960, Note_on_c, 1, 64, 80
2, 73415, Note_on_c, 1, 57, 0
2, 73415, Note_on_c, 1, 61, 0
2, 73415, Note_on_c, 1, 64, 0
2, 73440, Note_on_c, 1, 57, 80
2, 73667, Note_on_c, 1, 57, 0
2, 73680, Note_on_c, 1, 57, 80
2, 73680, Note_on_c, 1, 61, 80
2, 73680, Note_on_c, 1, 64, 80
2, 74363, Note_on_c, 1, 57, 0
2, 74363, Note_on_c, 1, 61, 0
2, 74363, Note_on_c, 1, 64, 0
2, 74400, Note_on_c, 1, 57, 80
2, 74400, Note_on_c, 1, 61, 80
2, 74400, Note_on_c, 1, 64, 80
2, 74855, Note_on_c, 1, 57, 0
2, 74855, Note_on_c, 1, 61, 0
2, 74855, Note_on_c, 1, 64, 0
2, 74880, Note_on_c, 1, 57, 80
2, 74880, Note_on_c, 1, 59, 80
2, 74880, Note_on_c, 1, 64, 80
2, 75335, Note_on_c, 1, 57, 0
2, 75335, Note_on_c, 1, 59, 0
2, 75335, Note_on_c, 1, 64, 0
2, 75360, Note_on_c, 1, 57, 80
2, 75587, Note_on_c, 1, 57, 0
2, 75600, Note_on_c, 1, 57, 80
2, 75600, Note_on_c, 1, 59, 80
2, 75600, Note_on_c, 1, 64, 80
2, 76283, Note_on_c, 1, 57, 0
2, 76283, Note_on_c, 1, 59, 0
2, 76283, Note_on_c, 1, 64, 0
2, 76320, Note_on_c, 1, 57, 80
2, 76320, Note_on_c, 1, 59, 80
2, 76320, Note_on_c, 1, 64, 80
2, 76775, Note_on_c, 1, 57, 0
2, 76775, Note_on_c, 1, 59, 0
2, 76775, Note_on_c, 1, 64, 0
2, 76800, Note_on_c, 1, 56, 80
2, 76800, Note_on_c, 1, 59, 80
2, 76800, Note_on_c, 1, 64, 80
2, 78623, Note_on_c, 1, 56, 0
2, 78623, Note_on_c, 1, 59, 0
2, 78623, Note_on_c, 1, 64, 0
2, 78624, End_track
3, 0, Start_track
3, 0, Key_signature, 4, "major"
3, 0, MIDI_port, 0
3, 1920, Note_on_c, 1, 33, 80
3, 1920, Note_on_c, 1, 45, 80
3, 2375, Note_on_c, 1, 33, 0
3, 2375, Note_on_c, 1, 45, 0
3, 2400, Note_on_c, 1, 45, 80
3, 2855, Note_on_c, 1, 45, 0
3, 2880, Note_on_c, 1, 45, 80
3, 3335, Note_on_c, 1, 45, 0
3, 3360, Note_on_c, 1, 45, 80
3, 3815, Note_on_c, 1, 45, 0
3, 3840, Note_on_c, 1, 45, 80
3, 4295, Note_on_c, 1, 45, 0
3, 4320, Note_on_c, 1, 45, 80
3, 4775, Note_on_c, 1, 45, 0
3, 4800, Note_on_c, 1, 45, 80
3, 5255, Note_on_c, 1, 45, 0
3, 5280, Note_on_c, 1, 45, 80
3, 5735, Note_on_c, 1, 45, 0
3, 5760, Note_on_c, 1, 28, 80
3, 5760, Note_on_c, 1, 40, 80
3, 6215, Note_on_c, 1, 28, 0
3, 6215, Note_on_c, 1, 40, 0
3, 6240, Note_on_c, 1, 40, 80
3, 6695, Note_on_c, 1, 40, 0
3, 6720, Note_on_c, 1, 40, 80
3, 7175, Note_on_c, 1, 40, 0
3, 7200, Note_on_c, 1, 40, 80
3, 7655, Note_on_c, 1, 40, 0
3, 7680, Note_on_c, 1, 40, 80
3, 8135, Note_on_c, 1, 40, 0
3, 8160, Note_on_c, 1, 40, 80
3, 8615, Note_on_c, 1, 40, 0
3, 8640, Note_on_c, 1, 40, 80
3, 9095, Note_on_c, 1, 40, 0
3, 9120, Note_on_c, 1, 40, 80
3, 9575, Note_on_c, 1, 40, 0
3, 9600, Note_on_c, 1, 33, 80
3, 9600, Note_on_c, 1, 45, 80
3, 10055, Note_on_c, 1, 33, 0
3, 10055, Note_on_c, 1, 45, 0
3, 10080, Note_on_c, 1, 45, 80
3, 10535, Note_on_c, 1, 45, 0
3, 10560, Note_on_c, 1, 45, 80
3, 11015, Note_on_c, 1, 45, 0
3, 11040, Note_on_c, 1, 45, 80
3, 11495, Note_on_c, 1, 45, 0
3, 11520, Note_on_c, 1, 45, 80
3, 11975, Note_on_c, 1, 45, 0
3, 12000, Note_on_c, 1, 45, 80
3, 12455, Note_on_c, 1, 45, 0
3, 12480, Note_on_c, 1, 45, 80
3, 12935, Note_on_c, 1, 45, 0
3, 12960, Note_on_c, 1, 45, 80
3, 13415, Note_on_c, 1, 45, 0
3, 13440, Note_on_c, 1, 28, 80
3, 13440, Note_on_c, 1, 40, 80
3, 13895, Note_on_c, 1, 28, 0
3, 13895, Note_on_c, 1, 40, 0
3, 13920, Note_on_c, 1, 40, 80
3, 14375, Note_on_c, 1, 40, 0
3, 14400, Note_on_c, 1, 40, 80
3, 14855, Note_on_c, 1, 40, 0
3, 14880, Note_on_c, 1, 40, 80
3, 15335, Note_on_c, 1, 40, 0
3, 15360, Note_on_c, 1, 40, 80
3, 15815, Note_on_c, 1, 40, 0
3, 15840, Note_on_c, 1, 40, 80
3, 16295, Note_on_c, 1, 40, 0
3, 16320, Note_on_c, 1, 40, 80
3, 16775, Note_on_c, 1, 40, 0
3, 16800, Note_on_c, 1, 40, 80
3, 17255, Note_on_c, 1, 40, 0
3, 17280, Note_on_c, 1, 33, 80
3, 17280, Note_on_c, 1, 45, 80
3, 17735, Note_on_c, 1, 33, 0
3, 17735, Note_on_c, 1, 45, 0
3, 17760, Note_on_c, 1, 45, 80
3, 18215, Note_on_c, 1, 45, 0
3, 18240, Note_on_c, 1, 45, 80
3, 18695, Note_on_c, 1, 45, 0
3, 18720, Note_on_c, 1, 45, 80
3, 19175, Note_on_c, 1, 45, 0
3, 19200, Note_on_c, 1, 45, 80
3, 19655, Note_on_c, 1, 45, 0
3, 19680, Note_on_c, 1, 45, 80
3, 20135, Note_on_c, 1, 45, 0
3, 20160, Note_on_c, 1, 45, 80
3, 20615, Note_on_c, 1, 45, 0
3, 20640, Note_on_c, 1, 45, 80
3, 21095, Note_on_c, 1, 45, 0
3, 21120, Note_on_c, 1, 28, 80
3, 21120, Note_on_c, 1, 40, 80
3, 21575, Note_on_c, 1, 28, 0
3, 21575, Note_on_c, 1, 40, 0
3, 21600, Note_on_c, 1, 40, 80
3, 22055, Note_on_c, 1, 40, 0
3, 22080, Note_on_c, 1, 40, 80
3, 22535, Note_on_c, 1, 40, 0
3, 22560, Note_on_c, 1, 40, 80
3, 23015, Note_on_c, 1, 40, 0
3, 23040, Note_on_c, 1, 40, 80
3, 23495, Note_on_c, 1, 40, 0
3, 23520, Note_on_c, 1, 40, 80
3, 23975, Note_on_c, 1, 40, 0
3, 24000, Note_on_c, 1, 40, 80
3, 24455, Note_on_c, 1, 40, 0
3, 24480, Note_on_c, 1, 40, 80
3, 24935, Note_on_c, 1, 40, 0
3, 24960, Note_on_c, 1, 33, 80
3, 24960, Note_on_c, 1, 45, 80
3, 25415, Note_on_c, 1, 33, 0
3, 25415, Note_on_c, 1, 45, 0
3, 25440, Note_on_c, 1, 45, 80
3, 25895, Note_on_c, 1, 45, 0
3, 25920, Note_on_c, 1, 45, 80
3, 26375, Note_on_c, 1, 45, 0
3, 26400, Note_on_c, 1, 45, 80
3, 26855, Note_on_c, 1, 45, 0
3, 26880, Note_on_c, 1, 45, 80
3, 27335, Note_on_c, 1, 45, 0
3, 27360, Note_on_c, 1, 45, 80
3, 27815, Note_on_c, 1, 45, 0
3, 27840, Note_on_c, 1, 45, 80
3, 28295, Note_on_c, 1, 45, 0
3, 28320, Note_on_c, 1, 45, 80
3, 28775, Note_on_c, 1, 45, 0
3, 28800, Note_on_c, 1, 35, 80
3, 28800, Note_on_c, 1, 47, 80
3, 29255, Note_on_c, 1, 35, 0
3, 29255, Note_on_c, 1, 47, 0
3, 29280, Note_on_c, 1, 47, 80
3, 29735, Note_on_c, 1, 47, 0
3, 29760, Note_on_c, 1, 47, 80
3, 30215, Note_on_c, 1, 47, 0
3, 30240, Note_on_c, 1, 47, 80
3, 30695, Note_on_c, 1, 47, 0
3, 30720, Note_on_c, 1, 35, 80
3, 30720, Note_on_c, 1, 47, 80
3, 32543, Note_on_c, 1, 35, 0
3, 32543, Note_on_c, 1, 47, 0
3, 32640, Note_on_c, 1, 49, 80
3, 32867, Note_on_c, 1, 49, 0
3, 32880, Note_on_c, 1, 57, 80
3, 33107, Note_on_c, 1, 57, 0
3, 33120, Note_on_c, 1, 61, 80
3, 34487, Note_on_c, 1, 61, 0
3, 34560, Note_on_c, 1, 51, 80
3, 34787, Note_on_c, 1, 51, 0
3, 34800, Note_on_c, 1, 59, 80
3, 35027, Note_on_c, 1, 59, 0
3, 35040, Note_on_c, 1, 63, 80
3, 36407, Note_on_c, 1, 63, 0
3, 36480, Note_on_c, 1, 52, 80
3, 36480, Note_on_c, 1, 59, 80
3, 36480, Note_on_c, 1, 64, 80
3, 37163, Note_on_c, 1, 52, 0
3, 37163, Note_on_c, 1, 59, 0
3, 37163, Note_on_c, 1, 64, 0
3, 37200, Note_on_c, 1, 56, 80
3, 37200, Note_on_c, 1, 64, 80
3, 38339, Note_on_c, 1, 56, 0
3, 38339, Note_on_c, 1, 64, 0
3, 38400, Note_on_c, 1, 45, 80
3, 38627, Note_on_c, 1, 45, 0
3, 38640, Note_on_c, 1, 52, 80
3, 38867, Note_on_c, 1, 52, 0
3, 38880, Note_on_c, 1, 59, 80
3, 39107, Note_on_c, 1, 59, 0
3, 39120, Note_on_c, 1, 61, 80
3, 40259, Note_on_c, 1, 61, 0
3, 40320, Note_on_c, 1, 38, 80
3, 40547, Note_on_c, 1, 38, 0
3, 40560, Note_on_c, 1, 45, 80
3, 40787, Note_on_c, 1, 45, 0
3, 40800, Note_on_c, 1, 52, 80
3, 41027, Note_on_c, 1, 52, 0
3, 41040, Note_on_c, 1, 54, 80
3, 42179, Note_on_c, 1, 54, 0
3, 42240, Note_on_c, 1, 37, 80
3, 42467, Note_on_c, 1, 37, 0
3, 42480, Note_on_c, 1, 45, 80
3, 42707, Note_on_c, 1, 45, 0
3, 42720, Note_on_c, 1, 52, 80
3, 44087, Note_on_c, 1, 52, 0
3, 44160, Note_on_c, 1, 35, 80
3, 44160, Note_on_c, 1, 47, 80
3, 44615, Note_on_c, 1, 35, 0
3, 44615, Note_on_c, 1, 47, 0
3, 44640, Note_on_c, 1, 35, 80
3, 45095, Note_on_c, 1, 35, 0
3, 45120, Note_on_c, 1, 35, 80
3, 45575, Note_on_c, 1, 35, 0
3, 45600, Note_on_c, 1, 35, 80
3, 45827, Note_on_c, 1, 35, 0
3, 45840, Note_on_c, 1, 35, 80
3, 45840, Note_on_c, 1, 47, 80
3, 46295, Note_on_c, 1, 35, 0
3, 46295, Note_on_c, 1, 47, 0
3, 46320, Note_on_c, 1, 35, 80
3, 46320, Note_on_c, 1, 47, 80
3, 46439, Note_on_c, 1, 35, 0
3, 46439, Note_on_c, 1, 47, 0
3, 46560, Note_on_c, 1, 35, 80
3, 46560, Note_on_c, 1, 47, 80
3, 47723, Note_on_c, 1, 35, 0
3, 47723, Note_on_c, 1, 47, 0
3, 47760, Note_on_c, 1, 35, 80
3, 47987, Note_on_c, 1, 35, 0
3, 48000, Note_on_c, 1, 28, 80
3, 48683, Note_on_c, 1, 28, 0
3, 48720, Note_on_c, 1, 28, 80
3, 49175, Note_on_c, 1, 28, 0
3, 49200, Note_on_c, 1, 28, 80
3, 49655, Note_on_c, 1, 28, 0
3, 49680, Note_on_c, 1, 30, 80
3, 49907, Note_on_c, 1, 30, 0
3, 49920, Note_on_c, 1, 32, 80
3, 50603, Note_on_c, 1, 32, 0
3, 50640, Note_on_c, 1, 32, 80
3, 51095, Note_on_c, 1, 32, 0
3, 51120, Note_on_c, 1, 32, 80
3, 51575, Note_on_c, 1, 32, 0
3, 51600, Note_on_c, 1, 32, 80
3, 51827, Note_on_c, 1, 32, 0
3, 51840, Note_on_c, 1, 33, 80
3, 52523, Note_on_c, 1, 33, 0
3, 52560, Note_on_c, 1, 33, 80
3, 53015, Note_on_c, 1, 33, 0
3, 53040, Note_on_c, 1, 33, 80
3, 53495, Note_on_c, 1, 33, 0
3, 53520, Note_on_c, 1, 33, 80
3, 53747, Note_on_c, 1, 33, 0
3, 53760, Note_on_c, 1, 33, 80
3, 54443, Note_on_c, 1, 33, 0
3, 54480, Note_on_c, 1, 33, 80
3, 54935, Note_on_c, 1, 33, 0
3, 54960, Note_on_c, 1, 33, 80
3, 55415, Note_on_c, 1, 33, 0
3, 55440, Note_on_c, 1, 33, 80
3, 55667, Note_on_c, 1, 33, 0
3, 55680, Note_on_c, 1, 35, 80
3, 56363, Note_on_c, 1, 35, 0
3, 56400, Note_on_c, 1, 35, 80
3, 56855, Note_on_c, 1, 35, 0
3, 56880, Note_on_c, 1, 35, 80
3, 57335, Note_on_c, 1, 35, 0
3, 57360, Note_on_c, 1, 35, 80
3, 57587, Note_on_c, 1, 35, 0
3, 57600, Note_on_c, 1, 34, 80
3, 58283, Note_on_c, 1, 34, 0
3, 58320, Note_on_c, 1, 34, 80
3, 58775, Note_on_c, 1, 34, 0
3, 58800, Note_on_c, 1, 34, 80
3, 59255, Note_on_c, 1, 34, 0
3, 59280, Note_on_c, 1, 34, 80
3, 59507, Note_on_c, 1, 34, 0
3, 59520, Note_on_c, 1, 30, 80
3, 60203, Note_on_c, 1, 30, 0
3, 60240, Note_on_c, 1, 30, 80
3, 60695, Note_on_c, 1, 30, 0
3, 60720, Note_on_c, 1, 30, 80
3, 61175, Note_on_c, 1, 30, 0
3, 61200, Note_on_c, 1, 33, 80
3, 61427, Note_on_c, 1, 33, 0
3, 61440, Note_on_c, 1, 35, 80
3, 61667, Note_on_c, 1, 35, 0
3, 61680, Note_on_c, 1, 35, 80
3, 61907, Note_on_c, 1, 35, 0
3, 61920, Note_on_c, 1, 35, 80
3, 62147, Note_on_c, 1, 35, 0
3, 62160, Note_on_c, 1, 35, 80
3, 62387, Note_on_c, 1, 35, 0
3, 62400, Note_on_c, 1, 35, 80
3, 62627, Note_on_c, 1, 35, 0
3, 62640, Note_on_c, 1, 35, 80
3, 62867, Note_on_c, 1, 35, 0
3, 62880, Note_on_c, 1, 35, 80
3, 63107, Note_on_c, 1, 35, 0
3, 63120, Note_on_c, 1, 35, 80
3, 63347, Note_on_c, 1, 35, 0
3, 63360, Note_on_c, 1, 28, 80
3, 64043, Note_on_c, 1, 28, 0
3, 64080, Note_on_c, 1, 28, 80
3, 64535, Note_on_c, 1, 28, 0
3, 64560, Note_on_c, 1, 28, 80
3, 65015, Note_on_c, 1, 28, 0
3, 65040, Note_on_c, 1, 28, 80
3, 65153, Note_on_c, 1, 28, 0
3, 65160, Note_on_c, 1, 30, 80
3, 65273, Note_on_c, 1, 30, 0
3, 65280, Note_on_c, 1, 32, 80
3, 65963, Note_on_c, 1, 32, 0
3, 66000, Note_on_c, 1, 32, 80
3, 66455, Note_on_c, 1, 32, 0
3, 66480, Note_on_c, 1, 32, 80
3, 66935, Note_on_c, 1, 32, 0
3, 66960, Note_on_c, 1, 32, 80
3, 67187, Note_on_c, 1, 32, 0
3, 67200, Note_on_c, 1, 33, 80
3, 67883, Note_on_c, 1, 33, 0
3, 67920, Note_on_c, 1, 33, 80
3, 68375, Note_on_c, 1, 33, 0
3, 68400, Note_on_c, 1, 33, 80
3, 68855, Note_on_c, 1, 33, 0
3, 68880, Note_on_c, 1, 33, 80
3, 69107, Note_on_c, 1, 33, 0
3, 69120, Note_on_c, 1, 36, 80
3, 69803, Note_on_c, 1, 36, 0
3, 69840, Note_on_c, 1, 36, 80
3, 70295, Note_on_c, 1, 36, 0
3, 70320, Note_on_c, 1, 36, 80
3, 70775, Note_on_c, 1, 36, 0
3, 70800, Note_on_c, 1, 36, 80
3, 71027, Note_on_c, 1, 36, 0
3, 71040, Note_on_c, 1, 35, 80
3, 71723, Note_on_c, 1, 35, 0
3, 71760, Note_on_c, 1, 37, 80
3, 72215, Note_on_c, 1, 37, 0
3, 72240, Note_on_c, 1, 37, 80
3, 72695, Note_on_c, 1, 37, 0
3, 72720, Note_on_c, 1, 37, 80
3, 72947, Note_on_c, 1, 37, 0
3, 72960, Note_on_c, 1, 30, 80
3, 73643, Note_on_c, 1, 30, 0
3, 73680, Note_on_c, 1, 35, 80
3, 74135, Note_on_c, 1, 35, 0
3, 74160, Note_on_c, 1, 35, 80
3, 74615, Note_on_c, 1, 35, 0
3, 74640, Note_on_c, 1, 35, 80
3, 74867, Note_on_c, 1, 35, 0
3, 74880, Note_on_c, 1, 28, 80
3, 74880, Note_on_c, 1, 40, 80
3, 75563, Note_on_c, 1, 28, 0
3, 75563, Note_on_c, 1, 40, 0
3, 75600, Note_on_c, 1, 40, 80
3, 76055, Note_on_c, 1, 40, 0
3, 76080, Note_on_c, 1, 40, 80
3, 76535, Note_on_c, 1, 40, 0
3, 76560, Note_on_c, 1, 40, 80
3, 76787, Note_on_c, 1, 40, 0
3, 76800, Note_on_c, 1, 28, 80
3, 76800, Note_on_c, 1, 40, 80
3, 78623, Note_on_c, 1, 28, 0
3, 78623, Note_on_c, 1, 40, 0
3, 78624, End_track
0, 0, End_of_file
